<?xml version="1.0" encoding="UTF-8"?>
<svg id="Layer_1" xmlns="http://www.w3.org/2000/svg" version="1.1" viewBox="0 0 800 800">
  <!-- Generator: Adobe Illustrator 30.3.0, SVG Export Plug-In . SVG Version: 2.1.3 Build 182)  -->
  <path id="White-88" d="M645.04,405.3c-18.24-18.11-40.66-31.43-65.29-38.78v-4.69c18.01-7.49,34.17-18.8,47.37-33.15,16.07-17.92,30.19-48.2,30.19-88.89-.46-44.31-19.28-86.45-51.99-116.36-35-33.15-98.44-68.15-210.08-68.15-51.06,0-123,6.65-178.87,43.49-25.21,16.15-46.42,37.81-62.05,63.35-19.04,32.27-8.33,73.86,23.94,92.9,10.51,6.2,22.5,9.46,34.7,9.42h88.09c22.88.53,44.39-10.88,56.79-30.11,1.45-2.49,3.22-4.79,5.26-6.83,7.64-7.29,17.79-11.36,28.35-11.36,11.08-.69,21.98,3.07,30.29,10.44,8.71,8.01,13.52,19.39,13.2,31.21,0,18.01-4.71,30.29-15.15,38.78-2.77,2.37-5.84,4.35-9.14,5.91-24.94,11.06-41.26,35.52-41.92,62.79v7.66c.56,29.73,20.33,55.67,48.85,64.09,9.56,2.92,18.17,8.34,24.93,15.7,9.86,11.99,15.22,27.05,15.15,42.57.2,15.88-5.91,31.19-16.99,42.57-11.91,11.48-27.98,17.61-44.51,16.99-16.07.62-31.72-5.18-43.5-16.12-5.68-5.37-10.28-11.76-13.58-18.84-11.38-22.87-34.84-37.22-60.38-36.91h-95.58c-37.61.1-68.02,30.68-67.92,68.29.03,9.91,2.22,19.7,6.42,28.68,9.81,21.57,23.31,41.25,39.89,58.17,32.14,33.15,99.36,76.65,237.51,76.65,59.65,0,159.94-3.79,229.94-73.78,36.18-34.83,56.08-83.24,54.86-133.44,0-44.45-12.28-75.72-38.78-102.23v-.02h0ZM262.55,143.6c-14.54,11.52-26.57,25.88-35.37,42.2-12.19,20.13-43.4,2.95-32.32-17.82,4.91-8.91,11.25-16.96,18.75-23.83,48.3-45.34,78.03-20.68,48.94-.55h0ZM179.44,540.58c-6.56,12.56-17.73,19.58-25.03,15.77s-8.04-16.99-1.48-29.55,17.73-19.67,25.03-15.89c7.3,3.79,7.94,17.08,1.48,29.64v.02h0Z" fill="#22c1df"/>
</svg>