<?xml version="1.0" encoding="UTF-8"?>
<svg id="Layer_1" xmlns="http://www.w3.org/2000/svg" version="1.1" viewBox="0 0 800 800">
  <!-- Generator: Adobe Illustrator 30.3.0, SVG Export Plug-In . SVG Version: 2.1.3 Build 182)  -->
  <path id="Union_3" d="M483.72,600.96c.03-72.63,58.91-131.48,131.53-131.46,72.63.03,131.48,58.91,131.46,131.53-.03,72.59-58.87,131.43-131.46,131.46-72.64,0-131.53-58.89-131.53-131.53h0ZM544.36,547.94c0,17.98,8.92,32.46,19.87,32.46s19.7-14.56,19.7-32.46-8.82-32.44-19.7-32.44-19.88,14.48-19.88,32.44h.01ZM60.51,599.13c.08-72.62,59.03-131.42,131.64-131.33,72.62.08,131.42,59.03,131.33,131.64-.08,72.58-58.97,131.37-131.54,131.33-72.64-.08-131.48-59-131.44-131.64h.01ZM121.17,546.14c0,17.98,8.92,32.43,19.86,32.43s19.77-14.56,19.77-32.43-8.85-32.37-19.77-32.37-19.86,14.4-19.86,32.37h0ZM276.11,191.68c.05-72.59,58.94-131.39,131.53-131.34,72.59.06,131.39,58.95,131.34,131.53-.06,72.56-58.9,131.35-131.46,131.34-72.6-.07-131.43-58.93-131.43-131.53h.02ZM336.73,138.66c0,17.9,8.85,32.37,19.77,32.37s19.89-14.42,19.89-32.37-8.95-32.43-19.89-32.43-19.78,14.58-19.78,32.43h.01Z" fill="#22c1df"/>
</svg>