<?xml version="1.0" encoding="UTF-8"?>
<svg id="Layer_1" xmlns="http://www.w3.org/2000/svg" version="1.1" viewBox="0 0 800 800">
  <!-- Generator: Adobe Illustrator 30.3.0, SVG Export Plug-In . SVG Version: 2.1.3 Build 182)  -->
  <path id="White-89" d="M704.65,330.73c.03-.41-.03-.83-.17-1.21-.17-.44-.26-.87-.44-1.32-.17-.46-.37-.9-.61-1.32-.22-.55-.52-1.08-.87-1.56l-.78-1.04c-.34-.39-.72-.74-1.14-1.04-.39-.37-.79-.72-1.21-1.04-.15-.14-.32-.26-.51-.34l-211.74-150.38c-5.8-4.02-13.76-2.57-17.78,3.24-3.24,4.69-2.99,10.95.62,15.36,44.57,52.91,80.38,111.56,77.78,125.47H93.32c-7.03,0-12.73,5.7-12.73,12.73s5.7,12.73,12.73,12.73h454.32c2.86,14.68-31.68,73.6-74.89,127.12-3.96,4.94-3.7,12.04.61,16.68,2.42,2.62,5.82,4.13,9.38,4.17,2.58-.01,5.11-.8,7.23-2.27l209.2-143.46h.17c.42-.4.86-.78,1.32-1.14,1.12-1.14,2.09-2.43,2.86-3.83.33-.57.59-1.19.78-1.82s.33-1.27.44-1.91c.14-.72.2-1.45.17-2.18-.01-.55-.07-1.11-.17-1.65h-.11.02ZM558.14,316.66h0ZM558.39,339.58c.09-.05.18-.1.26-.17h0c-.08.11-.21.17-.34.17h.08Z" fill="#de64ad"/>
</svg>