<?xml version="1.0" encoding="UTF-8"?>
<svg id="Layer_1" xmlns="http://www.w3.org/2000/svg" version="1.1" viewBox="0 0 800 800">
  <!-- Generator: Adobe Illustrator 30.3.0, SVG Export Plug-In . SVG Version: 2.1.3 Build 182)  -->
  <path d="M223.17,182.84c11.02,0,19.96-8.94,19.96-19.96h0v-93.13c0-11.02-8.94-19.96-19.96-19.96s-19.96,8.94-19.96,19.96v93.12h0c0,11.03,8.94,19.97,19.96,19.97h0Z" fill="#fff"/>
  <path d="M607.43,182.66h0c11.02,0,19.96-8.94,19.96-19.96v-93.12c0-11.02-8.94-19.96-19.96-19.96s-19.96,8.94-19.96,19.96v93.12h0c0,11.02,8.94,19.96,19.96,19.96Z" fill="#fff"/>
  <rect x="244.54" y="272.73" width="94.72" height="94.72" rx="25.52" ry="25.52" fill="#fff"/>
  <rect x="244.54" y="402.23" width="94.72" height="94.72" rx="25.52" ry="25.52" fill="#fff"/>
  <rect x="374.14" y="402.23" width="94.72" height="94.72" rx="25.52" ry="25.52" fill="#fff"/>
  <rect x="503.82" y="272.73" width="94.72" height="94.72" rx="25.52" ry="25.52" fill="#fff"/>
  <rect x="503.82" y="402.23" width="94.72" height="94.72" rx="25.52" ry="25.52" fill="#fff"/>
  <rect x="504.26" y="531.12" width="94.72" height="94.72" rx="25.52" ry="25.52" fill="#fff"/>
  <path d="M671.31,151.1h-17.36v11.6c0,25.69-20.83,46.52-46.52,46.52s-46.52-20.83-46.52-46.52v-11.6h-291.23v11.77c0,25.69-20.83,46.52-46.52,46.51-25.69,0-46.51-20.83-46.51-46.51v-11.77h-18.68c-33.36-.03-60.43,26.99-60.46,60.35v412.35c.02,33.36,27.08,60.39,60.44,60.37h513.34c33.36.03,60.43-26.99,60.46-60.35V211.47c-.02-33.36-27.08-60.39-60.44-60.37ZM679.35,585.56h0c-.02,33.36-27.08,60.39-60.44,60.37H213.74c-33.32.02-60.35-26.98-60.37-60.3v-275.81c-.03-33.36,26.99-60.43,60.35-60.46h405.17c33.38,0,60.44,27.07,60.46,60.46v275.74h0Z" fill="#fff"/>
  <rect x="374.18" y="272.73" width="94.72" height="94.72" rx="22.46" ry="22.46" fill="#fff"/>
</svg>