<?xml version="1.0" encoding="UTF-8"?>
<svg id="Layer_1" xmlns="http://www.w3.org/2000/svg" version="1.1" viewBox="0 0 800 800">
  <!-- Generator: Adobe Illustrator 30.3.0, SVG Export Plug-In . SVG Version: 2.1.3 Build 182)  -->
  <path d="M645.95,599.03c-6.65.36-11.74,6.04-11.39,12.68.34,6.39,5.62,11.39,12.01,11.4,7.08-.18,16.83-4.36,17.37.27.87,6.81-14.83,4.66-25.07,6.89-6.52,1.37-12.91-2.81-14.28-9.33-.05-.26-.1-.52-.14-.79l-28.31-206c-.74-5.67,2.94-10.98,8.51-12.27,77.66-20.32,111.7-79.33,98.94-172.09l-21.67-124.46-1.07-6.27c-.84-2.2-2.02-4.26-3.49-6.11-23.28-29.1-130.73-15.4-143.98-13.52-13.43,1.88-120.52,17.45-135.11,51.84-.69,1.42-1.17,2.92-1.43,4.48l.09-.16v.02l.99,10.3,3.6,38.26c-.13-.59-.28-1.17-.46-1.74h.27-.01c-9.49-32.78-105.12-58.93-117.11-62.06-11.82-3.13-107.98-27.49-132.43-3.67-1.53,1.5-2.83,3.22-3.85,5.1l-1.7,5.64-33.48,110.78c-21.75,82.9,2.62,140.4,70.91,167.43,4.88,1.83,7.61,7.03,6.36,12.09l-48.53,184.18c-1.53,5.87-7.53,9.39-13.4,7.86-.28-.07-.56-.16-.83-.25-8.95-3.13-23.56-2.96-22.02-9.04,1.07-4.12,9.49.72,15.85,1.7,6.02.84,11.58-3.36,12.42-9.38.82-5.91-3.21-11.4-9.1-12.38-33.16-5.02-49.43-1.52-52.74,11.2-5.82,21.94,42.71,38.14,71.99,45.84,29.46,7.79,79.6,17.45,85.42-4.36,3.13-12-7.7-22.38-35.28-33.75-5.64-2.33-12.09.36-14.42,5.99-2.33,5.64.36,12.09,5.99,14.42,3.94,1.61,10.74,1.52,10.03,4.56-1.7,5.99-14.5-1.34-24.08-3.05-5.99-1.15-9.9-6.94-8.75-12.93.04-.23.1-.46.15-.68l48.28-183.49c1.37-5.18,6.57-8.38,11.82-7.25,77.44,14.33,130.1-23.28,152.84-109.86l24.17-111.12,1.96-8.88,7.77,82.49c13.26,96.86,65.36,144.6,151.14,139.23,5.85-.46,11.06,3.69,11.91,9.49l28.12,205.31c.93,6.54-3.62,12.59-10.16,13.52-.31.04-.63.08-.94.1-10.65.54-25.43,6.89-26.5.09-.36-3.4,7.08-2.33,11.46-3.58,6.4-1.76,10.17-8.37,8.42-14.78s-8.37-10.17-14.78-8.42c-31.41,8.6-44.59,18.45-42.71,31.88,3.4,24.43,59.09,20.59,92.04,16.03,32.77-4.48,87.48-15.71,84.08-40.2-1.97-14.33-19.2-20.24-55.69-19.2h0ZM354.49,301.77h0c-21.04,80.14-67.42,109.79-141.47,90.26-59.99-15.76-88.28-50.5-85.78-105.59,23.37,8.78,66.43,15.49,115.77,16.83,38.01,2.04,76.12-1.15,113.27-9.49l-1.79,7.99h0ZM362.47,265.22c-22.76-9.3-66.95-16.36-117.85-17.79-38.08-2.07-76.25,1.16-113.44,9.6.8-4.21,1.79-8.42,2.96-12.71l27.31-90.61c29.67,23.73,92.94,41.1,102.61,43.63,9.49,2.5,72.97,18.53,110.49,12.63l-12.08,55.25ZM337.04,188.26h.08c-22.82-2.24-45.4-6.4-67.51-12.45-22.14-5.69-43.78-13.15-64.72-22.3-13.27-5.01-25.39-12.66-35.64-22.47,8.66-2.47,17.7-3.38,26.68-2.69,27.99,1.3,55.74,5.75,82.73,13.26,27.17,6.71,53.49,16.5,78.43,29.19,8.19,3.79,15.62,9.04,21.94,15.49-13.72,3.47-28,4.14-41.99,1.97ZM421.99,138.3h.01c7.68-6.17,16.42-10.87,25.79-13.88,28.74-10.42,58.57-17.53,88.91-21.22,30.24-4.59,60.91-5.76,91.42-3.49,9.83.43,19.5,2.61,28.56,6.45-4.56,4.83-18.45,12.27-41.55,19.61-23.91,7.22-48.38,12.48-73.15,15.71-24.75,3.58-49.76,5.1-74.77,4.56-24.27-.8-39.66-4.21-45.22-7.61v-.13ZM423.69,164.35h.01c39.93,11.27,110.82,2.32,121.5.86s81.66-11.91,116.93-33.75l17.73,101.9c.72,4.83,1.26,9.6,1.52,14.23-25.43-10.84-70.19-20.51-121.68-25.31-55.52-5.1-104.31-3.32-130.19,3.76l-5.82-61.69ZM433.37,266.77l-.87-8.87-.02-.07c25.43,10.74,70.19,20.51,121.49,25.25,53.72,5.02,101.22,3.49,127.77-2.96-4.56,59.99-39.84,93.92-106.9,103.14-82.9,11.34-129.2-26.77-141.47-116.49h0Z" fill="#fff"/>
</svg>