<?xml version="1.0" encoding="UTF-8"?>
<svg id="Layer_1" xmlns="http://www.w3.org/2000/svg" version="1.1" viewBox="0 0 800 800">
  <!-- Generator: Adobe Illustrator 30.3.0, SVG Export Plug-In . SVG Version: 2.1.3 Build 182)  -->
  <path id="Cocktail_Pink" d="M715.58,136.44c-3.7-9.34-12.82-15.39-22.86-15.18H250.13c-7.31.17-13.1,6.23-12.94,13.55.16,7.08,5.86,12.77,12.94,12.94h431.48l-39.28,32.13c-9.88-6.62-36.19-12.01-120.32-3.89-58.82,5.76-117.27,14.9-175.04,27.37-85.97,19.68-170.01-12.45-170.89-12.71-1.33-.5-2.73-.8-4.15-.89h-.18c-20.57-16.33-39.11-30.8-53.76-42.02h42.81c7.31-.17,13.1-6.23,12.94-13.55-.16-7.08-5.86-12.77-12.94-12.94h-54.64c-10.23-.27-19.5,6.01-23.04,15.61-2.86,8.71.29,18.27,7.77,23.57,60.65,45.37,261.64,208.86,293.07,234.28,2.62,2.16,4.16,5.35,4.22,8.74l2.29,246.28c.1,10-7.93,18.18-17.93,18.28h-62.47c-7.31.17-13.1,6.23-12.94,13.55.16,7.08,5.86,12.77,12.94,12.94h184.31c7.31-.17,13.1-6.23,12.94-13.55-.16-7.08-5.86-12.77-12.94-12.94h-59.15c-9.94,0-18.02-8.03-18.09-17.97l-2.29-244.9c-.04-3.49,1.51-6.8,4.22-9.01,36.19-29.22,289.89-236.39,289.89-236.39,7.04-5.54,9.8-14.93,6.88-23.4l-.25.09h-.01ZM445.12,341.06c.43-2.3.64-4.63.62-6.97,0-25.64-20.79-46.43-46.43-46.43s-46.43,20.79-46.43,46.43c-.01.5.02,1,.09,1.5-36.11-29.39-84.65-68.67-130.47-105.31,21.38,3.92,43.06,5.93,64.79,6,22.06.1,44.07-2.3,65.59-7.15,90.04-20.57,226.51-35.22,265.35-29.57l-173.11,141.5Z" fill="#22c1df"/>
</svg>