<?xml version="1.0" encoding="UTF-8"?>
<svg id="Layer_1" xmlns="http://www.w3.org/2000/svg" version="1.1" viewBox="0 0 800 800">
  <!-- Generator: Adobe Illustrator 30.3.0, SVG Export Plug-In . SVG Version: 2.1.3 Build 182)  -->
  <path d="M503.95,181.75l-.14.07v-.02c-140.78-64.94-302.13-16.27-359.71,108.48-4.79,10.4-8.93,21.09-12.4,32-1.93,6.12,1.47,12.64,7.59,14.57s12.64-1.47,14.57-7.59c3.13-10,6.91-19.79,11.31-29.29,52.22-113.13,199.77-156.76,328.87-97.16,129.1,59.59,191.74,200.08,139.48,313.29-31,67.27-99.89,134.29-178.15,122.51-72.6-10.92-77.56-52.23-82.47-92.21-3.33-27.43-6.74-55.87-35.79-64.47-31.23-9.22-55.64,7.21-77.1,21.77-30.61,20.61-50.83,34.25-86.95-13.79-17.54-23.77-27.69-52.17-29.21-81.67-.32-6.41-5.78-11.34-12.19-11.01-6.41.32-11.34,5.78-11.01,12.19,0,.15.02.3.03.46,1.81,34,13.58,66.72,33.86,94.07,49.44,65.64,87.72,39.83,118.56,19.06,19.75-13.33,36.88-24.88,57.58-18.75,13.1,3.88,15.96,16.66,19.37,44.94,5.04,41.77,11.93,98.88,102.05,112.44,6.67,1.01,13.4,1.5,20.15,1.47,62.22,0,138.01-40.61,182.57-137.23,57.58-124.76-10.07-279.19-150.87-344.13h0Z" fill="#fff"/>
  <circle cx="475.09" cy="573.26" r="36.34" fill="#fff"/>
  <circle cx="278.85" cy="266.46" r="36.34" fill="#fff"/>
  <circle cx="438.88" cy="257.74" r="36.34" fill="#fff"/>
  <circle cx="563.52" cy="335.83" r="36.34" fill="#fff"/>
  <circle cx="575.71" cy="472.98" r="36.34" transform="translate(-68.35 98.35) rotate(-9.22)" fill="#fff"/>
</svg>