<?xml version="1.0" encoding="UTF-8"?>
<svg id="Layer_1" xmlns="http://www.w3.org/2000/svg" version="1.1" viewBox="0 0 800 800">
  <!-- Generator: Adobe Illustrator 30.3.0, SVG Export Plug-In . SVG Version: 2.1.3 Build 182)  -->
  <g id="Water_Pink">
    <path id="Path_157" d="M436.43,384.12l-134.45-195.24c-5.97-8.68-15.83-13.86-26.36-13.86h-.09c-10.53,0-20.39,5.18-26.36,13.86l-134.41,195.24c-33.44,47.37-46.38,106.22-35.9,163.26,12.08,59.71,47.67,112.06,98.75,145.26,28.55,20.71,62.66,32.39,97.92,33.53,35.3-1.14,69.44-12.83,98.03-33.56,51.14-33.14,86.74-85.52,98.75-145.26,10.53-57.03-2.42-115.9-35.9-163.26l.02.03h0ZM401.46,420.35c10.08-.03,18.28,8.12,18.31,18.21.03,10.08-8.12,18.28-18.21,18.31-10.08.03-18.28-8.12-18.31-18.21h0c0-10.07,8.13-18.25,18.21-18.3h0ZM342.83,665.79c-1.37.45-2.81.7-4.26.73-7.52,0-13.62-6.09-13.62-13.61,0-5.49,3.3-10.45,8.37-12.57,3.62-2,85.25-51.83,66.68-142.87-1.5-7.36,3.25-14.54,10.6-16.04,7.36-1.5,14.54,3.25,16.04,10.6h0c21.71,106.91-72.48,169.96-83.8,173.77h0Z" fill="#fff"/>
    <path id="Path_158" d="M700.34,203.83l-80.81-117.42c-3.58-5.23-9.52-8.36-15.86-8.35h-.09c-6.34,0-12.28,3.12-15.86,8.35l-80.89,117.42c-20.08,28.51-27.82,63.92-21.47,98.21,7.25,35.87,28.64,67.32,59.34,87.25,17.15,12.5,37.67,19.54,58.89,20.2,21.24-.67,41.79-7.71,58.98-20.2,30.67-19.96,52.05-51.39,59.34-87.25,6.37-34.3-1.41-69.73-21.56-98.21h-.01ZM642.44,359.66c-.94.28-1.92.43-2.9.45-3.88-.03-7.33-2.49-8.61-6.16-1.53-4.5.69-9.41,5.08-11.24,2.26-1.36,49.46-30.62,38.78-83.17-1-4.9,2.16-9.69,7.07-10.69,4.9-1,9.69,2.16,10.69,7.07,13.05,64.14-42.22,101.01-50.09,103.73h-.02Z" fill="#fff"/>
  </g>
</svg>