<?xml version="1.0" encoding="UTF-8"?>
<svg id="Layer_1" xmlns="http://www.w3.org/2000/svg" version="1.1" viewBox="0 0 216 216">
  <!-- Generator: Adobe Illustrator 30.3.0, SVG Export Plug-In . SVG Version: 2.1.3 Build 182)  -->
  <path d="M179.97,24.67c-8.72-6.06-20.25-5.87-28.67.49-1.69,1.27-3.09,2.59-4.59,4-.23.21-.45.42-.68.63l-.18-7.26c-.22-8.9-7.77-16.17-16.82-16.2h-.06c-9.31,0-16.91,7.27-16.96,16.21l-.08,18.59c-.03,6.35-3.58,12.18-9.05,14.85-6.19,3.03-13.02,2.27-17.81-1.99l-15.66-13.9c-8.57-7.6-22.61-6.82-31.3,1.75-8.55,8.42-9.64,21.7-2.56,30.87l27.64,36.02c-.09,3.7-.73,9.4-1.45,15.97-1.73,15.7-3.87,35.22-.26,41.89l8.31,20.21c5.17,12.58,16.19,20.24,28.97,20.24.44,0,.88,0,1.33-.02,13.29-.55,24.76-9.5,27.88-21.78l6.13-24.12c3.45-13.57,10.58-25.89,21.19-36.62,8.39-8.47,14.82-18.84,19.12-30.81l15.12-42.13c3.82-10.64-1.93-21.59-9.58-26.91l.02.02ZM181.07,50.58l-4.84,13.28-10.83-2.71c-2.46-.61-4.7.55-5.46,2.83-.32.96-.16,2.23.44,3.31.56,1.04,1.42,1.75,2.39,2l10.52,2.66-8.09,21.94c-3.62,9.85-9.86,18.95-19.04,27.83l-11.98-6c-1.95-.97-4.28-.45-5.55,1.25-.69.93-.94,2.22-.65,3.43.28,1.22,1.05,2.23,2.1,2.77l10.42,5.32c-7.02,9.53-11.68,19.09-14.25,29.18l-3.82,14.98h-12.3c-2.43,0-4.31,1.54-4.59,3.77-.15,1.12.26,2.35,1.08,3.29.8.92,1.89,1.42,3.06,1.42h10.77c-2.36,9.31-9.86,16.17-19.01,17.23-10.24,1.2-19.43-4.28-23.39-13.95l-6.57-16.02,9.66-.02c1.1,0,2.21-.51,3.01-1.39.83-.91,1.26-2.11,1.16-3.24-.2-2.23-2.21-3.9-4.67-3.9h-.03l-13.4.06c-.94-6.1.52-15.78,1.93-25.17,1.74-11.6,3.54-23.57,1.18-30.33l7.17-7.3c1.6-1.63,1.82-4.24.5-5.94-.6-.78-1.73-1.3-3-1.38-1.3-.08-2.48.29-3.22,1.02l-6.47,6.42-23.01-29.7c-5.2-6.71-2.65-15.82,2.68-20.42,5.89-5.07,14.62-4.69,20.77.88l13.37,12.15c7.85,7.13,19.36,8.2,28.86,2.75l12.33,9.12c.78.57,1.89.76,3.06.52,1.28-.28,2.36-1.01,2.9-1.97,1.05-1.86.4-4.44-1.5-5.86l-10.01-7.47c3.8-4.91,5.64-9.99,5.65-15.49v-18.02c.01-2.45.9-4.69,2.5-6.33,1.59-1.63,3.81-2.56,6.14-2.53,2.24,0,4.35.91,5.94,2.55,1.61,1.67,2.5,3.9,2.49,6.31l-.04,19.29c0,1.51,1.47,3.37,2.7,3.91,1.37.59,3.78-.06,4.78-1.31l9.32-11.67c5.12-6.4,14.34-6.38,20.3-2.65,6.41,4,9.17,12.12,6.55,19.3h-.01Z" fill="#fff"/>
</svg>