<?xml version="1.0" encoding="UTF-8"?>
<svg id="Layer_1" xmlns="http://www.w3.org/2000/svg" version="1.1" viewBox="0 0 216 216">
  <!-- Generator: Adobe Illustrator 30.3.0, SVG Export Plug-In . SVG Version: 2.1.3 Build 182)  -->
  <g>
    <path d="M77.26,23.14c-.29.11-.59.16-.91.16-.49,0-.96-.13-1.36-.38.15-.01.32-.02.47-.02.61,0,1.21.08,1.79.24h.01Z" fill="#de64ad"/>
    <g>
      <path d="M75.47,22.9c-.15,0-.32.01-.47.02.4.25.86.38,1.36.38.32,0,.62-.05.91-.16-.58-.15-1.18-.24-1.79-.24h-.01Z" fill="#de64ad"/>
      <path d="M169.95,126.64c-11.49,0-21.92,4.49-29.64,11.82l-15.15-15.15c.04-.21.07-.41.1-.62l6.2-46.84h0c4.31-2.1,7.29-6.53,7.29-11.64,0-7.14-5.8-12.93-12.93-12.93-.78,0-1.55.07-2.3.22l-34.88-26.8c.41-1.27.64-2.61.64-4.01,0-7.14-5.79-12.93-12.93-12.93s-12.93,5.79-12.93,12.93c0,.35,0,.7.04,1.04l-45.26,18.72c-4.04,1.67-6.88,5.36-7.44,9.69l-7.46,56.43c-.58,4.33,1.2,8.64,4.66,11.29l38.57,29.64c-.05.45-.07.92-.07,1.39,0,7.14,5.79,12.93,12.93,12.93,6.31,0,11.57-4.53,12.69-10.52l45.74-18.91c.43-.17.84-.38,1.25-.61l14.65,14.65c-4.33,6.72-6.85,14.72-6.85,23.31,0,23.79,19.29,43.07,43.08,43.07s43.07-19.28,43.07-43.07-19.28-43.08-43.07-43.08v-.02ZM75.47,22.9c.61,0,1.21.08,1.79.24-.29.11-.59.16-.91.16-.49,0-.96-.13-1.36-.38.15-.01.32-.02.47-.02h.01ZM115.85,115.31l-.69,5.27-.1.75c-.08.68-.54,1.27-1.16,1.52l-2.64,1.09-41.53,17.17c-2.35-3.15-6.1-5.18-10.34-5.18-2.87,0-5.54.94-7.68,2.53l-37.47-28.79c-.55-.42-.82-1.1-.74-1.78l7.46-56.42c.09-.68.55-1.27,1.17-1.53l46.23-19.12c2.19,1.74,4.97,2.77,7.99,2.77,1.95,0,3.78-.42,5.44-1.19l32.88,25.26c-1.13,1.91-1.78,4.15-1.78,6.54,0,5.44,3.37,10.1,8.13,12l-5.18,39.11h.01ZM169.95,202.5c-18.08,0-32.79-14.71-32.79-32.78,0-5.72,1.47-11.11,4.07-15.79.84-1.53,1.81-3,2.89-4.38,1.06-1.36,2.22-2.64,3.49-3.8,5.86-5.48,13.71-8.82,22.34-8.82,18.07,0,32.78,14.71,32.78,32.79s-14.71,32.78-32.78,32.78h0Z" fill="#de64ad"/>
    </g>
  </g>
  <line x1="116.35" y1="122.56" x2="116.15" y2="122.36" fill="none"/>
  <path d="M37.78,56.78l-6.16,48.8c-.32,2.59-2.54,4.5-5.1,4.5-.22,0-.43-.01-.65-.04-2.82-.35-4.82-2.93-4.47-5.75l6.16-48.79c.36-2.82,2.93-4.82,5.75-4.46,2.82.35,4.82,2.92,4.46,5.74h.01Z" fill="#de64ad"/>
</svg>