<?xml version="1.0" encoding="UTF-8"?>
<svg id="Layer_1" xmlns="http://www.w3.org/2000/svg" version="1.1" viewBox="0 0 216 216">
  <!-- Generator: Adobe Illustrator 30.3.0, SVG Export Plug-In . SVG Version: 2.1.3 Build 182)  -->
  <path d="M109,36.68c23.23,0,25.98.09,35.16.51,23.58,1.07,34.59,12.26,35.66,35.66.42,9.17.5,11.93.5,35.16s-.09,25.98-.5,35.16c-1.08,23.38-12.06,34.59-35.66,35.66-9.18.42-11.92.51-35.16.51s-25.98-.09-35.16-.51c-23.63-1.08-34.59-12.32-35.66-35.67-.42-9.17-.51-11.92-.51-35.16s.09-25.98.51-35.16c1.08-23.4,12.06-34.59,35.66-35.66,9.18-.41,11.93-.5,35.16-.5ZM109,21c-23.63,0-26.59.1-35.87.52-31.6,1.45-49.15,18.98-50.6,50.61-.43,9.29-.53,12.25-.53,35.87s.1,26.59.52,35.87c1.45,31.6,18.98,49.16,50.61,50.6,9.29.42,12.25.52,35.87.52s26.59-.1,35.87-.52c31.57-1.45,49.17-18.98,50.6-50.6.43-9.28.53-12.25.53-35.87s-.1-26.59-.52-35.87c-1.42-31.57-18.97-49.16-50.6-50.61-9.29-.43-12.25-.53-35.88-.53h0ZM109,63.33c-24.67,0-44.67,20-44.67,44.67s20,44.67,44.67,44.67,44.67-20,44.67-44.67-20-44.67-44.67-44.67ZM109,137c-16.02,0-29-12.98-29-29s12.98-29,29-29,29,12.98,29,29-12.98,29-29,29ZM155.44,51.12c-5.77,0-10.44,4.68-10.44,10.44s4.68,10.44,10.44,10.44,10.44-4.68,10.44-10.44-4.68-10.44-10.44-10.44Z" fill="#22c1df"/>
</svg>