<?xml version="1.0" encoding="UTF-8"?>
<svg id="Layer_1" xmlns="http://www.w3.org/2000/svg" version="1.1" viewBox="0 0 800 800">
  <!-- Generator: Adobe Illustrator 30.3.0, SVG Export Plug-In . SVG Version: 2.1.3 Build 182)  -->
  <path id="NAC_blue" d="M585.77,327.98l-155.6-226.07c-6.94-10.02-18.36-16-30.55-16h-.09c-12.19,0-23.61,5.98-30.55,16l-155.71,226.07c-38.72,54.85-53.67,122.99-41.49,189.01,13.99,69.1,55.2,129.66,114.35,168.03,33.03,24.03,72.52,37.57,113.34,38.87,40.85-1.29,80.37-14.83,113.43-38.87,59.15-38.37,100.36-98.93,114.35-168.03,12.19-66.02-2.77-134.16-41.49-189.01h.01ZM385.91,277.41c.03,1.4-.65,2.73-1.81,3.52l-147.43,109.32c-5.83,4.68-6.76,13.2-2.08,19.03,4.42,5.51,12.33,6.69,18.17,2.72l126.27-93.61c1.96-1.39,4.67-.94,6.07,1.02.52.73.8,1.61.81,2.5v96.99c.03,1.4-.65,2.73-1.81,3.52l-91.35,67.62c-5.78,4.77-6.6,13.33-1.83,19.11,4.43,5.37,12.22,6.51,18.01,2.64l70.1-51.85c1.89-1.43,4.57-1.06,6,.83.57.75.87,1.67.87,2.61v226.87c0,2.81-2.26,5.1-5.07,5.1-.24,0-.48-.02-.71-.05-28.45-4.81-55.43-16.03-78.91-32.81-53.1-34.34-90.15-88.62-102.77-150.59-10.81-58.89,2.58-119.66,37.15-168.55l141.09-204.76c1.54-2.31,4.67-2.94,6.98-1.39,1.43.95,2.27,2.57,2.24,4.28v135.93h0ZM600.59,511.92c-12.66,61.95-49.7,116.22-102.77,150.59-23.55,16.77-50.59,27.99-79.09,32.81-2.74.38-5.27-1.54-5.65-4.28-.04-.26-.05-.52-.05-.78v-227.69c-.02-2.36,1.87-4.29,4.23-4.32.95,0,1.89.3,2.64.88l71.59,54.14c2.35,1.75,5.2,2.7,8.13,2.71,4.27.06,8.31-1.92,10.87-5.33,4.52-6,3.35-14.52-2.62-19.07l-93.1-70.24c-1.08-.81-1.72-2.08-1.72-3.44v-95.53c-.02-2.36,1.87-4.29,4.23-4.32.95,0,1.89.3,2.64.88l126.14,95.36c2.32,1.81,5.19,2.8,8.13,2.81,7.51-.01,13.58-6.11,13.57-13.61,0-4.23-1.98-8.22-5.35-10.79l-147.77-111.64c-1.03-.85-1.63-2.11-1.63-3.44v-136.31c-.05-2.78,2.16-5.08,4.94-5.13,1.72-.03,3.33.81,4.28,2.24l141.19,204.92c34.56,48.9,47.96,109.66,37.15,168.55v.02h.02,0Z" fill="#fff"/>
</svg>