<?xml version="1.0" encoding="UTF-8"?>
<svg id="Layer_1" xmlns="http://www.w3.org/2000/svg" version="1.1" viewBox="0 0 800 800">
  <!-- Generator: Adobe Illustrator 30.3.0, SVG Export Plug-In . SVG Version: 2.1.3 Build 182)  -->
  <path id="Location_Pink" d="M408.73,87.05c-110.32-3.84-202.86,82.48-206.7,192.79-.08,2.34-.12,4.68-.12,7.03,0,189.37,134.31,318.78,183.18,359.62,10.13,8.45,24.88,8.35,34.89-.24,47.5-40.51,176.67-167.11,181.65-348.13,3.05-110.93-81.99-207.4-192.91-211.07h.01ZM407.29,172.25c25.08,3.02,42.96,25.79,39.94,50.87-.55,4.58-1.8,9.06-3.69,13.27-5.97,12.89-19.45,20.57-33.58,19.13-2.49-.24-4.99-.4-7.48-.4s-4.83.14-7.23.4c-14.26,1.8-28.11-5.53-34.64-18.33-2.94-6.12-4.46-12.82-4.42-19.61.06-25.27,20.59-45.71,45.86-45.65,1.76,0,3.51.11,5.26.32h-.02ZM467.01,333.41c.02,5.45-2.82,10.51-7.48,13.34-34.82,21.72-78.92,21.88-113.9.42-4.78-2.93-7.7-8.13-7.71-13.74h0c-.44-28.25,16.6-53.84,42.84-64.31,13.78-5.28,29.01-5.36,42.84-.24,26.51,10.32,43.82,36.02,43.41,64.47h0v.07h0Z" fill="#22c1df"/>
</svg>