<?xml version="1.0" encoding="UTF-8"?>
<svg id="Layer_1" xmlns="http://www.w3.org/2000/svg" version="1.1" viewBox="0 0 800 800">
  <!-- Generator: Adobe Illustrator 30.3.0, SVG Export Plug-In . SVG Version: 2.1.3 Build 182)  -->
  <g id="Strong_Pink">
    <path id="Path_155" d="M697.64,530.13c-2,14.4-53.87,63.2-63.78,71.19-97.25,78.6-216.74,90.09-336.31,32.31-5.41,2.58-10.74,5.58-15.9,8.58-6.05,3.56-12.27,6.81-18.65,9.74-32.34,14.28-67.23,21.87-102.58,22.32-15.68.13-31.31-1.85-46.46-5.91l-1-.25c-4-1.08-9.49-2.5-10.49-7.66-1.2-3.59-.58-7.53,1.67-10.57,3.14-2.63,7.33-3.65,11.32-2.75,4.96.63,9.88,1.55,14.74,2.75,5.61,1.39,11.32,2.4,17.07,3,43.51,2.45,86.81-7.58,124.81-28.89,1.58-.92,4.08-2.58,6.74-4.33,5.17-4.22,11.15-7.34,17.57-9.16,6.48,1.38,12.66,3.92,18.24,7.49,3.08,1.58,6,3.16,7.83,3.91,122.4,49.71,229.81,31.06,319.32-55.37,12.59-11.88,24-24.96,34.06-39.05,5.75-11.49-4.83-60.62-10.91-82.6-29.89-109.08-104.75-220.74-162.2-295.18-2.25-2.83-4.5-5.91-6.83-8.99-6.83-8.99-13.74-18.24-20.57-25.65-4.31-5.28-10.94-8.11-17.74-7.58-1.92-.17-3.91-.33-6.24-.58-35.97-4.16-75.35-7.83-113.99-10.57-1.17-.08-2.66-.25-4.33-.42-7.29-1.09-14.7-1.09-21.98,0-4.25,1.67-8.16,13.66-10.24,20.15-.5,1.33-.83,2.58-1.25,3.58-1.25,3.58-2.66,7.66-4.33,12.07-7.23,18.54-13.24,37.54-17.99,56.87-2.6,11.23,2.52,22.83,12.57,28.48l29.56-24.06c.25-2.08-1.75-3.75-5.75-6.66s-9.08-6.49-8.66-12.49c.5-7.16,4.41-8.91,6.74-9.33,9.08-1.58,23.15,10.66,26.15,17.4,8.66,19.15-6.58,30.06-19.98,39.72-3.91,2.83-7.58,5.5-10.66,8.24,1.33,1,2.58,2.08,3.83,3.08,12.74,10.32,21.07,17.24,39.63,10.66,13.07-4.58,25.98-10.66,38.47-16.49,12.93-6.38,26.19-12.08,39.72-17.07,13.2-2.62,26.14,5.59,29.39,18.65,7.16,21.4,12.91,46.63,18.48,71.03,1.67,7.24,3.25,14.32,4.83,21.07,9.99,42.05,17.4,76.69,23.31,109.08,3.78,3.78,7.87,7.24,12.24,10.32,6,3.87,11.3,8.74,15.65,14.4,1.99,3.17,2.36,7.09,1,10.57-1.58,3.12-4.55,5.31-7.99,5.91-5.5,1.08-10.41-4.08-14.32-8.33-1.16-1.28-2.38-2.51-3.66-3.66-81.02-67.36-149.88-80.35-245.63-46.38-1.67.58-4.41,1.75-7.49,3.16-5.94,3.41-12.46,5.67-19.23,6.66-3.21-.55-5.93-2.68-7.24-5.66-1.41-3.18-1.16-6.86.67-9.83,5.66-9.16,44.63-20.48,58.2-22.98-4.66-3.9-9.71-7.3-15.07-10.16-39.21-21.45-83.71-31.3-128.31-28.39-4.16.17-9.49,1-14.65,1.75-6.07,1.15-12.23,1.76-18.4,1.83-4.91.01-9.12-3.5-9.99-8.33-.91-4.85,1.69-9.68,6.24-11.57,10.46-2.51,21.14-3.96,31.89-4.33,70.19-3.58,131.98,15.32,174.02,53.37,29.54-5.07,59.74-5.01,89.26.17,27.63,7.05,53.94,18.49,77.94,33.89-4.16-24.98-10.08-49.88-15.74-74.11l-1.75-7.24c-1.75-7.33-3.5-14.99-5.25-22.9-5.41-24.15-10.99-49.04-17.99-70.03l-.5-1.42c-1.58-5.08-2.33-6.66-6.08-5.83-12.72,4.59-25.13,10.01-37.14,16.24-14.53,7.62-29.72,13.92-45.38,18.82-7.85,2.52-16.28,2.55-24.15.08-10.99-3-50.79-31.47-58.2-39.8-17.99-20.07-11.74-39.88-5.08-60.78l1.42-4.41c1.25-4.25,2.66-8.83,4.08-13.66,5.01-17.9,11.04-35.5,18.07-52.71,8.99-20.15,23.65-20.98,41.97-20.07,22.15,1.17,44.88,3.83,66.95,6.41,23.23,2.66,47.21,5.5,70.53,6.58,8.55.73,16.59,4.41,22.73,10.41,8.29,8.66,16.02,17.84,23.15,27.48,7.99,10.57,15.99,21.73,23.15,31.81,3.33,4.66,6.49,9.08,9.33,13.07,73.36,100.92,121.23,193.34,142.47,274.69,5.58,21.32,14.4,60.7,11.07,85.18l-.02.02h0Z" fill="#fff"/>
    <path id="Path_156" d="M461.75,533.54c-8.19,4.68-17.03,8.1-26.23,10.16-21.55,6.41-43.88,9.8-66.36,10.08-27.77.76-55.11-6.9-78.44-21.98-6.99-4.75-14.32-10.32-15.32-15.07-.69-3.08-.06-6.32,1.75-8.91,1.83-2.36,4.59-3.82,7.58-4h.08c4.08-.25,9.24,3.83,14.07,7.83,1.49,1.38,3.08,2.66,4.75,3.83,39.3,25.15,89.34,18.65,124.48,8.74,1.67-.5,4.33-1.5,7.41-2.66,11.41-4.16,19.73-7.08,23.31-5.41,3.22,1.51,5.45,4.55,5.91,8.08.66,3.42-.47,6.93-3,9.33h0v-.02h.01Z" fill="#fff"/>
  </g>
</svg>