<?xml version="1.0" encoding="UTF-8"?>
<svg id="Layer_1" xmlns="http://www.w3.org/2000/svg" version="1.1" viewBox="0 0 216 216">
  <!-- Generator: Adobe Illustrator 30.3.0, SVG Export Plug-In . SVG Version: 2.1.3 Build 182)  -->
  <path d="M158.11,24.42c-2.76-1.84-6.48-1.09-8.32,1.66-1.84,2.76-1.09,6.48,1.66,8.32,26.38,17.59,44.11,53.18,44.11,88.56,0,21.02-8.1,40.7-22.8,55.4s-34.38,22.8-55.4,22.8h-18.71c-21.02,0-40.7-8.1-55.4-22.8s-22.8-34.38-22.8-55.4c0-35.39,17.73-70.98,44.11-88.56,2.76-1.84,3.5-5.56,1.66-8.32s-5.56-3.5-8.32-1.66C28.32,44.13,8.44,83.74,8.44,122.96c0,24.23,9.35,46.92,26.32,63.88,16.97,16.97,39.66,26.32,63.89,26.32h18.71c24.23,0,46.92-9.35,63.88-26.32,16.97-16.97,26.32-39.66,26.32-63.88,0-39.23-19.87-78.83-49.45-98.55h0Z" fill="#fff"/>
  <path d="M108,86.86c19.42,0,34.07-16.66,34.07-38.74v-31.14c0-6.77-5.51-12.28-12.28-12.28h-43.57c-6.77,0-12.28,5.51-12.28,12.28v31.14c0,22.09,14.65,38.74,34.07,38.74h-.01ZM85.93,16.98c0-.15.13-.28.28-.28h43.57c.15,0,.28.13.28.28v31.14c0,15.5-9.28,26.74-22.07,26.74s-22.07-11.25-22.07-26.74v-31.14h.01Z" fill="#fff"/>
  <path d="M126.71,116.96c-3.31,0-6,2.69-6,6v37.42c0,3.31,2.69,6,6,6s6-2.69,6-6v-37.42c0-3.31-2.69-6-6-6Z" fill="#fff"/>
  <path d="M83.29,122.96v37.42c0,3.31,2.69,6,6,6s6-2.69,6-6v-37.42c0-3.31-2.69-6-6-6s-6,2.69-6,6Z" fill="#fff"/>
  <path d="M102,132.32v46.78c0,3.31,2.69,6,6,6s6-2.69,6-6v-46.78c0-3.31-2.69-6-6-6s-6,2.69-6,6Z" fill="#fff"/>
</svg>