<?xml version="1.0" encoding="UTF-8"?>
<svg id="Layer_1" xmlns="http://www.w3.org/2000/svg" version="1.1" viewBox="0 0 800 800">
  <!-- Generator: Adobe Illustrator 30.3.0, SVG Export Plug-In . SVG Version: 2.1.3 Build 182)  -->
  <path id="White-82" d="M748.23,46.05c-5.74-5.8-15.1-5.85-20.9-.11h0l-200.3,199.3-33.21-83.58c-38.02-94.36-145.33-140.03-239.69-102.01-93.67,37.74-139.49,143.88-102.71,237.93l91.49,230.24-196.43,195.35c-5.8,5.74-5.85,15.1-.11,20.9h0c2.81,2.77,6.6,4.32,10.54,4.34,3.89,0,7.62-1.56,10.35-4.34l187.47-186.54,30.35,76.39c36.15,95.07,142.52,142.83,237.58,106.68,95.07-36.15,142.83-142.52,106.68-237.58-.64-1.68-1.3-3.35-1.99-5.02l-88.46-222.91,209.25-208.17c5.8-5.74,5.85-15.1.11-20.9h0l-.02.03h0ZM372.7,398.7l-130,48.5-63.78-160.56c-31.41-79.34,7.35-169.13,86.64-200.68,18.08-7.24,37.39-10.96,56.87-10.94,63.42,0,120.44,38.65,143.9,97.58l37.85,95.31-31.34,31.15c-.07-.61-.24-1.21-.5-1.77l-33.12-78.66c-4.4-10.54-8.64-21.18-12.71-31.92-11.09-28.96-32.12-53.04-59.33-67.92-7.21-3.84-16.17-1.1-20.01,6.11-3.84,7.21-1.1,16.17,6.11,20.01h0c20.91,11.44,37.06,29.96,45.54,52.23,4.24,11.14,8.57,22.01,13.21,32.92l33.02,78.66c1.71,4.15,5.24,7.27,9.56,8.47l-81.9,81.51h0ZM531.69,339.37l-92.06,34.3,76.39-75.94,16.51,41.39s-.54.14-.84.24h0Z" fill="#fff"/>
</svg>