<?xml version="1.0" encoding="UTF-8"?>
<svg id="Layer_1" xmlns="http://www.w3.org/2000/svg" version="1.1" viewBox="0 0 800 800">
  <!-- Generator: Adobe Illustrator 30.3.0, SVG Export Plug-In . SVG Version: 2.1.3 Build 182)  -->
  <g id="Shield_Blue">
    <path id="Path_209" d="M655.06,175.72c-.04-8.87-5.9-16.66-14.41-19.16l-226.83-67.07c-9.39-2.74-19.36-2.74-28.74,0l-226.78,67.16c-8.42,2.47-14.26,10.13-14.41,18.91-.08,12.66.17,25.41.6,38.15.77,18.65,2.14,37.38,4.02,56.04,2.39,23.09,5.67,46.02,9.84,68.78,4.64,25.73,10.62,51.19,17.92,76.29,7.74,26.73,17.26,52.92,28.51,78.37,11.6,26.25,25.52,51.41,41.58,75.19,16.36,24.36,35.44,46.78,56.88,66.81,26.41,24.37,56.34,44.62,88.8,60.05,5.96,2.9,12.88,3.09,18.99.51,25.5-11.78,49.25-27.01,70.6-45.26,22.62-18.9,42.92-40.4,60.48-64.08,17.15-23.16,32.08-47.88,44.6-73.83,12.19-25.3,22.57-51.44,31.05-78.22,8.05-25.4,14.7-51.21,19.93-77.33,4.8-23.61,8.58-47.36,11.32-71.26,2.31-19.85,3.97-39.75,4.96-59.69.77-14.41,1.19-28.74,1.19-43.11,0-2.4-.08-4.88-.08-7.28l-.03.02h.01ZM426.05,656.06c-16.37,9.84-36.84,9.84-53.21,0-171.94-103.68-199.74-335.6-203.51-436.36-.82-23.08,14.11-43.79,36.27-50.31l179.38-53.21c9.41-2.74,19.41-2.74,28.82,0l179.47,53.21c22.16,6.47,37.09,27.15,36.27,50.21-3.67,100.86-31.56,332.78-203.51,436.46h.02,0Z" fill="#22c1df"/>
    <path id="Path_210" d="M385.19,581.64c-143.89-77.33-160.65-267.58-161.76-337.39-.24-15.42,9.84-29.1,24.64-33.45l139.01-41.23c4.85-1.42,9.93,1.36,11.35,6.21.24.82.36,1.67.37,2.52v395.29c-.03,5.07-4.17,9.16-9.24,9.12-1.49,0-2.96-.38-4.28-1.09h-.09v.02h0Z" fill="#22c1df"/>
  </g>
</svg>