<?xml version="1.0" encoding="UTF-8"?>
<svg id="Layer_1" xmlns="http://www.w3.org/2000/svg" version="1.1" viewBox="0 0 216 216">
  <!-- Generator: Adobe Illustrator 30.3.0, SVG Export Plug-In . SVG Version: 2.1.3 Build 182)  -->
  <path d="M182.09,59.14c-19.66-4.32-34.3-20.82-36.25-40.86v-4.23h-33.17v131.43c-1.88,13.83-13.73,24.12-27.69,24.04-15.35,0-27.79-12.44-27.79-27.79h0c0-15.35,12.44-27.79,27.79-27.79h0c2.69,0,5.19.38,7.6.96v-33.65c-2.52-.32-5.06-.48-7.6-.48-33.37,0-60.53,26.82-60.96,60.19,0,33.66,27.29,60.96,60.96,60.96h0c33.66,0,60.96-27.29,60.96-60.96v-57.88c13.35,9.54,29.36,14.65,45.76,14.61v-32.69c-3.43-1.56-6.66-3.53-9.61-5.86h0Z" fill="#22c1df"/>
</svg>