<?xml version="1.0" encoding="UTF-8"?>
<svg id="Layer_1" xmlns="http://www.w3.org/2000/svg" version="1.1" viewBox="0 0 216 216">
  <!-- Generator: Adobe Illustrator 30.3.0, SVG Export Plug-In . SVG Version: 2.1.3 Build 182)  -->
  <path d="M108,3.34C48.84,3.34,27.87,59.99,27.87,108.51c0,25.51,8.34,51.69,22.84,71.79,15.57,21.54,35.91,33.38,57.29,33.38s41.72-11.84,57.29-33.38c14.51-20.11,22.84-46.28,22.84-71.79,0-48.52-20.97-105.17-80.13-105.17ZM108,203.68c-36.71,0-70.13-45.35-70.13-95.17,0-23.74,5.44-46.78,14.97-63.26,12.27-21.17,30.81-31.91,55.15-31.91s42.88,10.74,55.15,31.91c9.54,16.47,14.97,39.51,14.97,63.26,0,49.82-33.41,95.17-70.13,95.17h.02Z" fill="#de64ad"/>
  <path d="M149.88,101.97c-7.67-9.64-19.44-15.37-32.01-17.21-.3,7.9-.8,15.84-.7,23.74-.77,22.34-2.03,44.58-5,66.79-.67,4.77-7.7,4.77-8.34,0-2.23-16.67-3.47-33.35-4.3-50.09-.7-13.4-1.1-26.78-1.27-40.18-11.94,2.07-23.01,7.74-30.38,16.94-6.44,7.94-17.37-2.93-9.44-9.44,11.6-8.9,25.44-14.21,39.75-15.97v-1.47c-.17-11.1.57-22.24,5.64-33.38,1.47-3.53,6.87-3.5,8.34,0,4.84,11.34,5.9,22.94,5.87,34.68,14.91,1.53,29.41,6.97,41.45,16.27,7.57,6.6-3.23,17.14-9.6,9.3v.02Z" fill="#de64ad"/>
</svg>