<?xml version="1.0" encoding="UTF-8"?>
<svg id="Layer_1" xmlns="http://www.w3.org/2000/svg" version="1.1" viewBox="0 0 216 216">
  <!-- Generator: Adobe Illustrator 30.3.0, SVG Export Plug-In . SVG Version: 2.1.3 Build 182)  -->
  <path d="M108,3.34C48.84,3.34,27.87,59.99,27.87,108.51c0,25.51,8.34,51.69,22.84,71.79,15.57,21.54,35.91,33.38,57.29,33.38s41.72-11.84,57.29-33.38c14.51-20.11,22.84-46.28,22.84-71.79,0-48.52-20.97-105.17-80.13-105.17ZM108,203.68c-36.71,0-70.13-45.35-70.13-95.17,0-23.74,5.44-46.78,14.97-63.26,12.27-21.17,30.81-31.91,55.15-31.91s42.88,10.74,55.15,31.91c9.54,16.47,14.97,39.51,14.97,63.26,0,49.82-33.41,95.17-70.13,95.17h.02Z" fill="#fff"/>
  <path d="M159.49,92.67c-12.04-9.3-26.54-14.74-41.45-16.27.03-11.74-1.03-23.34-5.87-34.68-1.47-3.5-6.87-3.53-8.34,0-5.07,11.14-5.8,22.27-5.64,33.38v1.47c-14.31,1.77-28.14,7.07-39.75,15.97-7.94,6.5,3,17.37,9.44,9.44,7.37-9.2,18.44-14.87,30.38-16.94.17,13.41.57,26.78,1.27,40.18.83,16.74,2.07,33.41,4.3,50.09.63,4.77,7.67,4.77,8.34,0,2.97-22.21,4.23-44.45,5-66.79-.1-7.9.4-15.84.7-23.74,12.57,1.83,24.34,7.57,32.01,17.21,6.37,7.84,17.17-2.7,9.6-9.3v-.02Z" fill="#fff"/>
</svg>