<?xml version="1.0" encoding="UTF-8"?>
<svg id="Layer_1" xmlns="http://www.w3.org/2000/svg" version="1.1" viewBox="0 0 216 216">
  <!-- Generator: Adobe Illustrator 30.3.0, SVG Export Plug-In . SVG Version: 2.1.3 Build 182)  -->
  <path d="M170.97,80.56h0L121.33,8.48c-3.14-4.56-8.32-7.29-13.89-7.29s-10.72,2.72-13.86,7.29l-49.63,72.09c-13.05,18.48-18.19,41.85-14.08,64.2,4.69,23.19,18.74,43.88,38.56,56.8,11.38,8.22,24.81,12.81,38.85,13.26h.32c14.05-.45,27.49-5.04,38.89-13.27,19.84-12.9,33.89-33.6,38.58-56.89,4.11-22.26-1.03-45.63-14.1-64.12h0ZM175.25,142.78c-4.15,20.63-16.65,39.02-34.3,50.46l-.22.15c-9.75,7.07-21.26,11.02-33.29,11.45-12.02-.42-23.51-4.37-33.25-11.43l-.21-.15c-17.64-11.46-30.14-29.86-34.3-50.38-3.61-19.63.93-40.24,12.47-56.59L101.82,14.15c1.27-1.85,3.37-2.95,5.65-2.95s4.35,1.1,5.62,2.96l49.68,72.14,1.04-.67-1.01.71c11.52,16.3,16.05,36.91,12.45,56.45h0Z" fill="#de64ad"/>
  <circle cx="94.9" cy="151.38" r="25.95" transform="translate(-32.24 25.85) rotate(-13.28)" fill="#de64ad"/>
  <circle cx="79.19" cy="86.83" r="14.98" fill="#de64ad"/>
  <circle cx="139.3" cy="151.73" r="7.84" fill="#de64ad"/>
  <circle cx="112.59" cy="46.63" r="10.75" fill="#de64ad"/>
  <circle cx="129.5" cy="95.1" r="21.67" fill="#de64ad"/>
</svg>