<?xml version="1.0" encoding="UTF-8"?>
<svg id="Layer_1" xmlns="http://www.w3.org/2000/svg" version="1.1" viewBox="0 0 216 216">
  <!-- Generator: Adobe Illustrator 30.3.0, SVG Export Plug-In . SVG Version: 2.1.3 Build 182)  -->
  <path d="M80.77,125.71c-10-8.71-24.01-17.71-33.33-16.84l-.95.09-.65.7c-9.93,10.72-37.05,41.73-37.31,42.03-6.1,6.86-8.85,15.94-7.75,25.56,1.09,9.52,5.83,18.43,13.35,25.1,7.71,6.85,17.19,10.26,26.32,10.26s18.33-3.57,24.65-10.7c.28-.32,28.19-31.85,37.27-41.98l.73-.81-.1-1.09c-.84-8.85-9.15-20.93-22.23-32.32ZM61.36,198.59c-10.68,12.03-30.38,12.04-43.91.03-6.6-5.86-10.75-13.65-11.7-21.94-.94-8.19,1.38-15.88,6.53-21.68.23-.28,21.37-24.44,33.12-37.44,3.04,10.79,13.53,22.53,22.58,30.03,9.59,7.95,19.04,12.85,26.36,13.83-11.47,12.87-32.74,36.9-32.98,37.17ZM71.17,143.74c-11.82-9.79-20.2-21.54-21.49-29.89,6.59.54,17.39,6.56,27.81,15.63,10.79,9.41,18.46,19.76,20.21,27.09-6.18.46-16.47-4.49-26.53-12.83Z" fill="#22c1df"/>
  <path d="M101.21,92.39c14.96,0,27.08-12.12,27.08-27.08s-12.12-27.08-27.08-27.08-27.08,12.12-27.08,27.08,12.12,27.08,27.08,27.08ZM101.21,48.23c9.42,0,17.08,7.66,17.08,17.08s-7.66,17.08-17.08,17.08-17.08-7.66-17.08-17.08,7.66-17.08,17.08-17.08Z" fill="#22c1df"/>
  <circle cx="141.4" cy="102.15" r="8.75" fill="#22c1df"/>
  <circle cx="52.34" cy="72.78" r="8.75" fill="#22c1df"/>
  <circle cx="60.87" cy="9.25" r="8.75" fill="#22c1df"/>
  <circle cx="106.93" cy="123.03" r="14.09" fill="#22c1df"/>
  <path d="M183.18,38.39c7.78,0,14.09-6.31,14.09-14.09s-6.31-14.09-14.09-14.09-14.09,6.31-14.09,14.09,6.31,14.09,14.09,14.09ZM183.18,18.21c3.36,0,6.09,2.73,6.09,6.09s-2.73,6.09-6.09,6.09-6.09-2.73-6.09-6.09,2.73-6.09,6.09-6.09Z" fill="#22c1df"/>
  <path d="M210.63,159.31c-.24-.35-23.98-35.14-31.58-46.42l-.61-.91-1.08-.16c-8.78-1.36-22.53,3.74-36.78,13.63-10.89,7.57-23.05,18.95-24.49,28.19l-.14.94.52.81c7.96,12.25,31.38,46.14,31.61,46.47,5.16,7.59,13.29,12.48,22.88,13.77,1.66.22,3.33.33,5,.33,7.88,0,15.75-2.46,22.61-7.12,8.31-5.66,14.16-13.89,16.46-23.19,2.32-9.4.76-18.75-4.4-26.34ZM155.46,139.16c-12.36,9.03-25.68,14.29-33.98,13.52,2.13-6.24,10.62-15.25,21.96-23.12,11.83-8.22,23.83-13.12,31.36-12.95-1.42,6.19-8.82,14.86-19.34,22.55h0Z" fill="#22c1df"/>
</svg>