<?xml version="1.0" encoding="UTF-8"?>
<svg id="Layer_1" xmlns="http://www.w3.org/2000/svg" version="1.1" viewBox="0 0 800 800">
  <!-- Generator: Adobe Illustrator 30.3.0, SVG Export Plug-In . SVG Version: 2.1.3 Build 182)  -->
  <path id="Money_Pink" d="M585.19,372.49c-36.94-37.74-88.36-48.23-132.59-53.82-53.02-6.49-66.69-8.88-74.78-16.08-4.55-4.77-7.12-11.08-7.19-17.67-.13-8.73,3.74-17.04,10.5-22.56,11.18-9.58,27.26-10.38,39.34-10.38,21.34-.07,42.55,3.44,62.73,10.38,10.48,4.11,20.64,8.97,30.41,14.55,14.98,8.39,33.93,3.04,42.32-11.94.69-1.24,1.3-2.52,1.81-3.83l28.86-71.99c6.19-15.33-.81-32.82-15.87-39.64-26.61-12.55-54.86-21.29-83.9-25.96-15.11-2.31-26.27-15.3-26.26-30.58v-23.91c.02-17.02-13.75-30.83-30.77-30.85-.02,0-.03,0-.05,0h-44.23c-17.06-.03-30.92,13.78-30.95,30.84h0v32.36c.06,13.58-8.79,25.59-21.77,29.55-30.43,8.5-58.28,24.4-81.07,46.27-30.82,30.56-47.93,72.32-47.43,115.72-.69,37.31,12.8,73.49,37.74,101.24,32.93,33.72,89.26,48.23,124.6,53.92l48.99,7.94c11.5,1.08,22.42,5.57,31.37,12.88,10.56,10.43,10.67,27.44.24,38-1.76,1.78-3.75,3.3-5.93,4.53-11.98,7.28-33.72,9.68-47.43,9.68-29.94-.55-59.35-7.96-85.97-21.67-12.41-6.28-24.38-13.39-35.84-21.27-14.02-9.81-33.34-6.4-43.15,7.62-1.41,2.02-2.58,4.2-3.48,6.5l-30.35,78.08c-5.5,14.37.32,30.6,13.7,38.19,16.91,9.56,34.47,17.95,52.54,25.09,21.67,8.41,44.21,14.4,67.19,17.87,15.02,2.31,26.1,15.25,26.06,30.45v38.94c.03,17.06,13.88,30.87,30.94,30.85h44.23c17.02.02,30.83-13.75,30.85-30.77,0-.03,0-.05,0-.08v-42.25c-.04-14.17,9.6-26.54,23.36-29.95,36.08-8.03,69.05-26.38,94.88-52.82,30.79-32.46,47.29-75.92,45.79-120.63,1.32-38.21-12.91-75.31-39.44-102.84v.03ZM542.46,162.52c4.79-4.3,13.88-1.9,20.17,5.39,6.29,7.29,7.39,16.47,2.6,20.76s-13.98,1.8-20.27-5.39c-6.29-7.19-7.39-16.57-2.49-20.76ZM586.57,455.16c-8.63,0-23.86-31.37-33.72-41.24s-35.04-32.35-29.05-38.42c5.99-6.08,35.65,6.49,45.03,16.88,17.75,19.66,34.64,62.79,17.75,62.79Z" fill="#dd65a5"/>
</svg>