<?xml version="1.0" encoding="UTF-8"?>
<svg id="Layer_1" xmlns="http://www.w3.org/2000/svg" version="1.1" viewBox="0 0 800 800">
  <!-- Generator: Adobe Illustrator 30.3.0, SVG Export Plug-In . SVG Version: 2.1.3 Build 182)  -->
  <path id="Path_234" d="M203.21,162.88v-11.77h39.92v11.77c0,11.02-8.94,19.96-19.96,19.96s-19.96-8.94-19.96-19.96Z" fill="#dd65a5"/>
  <path id="Path_235" d="M587.47,162.7v-11.6h39.92v11.6c0,11.02-8.94,19.96-19.96,19.96s-19.96-8.94-19.96-19.96Z" fill="#dd65a5"/>
  <rect id="Rectangle_429" x="244.54" y="272.73" width="94.72" height="94.72" rx="25.52" ry="25.52" fill="#dd65a5"/>
  <rect id="Rectangle_430" x="244.54" y="402.23" width="94.72" height="94.72" rx="25.52" ry="25.52" fill="#dd65a5"/>
  <rect id="Rectangle_431" x="374.14" y="402.23" width="94.72" height="94.72" rx="25.52" ry="25.52" fill="#dd65a5"/>
  <rect id="Rectangle_432" x="503.82" y="272.73" width="94.72" height="94.72" rx="25.52" ry="25.52" fill="#dd65a5"/>
  <rect id="Rectangle_433" x="503.82" y="402.23" width="94.72" height="94.72" rx="25.52" ry="25.52" fill="#dd65a5"/>
  <rect id="Rectangle_434" x="504.26" y="531.12" width="94.72" height="94.72" rx="25.52" ry="25.52" fill="#dd65a5"/>
  <path id="Path_237" d="M671.3,151.1h-17.35v11.6c0,25.69-20.83,46.52-46.52,46.52s-46.52-20.83-46.52-46.52v-11.6h-291.23v11.77c0,25.69-20.83,46.52-46.52,46.51-25.69,0-46.51-20.83-46.51-46.51v-11.77h-18.68c-33.36-.03-60.43,26.99-60.46,60.35,0,0,0,.01,0,.02v412.33c.02,33.36,27.08,60.39,60.44,60.37h513.34c33.36.03,60.43-26.99,60.46-60.35V211.47c-.02-33.36-27.08-60.39-60.44-60.37,0,0-.01,0-.02,0ZM679.35,585.56c-.02,33.36-27.08,60.39-60.44,60.37H213.74c-33.32.02-60.35-26.98-60.37-60.3,0-.02,0-.05,0-.07v-275.74c-.03-33.36,26.99-60.43,60.35-60.46h405.17c33.38.01,60.44,27.07,60.46,60.46v275.74Z" fill="#dd65a5"/>
  <path id="Path_239" d="M243.13,69.75v93.12c0,11.02-8.94,19.96-19.96,19.96s-19.96-8.94-19.96-19.96v-93.12c0-11.02,8.94-19.96,19.96-19.96s19.96,8.94,19.96,19.96Z" fill="#dd65a5"/>
  <path id="Path_240" d="M627.39,69.58v93.12c0,11.02-8.94,19.96-19.96,19.96s-19.96-8.94-19.96-19.96v-93.12c0-11.02,8.94-19.96,19.96-19.96s19.96,8.94,19.96,19.96Z" fill="#dd65a5"/>
  <rect id="Rectangle_435" x="374.18" y="272.73" width="94.72" height="94.72" rx="22.46" ry="22.46" fill="#dd65a5"/>
</svg>