<?xml version="1.0" encoding="UTF-8"?>
<svg id="Layer_1" xmlns="http://www.w3.org/2000/svg" version="1.1" viewBox="0 0 800 800">
  <!-- Generator: Adobe Illustrator 30.3.0, SVG Export Plug-In . SVG Version: 2.1.3 Build 182)  -->
  <path id="Cocktail_Pink" d="M1176.05,916.15c-.53-1.33-1.82-2.19-3.25-2.16h-62.96c-1.04.02-1.86.89-1.84,1.93.02,1.01.83,1.82,1.84,1.84h61.38l-5.59,4.57c-1.41-.94-5.15-1.71-17.11-.55-8.37.82-16.68,2.12-24.9,3.89-12.23,2.8-24.18-1.77-24.31-1.81-.19-.07-.39-.11-.59-.13h-.02c-2.93-2.32-5.56-4.38-7.65-5.98h6.09c1.04-.02,1.86-.89,1.84-1.93-.02-1.01-.83-1.82-1.84-1.84h-7.77c-1.46-.04-2.77.85-3.28,2.22-.41,1.24.04,2.6,1.1,3.35,8.63,6.45,37.22,29.71,41.69,33.33.37.31.59.76.6,1.24l.33,35.03c.01,1.42-1.13,2.59-2.55,2.6,0,0-.02,0-.02,0h-8.86c-1.04.02-1.86.89-1.84,1.93.02,1.01.83,1.82,1.84,1.84h26.22c1.04-.02,1.86-.89,1.84-1.93-.02-1.01-.83-1.82-1.84-1.84h-8.41c-1.41,0-2.56-1.14-2.57-2.56l-.33-34.84c0-.5.22-.97.6-1.28,5.15-4.16,41.24-33.63,41.24-33.63,1-.79,1.39-2.12.98-3.33h-.03ZM1137.58,945.26c.06-.33.09-.66.09-.99,0-3.65-2.96-6.6-6.6-6.6s-6.6,2.96-6.6,6.6c0,.07,0,.14.01.21-5.14-4.18-12.04-9.77-18.56-14.98,3.04.56,6.13.84,9.22.85,3.14.01,6.27-.33,9.33-1.02,12.81-2.93,32.22-5.01,37.75-4.21l-24.63,20.13Z" fill="#dd65a5"/>
  <path id="Path_151" d="M-315.32-185.84c-22.81-10.52-48.96-2.64-58.29,17.58-.78,1.69-1.45,3.42-2.01,5.19-.31.99.24,2.05,1.23,2.36s2.05-.24,2.36-1.23c.51-1.62,1.12-3.21,1.83-4.75,8.46-18.33,32.37-25.4,53.29-15.74,20.92,9.66,31.07,32.42,22.6,50.77-5.02,10.9-16.19,21.76-28.87,19.85-11.76-1.77-12.57-8.46-13.36-14.94-.54-4.44-1.09-9.05-5.8-10.45-5.06-1.49-9.02,1.17-12.49,3.53-4.96,3.34-8.24,5.55-14.09-2.24-2.84-3.85-4.49-8.45-4.73-13.24-.05-1.04-.94-1.84-1.97-1.78-1.04.05-1.84.94-1.78,1.97,0,.02,0,.05,0,.07.29,5.51,2.2,10.81,5.49,15.24,8.01,10.64,14.21,6.45,19.21,3.09,3.2-2.16,5.98-4.03,9.33-3.04,2.12.63,2.59,2.7,3.14,7.28.82,6.77,1.93,16.02,16.54,18.22,1.08.16,2.17.24,3.26.24,10.08,0,22.36-6.58,29.58-22.24,9.33-20.22-1.63-45.24-24.45-55.76h-.02Z" fill="#dd65a5"/>
  <circle id="Ellipse_108" cx="-319.98" cy="-122.41" r="5.89" fill="#dd65a5"/>
  <circle id="Ellipse_109" cx="-351.78" cy="-172.13" r="5.89" fill="#dd65a5"/>
  <circle id="Ellipse_110" cx="-325.84" cy="-173.54" r="5.89" fill="#dd65a5"/>
  <circle id="Ellipse_111" cx="-305.65" cy="-160.88" r="5.89" fill="#dd65a5"/>
  <circle id="Ellipse_112" cx="-303.68" cy="-138.66" r="5.89" fill="#dd65a5"/>
  <path id="Cocktail_Pink1" data-name="Cocktail_Pink" d="M1176.05,916.15c-.53-1.33-1.82-2.19-3.25-2.16h-62.96c-1.04.02-1.86.89-1.84,1.93.02,1.01.83,1.82,1.84,1.84h61.38l-5.59,4.57c-1.41-.94-5.15-1.71-17.11-.55-8.37.82-16.68,2.12-24.9,3.89-12.23,2.8-24.18-1.77-24.31-1.81-.19-.07-.39-.11-.59-.13h-.02c-2.93-2.32-5.56-4.38-7.65-5.98h6.09c1.04-.02,1.86-.89,1.84-1.93-.02-1.01-.83-1.82-1.84-1.84h-7.77c-1.46-.04-2.77.85-3.28,2.22-.41,1.24.04,2.6,1.1,3.35,8.63,6.45,37.22,29.71,41.69,33.33.37.31.59.76.6,1.24l.33,35.03c.01,1.42-1.13,2.59-2.55,2.6,0,0-.02,0-.02,0h-8.86c-1.04.02-1.86.89-1.84,1.93.02,1.01.83,1.82,1.84,1.84h26.22c1.04-.02,1.86-.89,1.84-1.93-.02-1.01-.83-1.82-1.84-1.84h-8.41c-1.41,0-2.56-1.14-2.57-2.56l-.33-34.84c0-.5.22-.97.6-1.28,5.15-4.16,41.24-33.63,41.24-33.63,1-.79,1.39-2.12.98-3.33h-.03ZM1137.58,945.26c.06-.33.09-.66.09-.99,0-3.65-2.96-6.6-6.6-6.6s-6.6,2.96-6.6,6.6c0,.07,0,.14.01.21-5.14-4.18-12.04-9.77-18.56-14.98,3.04.56,6.13.84,9.22.85,3.14.01,6.27-.33,9.33-1.02,12.81-2.93,32.22-5.01,37.75-4.21l-24.63,20.13Z" fill="#dd65a5"/>
  <path id="Path_1511" data-name="Path_151" d="M-315.32-185.84c-22.81-10.52-48.96-2.64-58.29,17.58-.78,1.69-1.45,3.42-2.01,5.19-.31.99.24,2.05,1.23,2.36s2.05-.24,2.36-1.23c.51-1.62,1.12-3.21,1.83-4.75,8.46-18.33,32.37-25.4,53.29-15.74,20.92,9.66,31.07,32.42,22.6,50.77-5.02,10.9-16.19,21.76-28.87,19.85-11.76-1.77-12.57-8.46-13.36-14.94-.54-4.44-1.09-9.05-5.8-10.45-5.06-1.49-9.02,1.17-12.49,3.53-4.96,3.34-8.24,5.55-14.09-2.24-2.84-3.85-4.49-8.45-4.73-13.24-.05-1.04-.94-1.84-1.97-1.78-1.04.05-1.84.94-1.78,1.97,0,.02,0,.05,0,.07.29,5.51,2.2,10.81,5.49,15.24,8.01,10.64,14.21,6.45,19.21,3.09,3.2-2.16,5.98-4.03,9.33-3.04,2.12.63,2.59,2.7,3.14,7.28.82,6.77,1.93,16.02,16.54,18.22,1.08.16,2.17.24,3.26.24,10.08,0,22.36-6.58,29.58-22.24,9.33-20.22-1.63-45.24-24.45-55.76h-.02Z" fill="#dd65a5"/>
  <circle id="Ellipse_1081" data-name="Ellipse_108" cx="-319.98" cy="-122.41" r="5.89" fill="#dd65a5"/>
  <circle id="Ellipse_1091" data-name="Ellipse_109" cx="-351.78" cy="-172.13" r="5.89" fill="#dd65a5"/>
  <circle id="Ellipse_1101" data-name="Ellipse_110" cx="-325.84" cy="-173.54" r="5.89" fill="#dd65a5"/>
  <circle id="Ellipse_1111" data-name="Ellipse_111" cx="-305.65" cy="-160.88" r="5.89" fill="#dd65a5"/>
  <circle id="Ellipse_1121" data-name="Ellipse_112" cx="-303.68" cy="-138.66" r="5.89" fill="#dd65a5"/>
  <path id="Cocktail_Pink2" data-name="Cocktail_Pink" d="M1176.05,916.15c-.53-1.33-1.82-2.19-3.25-2.16h-62.96c-1.04.02-1.86.89-1.84,1.93.02,1.01.83,1.82,1.84,1.84h61.38l-5.59,4.57c-1.41-.94-5.15-1.71-17.11-.55-8.37.82-16.68,2.12-24.9,3.89-12.23,2.8-24.18-1.77-24.31-1.81-.19-.07-.39-.11-.59-.13h-.02c-2.93-2.32-5.56-4.38-7.65-5.98h6.09c1.04-.02,1.86-.89,1.84-1.93-.02-1.01-.83-1.82-1.84-1.84h-7.77c-1.46-.04-2.77.85-3.28,2.22-.41,1.24.04,2.6,1.1,3.35,8.63,6.45,37.22,29.71,41.69,33.33.37.31.59.76.6,1.24l.33,35.03c.01,1.42-1.13,2.59-2.55,2.6,0,0-.02,0-.02,0h-8.86c-1.04.02-1.86.89-1.84,1.93.02,1.01.83,1.82,1.84,1.84h26.22c1.04-.02,1.86-.89,1.84-1.93-.02-1.01-.83-1.82-1.84-1.84h-8.41c-1.41,0-2.56-1.14-2.57-2.56l-.33-34.84c0-.5.22-.97.6-1.28,5.15-4.16,41.24-33.63,41.24-33.63,1-.79,1.39-2.12.98-3.33h-.03ZM1137.58,945.26c.06-.33.09-.66.09-.99,0-3.65-2.96-6.6-6.6-6.6s-6.6,2.96-6.6,6.6c0,.07,0,.14.01.21-5.14-4.18-12.04-9.77-18.56-14.98,3.04.56,6.13.84,9.22.85,3.14.01,6.27-.33,9.33-1.02,12.81-2.93,32.22-5.01,37.75-4.21l-24.63,20.13Z" fill="#dd65a5"/>
  <path id="Path_1512" data-name="Path_151" d="M-315.32-185.84c-22.81-10.52-48.96-2.64-58.29,17.58-.78,1.69-1.45,3.42-2.01,5.19-.31.99.24,2.05,1.23,2.36s2.05-.24,2.36-1.23c.51-1.62,1.12-3.21,1.83-4.75,8.46-18.33,32.37-25.4,53.29-15.74,20.92,9.66,31.07,32.42,22.6,50.77-5.02,10.9-16.19,21.76-28.87,19.85-11.76-1.77-12.57-8.46-13.36-14.94-.54-4.44-1.09-9.05-5.8-10.45-5.06-1.49-9.02,1.17-12.49,3.53-4.96,3.34-8.24,5.55-14.09-2.24-2.84-3.85-4.49-8.45-4.73-13.24-.05-1.04-.94-1.84-1.97-1.78-1.04.05-1.84.94-1.78,1.97,0,.02,0,.05,0,.07.29,5.51,2.2,10.81,5.49,15.24,8.01,10.64,14.21,6.45,19.21,3.09,3.2-2.16,5.98-4.03,9.33-3.04,2.12.63,2.59,2.7,3.14,7.28.82,6.77,1.93,16.02,16.54,18.22,1.08.16,2.17.24,3.26.24,10.08,0,22.36-6.58,29.58-22.24,9.33-20.22-1.63-45.24-24.45-55.76h-.02Z" fill="#dd65a5"/>
  <circle id="Ellipse_1082" data-name="Ellipse_108" cx="-319.98" cy="-122.41" r="5.89" fill="#dd65a5"/>
  <circle id="Ellipse_1092" data-name="Ellipse_109" cx="-351.78" cy="-172.13" r="5.89" fill="#dd65a5"/>
  <circle id="Ellipse_1102" data-name="Ellipse_110" cx="-325.84" cy="-173.54" r="5.89" fill="#dd65a5"/>
  <circle id="Ellipse_1112" data-name="Ellipse_111" cx="-305.65" cy="-160.88" r="5.89" fill="#dd65a5"/>
  <circle id="Ellipse_1122" data-name="Ellipse_112" cx="-303.68" cy="-138.66" r="5.89" fill="#dd65a5"/>
  <path id="Path_1513" data-name="Path_151" d="M503.81,181.8c-140.78-64.94-302.13-16.27-359.71,108.48-4.79,10.4-8.93,21.09-12.4,32-1.93,6.12,1.47,12.64,7.59,14.57s12.64-1.47,14.57-7.59c3.13-10,6.91-19.79,11.31-29.29,52.22-113.13,199.77-156.76,328.87-97.16,129.1,59.59,191.74,200.08,139.48,313.29-31,67.27-99.89,134.29-178.15,122.51-72.6-10.92-77.56-52.23-82.47-92.21-3.33-27.43-6.74-55.87-35.79-64.47-31.23-9.22-55.64,7.21-77.1,21.77-30.61,20.61-50.83,34.25-86.95-13.79-17.54-23.77-27.69-52.17-29.21-81.67-.32-6.41-5.78-11.34-12.19-11.01-6.41.32-11.34,5.78-11.01,12.19,0,.15.02.3.03.46,1.81,34,13.58,66.72,33.86,94.07,49.44,65.64,87.72,39.83,118.56,19.06,19.75-13.33,36.88-24.88,57.58-18.75,13.1,3.88,15.96,16.66,19.37,44.94,5.04,41.77,11.93,98.88,102.05,112.44,6.67,1.01,13.4,1.5,20.15,1.47,62.22,0,138.01-40.61,182.57-137.23,57.58-124.76-10.07-279.19-150.87-344.13l-.14.07Z" fill="#dd65a5"/>
  <circle id="Ellipse_1083" data-name="Ellipse_108" cx="475.09" cy="573.26" r="36.34" fill="#dd65a5"/>
  <circle id="Ellipse_1093" data-name="Ellipse_109" cx="278.86" cy="266.44" r="36.34" fill="#dd65a5"/>
  <circle id="Ellipse_1103" data-name="Ellipse_110" cx="438.88" cy="257.74" r="36.34" fill="#dd65a5"/>
  <circle id="Ellipse_1113" data-name="Ellipse_111" cx="563.52" cy="335.83" r="36.34" fill="#dd65a5"/>
  <circle id="Ellipse_1123" data-name="Ellipse_112" cx="575.69" cy="473.01" r="36.34" fill="#dd65a5"/>
</svg>