<?xml version="1.0" encoding="UTF-8"?>
<svg id="Layer_1" xmlns="http://www.w3.org/2000/svg" version="1.1" viewBox="0 0 2107.43 789.89">
  <!-- Generator: Adobe Illustrator 30.3.0, SVG Export Plug-In . SVG Version: 2.1.3 Build 182)  -->
  <path d="M496.58,790.75h-10.99c-.83-3.69,1.69-7.23,1.71-11.15l.09-15.63c.01-2.32-1.47-4.98-2.89-5.72-1.88-.97-4.87-.52-6.9.62l-38.29,21.41c-9.21,5.15-19.4,5.86-29.49,3.23-11.06-2.88-31.39-12.85-38.79-20.22l-22.45-22.36-14.03-15.11c-32.35-36.66-63.33-73.72-92.54-112.92l-13.73-19.55c-6.65-9.46-11.24-19.35-14.28-30.57l-5.71-21.11-2.96-13.01-3.75-18.26c-1.56-7.57-3.18-14.73-6.07-22.16l-20.61-53.13c-5.85-15.08-8.47-37.82-6.46-53.89l1.57-12.52c1.74-13.89,4.86-27.09,8.36-40.63l4.73-18.31,6.62-27.4c1.75-7.24,2.4-14.24,3.57-21.58.54-3.39,2.26-6.5,1.49-10.36s.73-7.39.72-11.05l-.07-18.87-.95-15.97-3.49-23.4c-1.21-8.13-3.14-15.93-5.12-23.77l-8.6-34.23-5.39-28.49c-.56-2.96-.82-6.08-.82-9.08v-18.6c0-15.08,16.8-27.11,29.41-35.52,11.54-7.7,20.42-17.35,27.67-29.32l13.4-.2c-5.12,8.5-10,17.64-17.12,25.45-5.68,6.23-12.6,10.73-19.39,15.61l-15.07,10.82c-6.22,4.46-8.76,10.24-8.33,17.95.37,6.59-.1,13.2,1.23,19.93l4.76,24.13,4.14,17.83,8.12,32.87c7.17,29.01,7.15,58.32,2.9,87.82l-2.91,20.24-3.76,19.23-11.34,48.61c-1.51,6.49-2.29,12.8-3.42,19.35l-2.21,12.75c-.61,28.05-2.68,41.78,11.1,69.24,8.34,16.62,13.88,32.95,18.01,50.93l8.58,37.33c6.42,27.93,18.24,57.25,36.63,79.28,2.94,3.52,5.15,8.31,10.85,8.68-14.01-19.39-24.94-39.57-32.84-61.69-7.11-19.89-12.9-44.58-11.18-64.93.55-6.51.87-12.59,2.52-19.01,3.32-12.92,7.5-25.41,16.57-35.39s20.41-14.47,33.31-15.04c3.58-.16,6.31-1.19,10.26.2l8.68.16,22.92,5.15,30.13,8.78,15.95,4.08c14.68,3.75,29.84,2.24,44.42-1.56l29.39-7.66,20.14-4.82c4.3-1.03,8.88-.51,12.86-1.29,8.9-1.74,23.58.34,32.32,4.21,14.57,6.44,24.38,15.22,33.39,29.26-9.73.64-17.46-4.13-24.6-9.08l-13.59-9.42c-20.7-14.35-46.24-4.72-70.49,1.27l-14.36,3.55c-33.44,8.27-53.52,7.52-85.38-4.42-20.85-7.81-41.68-14.29-62.61-6.86-22.66,8.05-29.68,28.64-31.9,51.41-.86,8.84-.72,17.35.38,26.18l2.03,16.28c3.78,19.22,8.56,38.15,18.59,55.21l8.34,11.89c23.56,33.59,50.62,63.95,77.45,94.98l10.27,10.85c3.67,3.87,6.76,7.62,11.15,10.96,10.32,7.83,21.63,14.28,33.78,18.98,15.29,5.92,37.22-5.89,51.7-15.06,4.36-2.76,8.42-5.29,12.48-8.54l34.42-27.53,35.76-30.19c24.31-20.52,40.94-21.95,61.34-34.49,9.59-5.9,15.45-14.26,17.94-25.26,1.83-8.1.29-15.79-1.31-23.94-2.88-14.58-8.86-27.15-18.56-38.59-7.19-8.49-24.95-30.39-23.34-34.97,1.17-3.33,11.97,6.36,18.02,13.47,9.55,11.22,18.02,23.03,24.75,36.11,8.71,16.91,12.14,55.48.86,69.38-5.12,6.31-11.56,10.89-19.07,14.01-14.05,5.83-26.43,13-38.46,22.59l-75.49,60.16c-13.92,11.09-43.4,33.26-57.55,33.24l-18.07-.02c-11.31-1.67-22.97-5.53-31.89-12.8l-20.94-20.95-18.67-19.4-22.6-23.31c10.73,18.03,22.97,32.99,35.3,48.54l12.98,14.12c16.71,18.17,44.09,40.49,68.71,42.06,10.44.66,20.03-.34,28.84-5.36l27.99-15.92,7.04-3.06c2.44-1.06,6.59-1.07,8.38,1.16,2.88,3.59,3.88,8.47,3.88,13.08v30.02Z" fill="#fefefe"/>
  <path d="M378.64,790.75h-19.99l-3.93-1.75c-12.78-12.9-24.9-26.48-36.37-40.74l23.44,40.47-1.14,2.02h-12.99c-.18-2.28-1.89-3.62-3.34-5.79-20.89-31.23-41-62.55-64.86-91.69l-22.56-27.56-16-19.05c-16.28-17.7-27.68-38.6-35.51-61.27l-12.32-35.67c-17.46-50.58-47.59-70.97-52.99-85.79l-4.26-11.68-3.57-21.38.1-46.25,4.4-42.36,3.68-33.31c.48-4.35,1.25-8.18,1.61-12.63l1.03-12.79,2.27-22.6.86-23.95c.3-8.36.66-17,.2-25.51l-.87-16.04-4.62-27.09-4.03-12.96c-3.53-7.81-7.5-15.2-14.56-20.49-15.9-11.92-47.15-14.16-68.64-14.46-4.97-.07-9.71-1.52-14.91-.87-3.69.46-7.26-.04-10.76-1.23-.44-2.67-.43-4.88-.01-7.81l58.63.25,11.22,1.82c36.81,5.96,52.8,38.32,56.32,73.47.32,3.16,1.94,6.19,1.5,9.32-.51,3.67.88,6.77.87,10.15l-.04,35.92c0,4.72-.44,9.15-.89,14.04l-1.76,18.78c-.37,3.92-.58,7.3-.91,11.06l-.88,10.08c-.41,4.73-1.09,8.83-1.62,13.53l-3.35,29.73c-.91,8.09-2.01,16.2-2.62,24.56l-.93,12.95c-.62,8.66-1.87,16.37-2,25.15s-2.08,16.69-.05,25.13l.56,13.47,2.74,11.26c2.4,9.86,9.09,17.68,15.45,25.36l12.73,15.36c10.34,12.49,17.94,26.22,23.43,41.46l13.79,38.23,9.74,24.16c5.92,14.69,19.55,37.4,34.24,44.05-15.9-20.33-27.15-42.46-35.83-66.4l-10.66-29.39-14.57-40.28c-10.58-29.25-28.67-43.66-32.42-64.51l-4.86-26.97c-.53-2.96-.8-6.19-.81-9.11l-.09-25.84c-.01-3.32,1.45-6.51.81-10.07s.85-7.04,1.33-10.55l3.51-25.57,4.24-24.63,3.83-23.2c.97-5.86,1.91-11.42,2.59-17.32l2.24-19.57.96-10.05-.06-31.8c0-3.55-.45-7.43-.98-10.9l-3.67-24.18-4.68-19.28c-3.46-14.25-8.89-27.59-17.03-39.82-8.13-12.22-19.02-20.53-33.09-25.02l-19.17-3.72c-8.87-1.72-17.12-.82-25.99-.23l-13.98.93-27.97.39.02-13.95,42.87-.54c7.64-.1,14.44-.39,22.06-.03,18.66.87,36.58,5.83,50.47,19.1,2.51,2.4,5.48,5.17,7.58,8.2l8.65,12.5c12.44,22.61,19.65,47.67,22.91,73.51l1.69,13.43.2,38.38-2.13,20.62c-1.17,11.35-2.31,22.31-4.1,33.5l-3.72,23.31-3.33,20.7-4.73,37.15-.11,44.48c-.02,8.1,2.57,16.4,4.71,23.96,3.39,11.93,8.69,22.4,15.1,32.93,10.46,17.18,19,34.43,26.56,53.11l4.9,12.12c1.16,2.86,2.39,5.85,3.17,8.7,1.38,5.02,3.44,9.1,5.08,14.02,8.3,24.98,20.73,47.34,36.59,68.5,25,33.35,51.19,64.72,78.35,96.34l45.68,53.19,12.3,14.76Z" fill="#fefefe"/>
  <path d="M1811.96,790.75h-11.99c-.26-1.7-1.5-3.52-3.03-5.04-18.21-18.28-45.24-22.21-59.76-55.08l-15.9-35.98c-8.01-18.13-19.26-32.32-39.71-32.37l-38.44-.09-11.04,1.04-11.39,2.43c-15.39,3.28-33.78,24.94-52.73,32.1-12.13,4.58-25.1,1.54-36.7-4.08l-18.2-8.81c-5.77-2.8-11.63-2.66-17.81-3.42-4.75-.59-8.54.07-13.25.08l-39.35.08c-3.8,0-7.06-1.72-10.35-2.75-8.48-2.64-15.29-7.31-20.99-14.27-20.29-24.78-30.46-69.8-36.33-102.33l-6-44.16-1.06-18.99c-.43-7.66-.49-14.29,0-21.97l1.03-15.91,1-16.08.63-10.7c.9-15.29,1.97-49.04-7.9-54.51-6.19-3.43-14.57,3.85-18.8,12.09l-16.25,31.61c-9.2,17.9-45.09,44.83-65.43,55.36-8.38,4.33-16.6,7.29-25.59,9.55l-32.66,8.25c-10.74,2.71-20.75,6.91-29.95,12.97-19.05,12.55-26.56,31.42-28.34,53.67-2.31,28.96,3.97,54.78,31.26,67.96l10.79,5.21,31.89,11.98c13.66,5.13,26.01,12.17,36.73,22.3,18.47,17.45,30.01,49.37,30.49,74.38l.64,33.4c.08,4.25,1.39,8.16.75,12.08h-10c.69-2.9-.75-5.86-.81-9.06l-.64-36.4c-.48-27.18-13.13-51.63-33.37-69.65-11.29-10.06-25.15-15.57-39.54-20.22l-15.83-5.11c-17.04-5.51-32.43-11.87-41.51-27.68-2.1-3.66-4.54-7.91-5.46-12.27l-3.45-16.4-.35-34.85,1.7-6.43c.72-15.28,5.83-29.43,15.41-41.61,21.85-27.8,65.08-27.97,94.52-40.25,18.71-7.81,35.62-17.74,50.55-31.31,9.33-8.48,15.92-18.18,22.09-28.86l8.44-14.63c5.31-9.19,10.71-18.16,18-25.8,3.43-3.59,7.43-4.9,12.09-5.14,7.38-.37,12.09,3.22,14.97,9.48,2.23,4.83,4.21,9.09,4.56,14.64l.75,12.04c.48,7.72.44,14.36.07,21.96l-1.01,21.01-.8,11.01-2.06,18.06.28,34.3,4.27,32.66,3.98,21.94,4.21,20.65,5.11,19.78,3.73,13.36c4.34,11.9,7.97,24.25,15.35,34.54,8.6,11.98,22.46,17.9,36.48,17.88l14.35-.02,27.85-1.26,9.84,1.12c18.29,2.07,35.84,21.27,56.86,18.37l9.35-2.65c18.17-7.35,35.38-27.41,51.11-31.57,23.29-6.15,46.94-5.57,70.62-1.29,25.51,4.61,35.61,28.43,45.32,49.51l7.9,17.15c17.82,38.71,41.54,41.3,59.66,60.23,3.8,3.97,7.37,7.8,9.17,12.79Z" fill="#fefefe"/>
  <path d="M1017.34,790.75h-10c-.25-5-1.01-9.99-2.92-15.04-9.55-25.35-24.94-44.32-53.35-46.58-14.3-1.14-28.55.64-42.52,3.8l-17.95,4.06-25.28,5.53-19.4,2.77c-13.51,1.93-34.38-1.52-44.46-9.73-32.11-26.18-62.94-53.69-92.04-83.29l-7.76-10.45-3.51-6.43-4.3-9.68-3.65-8.43c-12.1-38.62-35.84-77.87-68.47-102.37l-24.56-18.45c-21.1-14.71-38.9-31.77-55.39-51.45-9.72-11.59-19.86-22.08-31.78-31.15l-13.28-7.71c-6.67-3.87-20.51-5.03-28.84-3.45l-17.66,3.35-21.8,5.13c-10.93,2.57-21.44,3.2-32.89,3.18-17.5-.04-32.66-11.71-37.6-28.42-1.31-4.42-2.93-8.4-2.94-13.16l-.1-30.51c-.01-4.2.41-8.62,1.19-12.71l1.92-10.1,2.6-17.16,3.96-19.01,4.07-17.97,3.36-10.67c1.35-4.28,2.92-8.47,4.31-12.72l3.91-12.03c5.68-17.46,11.74-39.6.26-53.29l-17.25-20.55c-20.7-24.67-30.93-53.89-34.44-85.55l-3.19-28.89-3.96-27.86-2.82-11.94,10.49.05c2.43,6.47,2.76,12.85,3.75,19.45l2.47,16.35,1.15,12.1,5.92,42.93c1.28,9.26,3.77,18.04,7.49,26.45,3.96,8.95,11.57,17.99,18.51,25.42l12.62,13.51c18.21,19.5,18.71,29.12,14.02,54.79-1.34,7.3-2.94,14.08-4.81,21.2l-4.16,15.82-3.79,13.2-4.13,14.84-4.37,15.7-3.69,14.15-4.33,19.81-2.54,20.77c-2.22,18.17.93,40.99,17.8,49.34,7.86,3.89,21.1,5.97,29.27,4.24l21.33-4.51,27.8-6.99c37.24-6.61,61.69,12.67,85.33,39.36l15.03,16.97,10.65,11.47c12.09,13.03,25.37,24.54,39.77,35.05l13.26,9.67c11.1,8.1,21.44,16.18,30.41,26.57,14.43,16.72,26.63,34.5,34.94,54.94l12.41,30.54c9.29,22.85,18.64,30.9,34.65,46.33l16.27,15.69,10.48,9.53,10.47,9.52,25.62,22.31c9.47,8.24,19.71,14.06,32.55,14.77,13.79.77,24.58-.3,38.2-3.91l34.95-9.28c18.98-5.04,43.27-8.02,61.19-1.49,16.5,6.01,30.35,17.12,40.19,31.65,8.25,12.18,11.42,26.53,11.33,40.64Z" fill="#fefefe"/>
  <path d="M1893.92,790.75h-10.99c14.12-25.23,30.55-48.95,49.81-70.95,6.06-6.92,12.35-12.15,19.88-17.28,20.11-13.71,46.1-28.8,55.56-51.15,3.75-8.87,4.86-17.14,2.86-26.46l-2.65-12.29-3.02-15.89c-1.49-7.84-1.52-16.62-.07-24.58l3.83-21.01,4.34-15.57,14.44-45.23,3.29-12.58,4.8-26.54,1.02-14.03c.72-9.86,1.46-19.16-.09-28.93l-2.22-13.89c-4.95-20.52-16.49-37.27-34.65-48.38-15.55-9.51-32.38-15.92-50.44-20.39l-34.7-5.21c-22.78-3.42-40.79-9.11-51.29-30.78-5.21-10.76-7.94-22.09-8.09-34.01l-.22-17.66c.96-10.12,2.15-19.65,5.55-29.54,12.42-36.17,34.29-64.22,45.51-100.28,2.86-9.2,4.07-17.8,4.91-27.26l.73-8.2c.85-9.56,1.02-18.4-.05-27.92l-2.74-24.39-4.33-18.54,10.38-.17c4.24,14.54,7.09,29.15,7.19,44.44l.17,24.51-.9,9.08-2.78,21.03c-3.65,14.66-8.67,28.11-15.33,41.58l-20.15,40.81c-11.11,22.5-19.54,45.55-17.15,70.71.67,7.06,2.32,13.2,4.25,19.71,4.22,14.22,13.44,24.35,27.82,28.66l17.51,5.26,21.96,3.97c12.22,2.21,24.09,3.44,35.72,8.2,15.86,6.49,30.96,13.75,43.49,25.4,17.59,16.34,30.4,42.85,30.39,65.5l-.02,33.38-1.95,18.24-3.82,20.99-3.15,10.8-14.76,42.94-4.72,15.2-3.9,18.08-.65,10.59.3,14.24c.08,3.62,1.14,6.33,1.52,9.62l4.07,35.75c-.27,15.15-5.41,28.51-15.45,38.46l-10.09,10-7.24,6.84-46.92,37.96c-19.61,15.87-34.87,35.46-46.74,57.17Z" fill="#fefefe"/>
  <path d="M2104.82,666.9v32.96l-2.7,3.6c-19.8,7.87-40.1,13.05-60.9,15.55-41.88,8.53-79.53,34.64-103.63,69.71l-3.69,2.03h-14.99c24.4-44.95,71.07-71.97,119.4-87.48,10.42-3.34,19.65-4.72,30.7-4.68,6.67.02,14.46-2.16,20.45-3.7,5.56-1.43,6.23-5.81,5.76-9.96-.87-7.76-1.76-14.63-4.65-21.7l-5.23-12.78c-8.11-16.76-12.11-34.28-12.95-52.83l-2.28-19.61-1-15.91-.94-16.03-2.18-30.92-.61-23.62-1.1-24.76-.73-21.48-.95-10.07-1.02-13.99-1-14.03-.96-10.96-4.69-22.09c-3.97-13.59-10.35-25.54-20.04-36.04-11.08-12.01-25.03-20.25-39.25-28.52l-43.52-25.31-8.03-6.98c-25.59-22.23-37.95-49.86-30.15-83.79l6.33-22.61,7.97-22.03,9.77-27.06,3.78-13.2,3.54-16.55,1.27-12.39,1.03-13.01.98-13.99,1-13.96-.09-21.66-1.67-15.16c3.5-.25,6.22-.53,10,.41l-.21,51.32-1.06,17.96-.98,9.94-2.19,16.69c-.95,7.24-1.88,14.02-3.79,21l-4.13,15.01-14.76,39.12-5.95,18.12c-10.09,30.69,4.89,57.58,28.05,78,22.95,20.23,50.44,28.51,74.83,46.1,17.49,12.62,30.17,30.11,36.14,50.88l4.62,20.45,1.79,13.26.76,12.19.85,14.87.83,12.95,1,13.03.72,18.44.6,21.57,1.1,26.96,1.02,17.97,1.05,10.88.93,17.04.95,12,2.85,24c1.52,23.6,10.03,45.23,21.96,64.86Z" fill="#fefefe"/>
  <path d="M2104.82,202.49v12.98c-23.58,2.93-35.59-21.06-46.27-40.61l-12.02-22.02c-3.22-5.91-7.89-11.73-14.21-14.63-5.66-2.59-12.28.77-16.69,5.43-14.54,15.39-25.22,34.88-29.36,56.04-3.46,17.66,3.23,37.46,15.75,50.64,20.39,21.47,51.21,26.29,71.42,54.45,11.48,16,17.47,34.66,19.96,54.05l1.73,13.52.94,12.96.91,9.99,3.68,23.16,4.16,11.74v44.94c-1.78-.57-2.13-2.3-2.85-4.12-4.59-11.63-7.83-23.3-9.5-35.72l-3.07-22.85-.79-10.26-1.06-9.84-2.16-17.67-3.26-19.5c-2.49-14.89-7.32-29.1-15.2-41.91l-7.39-9.59c-27.62-28.13-75.5-30.03-81.66-80.32-1.34-10.92-1.91-21.25.77-32.02l3.38-13.59c4.65-12.27,9.94-23.6,17.97-34.17l11.68-12.22c3.41-3.57,8.12-5.46,13-7.07,8.73-2.88,17.95,1.51,23.97,8.62,5.6,6.61,8.87,14.57,12.19,22.62l8.19,19.81c3.66,8.87,8.47,16.74,16.17,22.86,5.68,4.51,12.83,4.84,19.62,4.28Z" fill="#fefefe"/>
  <path d="M302.68,790.75h-11.99c.43-4.31-2.2-8.01-3.73-12.17-11.44-31.08-22.66-59.11-49.33-80.48-10.79-8.65-22.38-13.29-34.97-18.03l-10.97-4.13c-10.07-3.79-19.47-8.02-27.01-16.11-1.67-1.8-3.72-4.74-4.44-7.29l-3.74-13.3-4.14-39.7c-2.29-21.96-4.74-47.07-23.17-59.85s-31.03,4.52-43.29,18.51l-7.42,8.46c-11.37,12.96-23.57,19.28-40.5,22.85l-16.29,3.44-13.84,3.84.37-14.13c21.51-4.61,48.39-6.94,62.34-22.94l14.38-16.49c6.53-7.49,12.99-14.66,22.19-18.77,20.7-9.25,37.47,8.21,44.29,28.86l4.46,13.51,4.54,20.26,5.34,34.84,4.3,25.61c19.32,12.66,39.92,20.44,60.4,32.72,22.41,13.43,39.26,33.14,51.32,56.43l13.33,31.47,7.57,22.58Z" fill="#fefefe"/>
  <path d="M1702.01,790.75h-10.99c.14-3.91-2.23-7.43-3.62-11.19l-4.33-11.7-3.94-9.1c-5.18-11.96-11.22-23.38-21.44-31.42-7.79-6.13-16.83-5.73-25.14-1.04l-19.21,10.84c-16.52,9.32-28.75,17.99-49.83,18.19l-29.37.28-9.02-.92c-6.17.88-11.72-.59-17.27-2.52l-12.63-4.39c-11.69-4.07-27.92-11.07-38.56-3.45-4.66,3.33-8.34,7.73-12.02,11.9l-8.03,9.12-12.89,13c-5.78,5.82-17.82,8.48-23.58,12.4h-35.98c1.52-2.96,4.52-4.95,8.01-6.06l27.22-8.66c12.66-4.03,23.15-10.31,31.53-20.48l12.62-15.3c9.32-11.3,23.33-14.75,37.69-11.52l44.87,10.07c16.45,3.69,47.22,5.31,60.21-1.96l36.4-20.38c10.76-6.02,23.58-7.75,35.27-3.55,6.99,2.51,12.13,7.74,16.23,13.79,8.63,12.73,14.48,26.65,19.9,40.98l3.86,10.2c1.67,4.42,3.45,8.49,4.04,12.86Z" fill="#fefefe"/>
  <path d="M807.44,790.75h-14.99c-.39-2.16-2.37-3.38-3.71-5.3l-23.41-33.57-8.73-11.28c-16.08-20.79-37.08-36.52-62.07-44.6l-13.01-4.21c-5.91-1.91-13.4-2.03-19.5-.29-9.27,2.64-15.08,9.96-21.52,16.41l-21.91,21.94c-20.89,20.91-53.93,23.6-76.24,53.72-1.69,2.28-3.14,4.67-3.78,7.19h-11.99c6.97-16.59,19.18-30.4,34.8-40.18l42.42-26.54,18.35-13.61,26.21-25.62c9.99-9.77,28.25-7.03,42.16-2.92,24.1,7.11,44.63,17.71,61.39,36.45,10.08,11.27,17.84,23.33,26.31,35.69,9.07,13.25,18.47,25.5,29.22,36.73Z" fill="#fefefe"/>
  <path d="M269.69,790.75h-11.99c.18-4.9-1.62-9.53-3.51-14.44-4.65-12.13-10.59-23.82-20.93-32.01l-6.04-3.97c-5.19-3.41-12.07-5.34-18.48-5.3l-21.02.11-14.97.91c-24.8,1.51-45.97.11-63.77-19.49-16.61-18.3-24.6-37.94-37.39-54.49-18.11-23.42-37.38-23.74-63.59-10.74l.19-14.06,20.72-4.96c6.7-.53,14.04-1.1,20.57.1,18.34,3.39,33.04,15.55,40.89,31.87l15.91,33.07c8.48,15.1,23.36,25.7,40.27,27.67,6.68.78,11.8.59,18.28.05l9.93-.83,14.24-1.98c8.86-1.23,18.3-1.06,26.89.28,26.81,4.21,41.91,28.24,49.18,52.86l4.62,15.35Z" fill="#fefefe"/>
  <path d="M229.71,790.75h-13.99c-6.64-7.07-15.54-11-25.63-12.37-2.62-.36-5.51-1.39-8.26-1.61l-10.17-.81-55.79-.41-8.85-1.19-11.82-3.1c-15.75-4.12-29.89-25.1-40.19-38.65-12.92-16.99-25.89-27.61-47.1-20.94l.11-13.65c17.42-8.24,35.23-.71,46.35,14.33l22.08,29.85c4.64,6.27,10.27,12.55,17.8,15l9.75,3.17,7.88,1.24,64.72.35,11.95,1.99c17.41,2.9,32.84,11.65,41.18,26.8Z" fill="#fefefe"/>
  <path d="M2104.82,763.78v14.98c-14.87-16.52-36.24-25.41-58.93-25.1-10.67.15-20.61.4-30.63,3.49-18.41,5.69-34.79,14.92-47.54,29.38-1.28,1.45-3.07,2.2-2.83,4.2h-14.99c18.71-26.52,49.92-46.57,82.82-51.12,27.92-3.86,54.24,3.12,72.1,24.15Z" fill="#fefefe"/>
  <path d="M1236.23,790.75h-10.99c-.15-1.95-.06-4.14.54-6.38,1.58-5.87-.28-11.71-.38-17.47-.21-12.84-2.59-27.69-14.63-30.77-2.61-.67-7.37-.78-10.24.04l-10.09,2.89c-23.04,6.61-56.91,31.22-70.16,51.68h-13.99l12.99-15.99,16.7-17.28c5.18-5.35,10.5-10.22,17.05-14.01,13.07-7.57,26.6-14.1,41.18-18.57l12.22-2.76c4.17-.94,10.23,1.46,13.75,3.63,7.08,4.37,10.99,11.7,12.36,19.61l2.51,14.38.88,12.13.29,18.85Z" fill="#fefefe"/>
  <path d="M744.47,790.75h-8l-4.49-11.45c-2.66-6.81-6.73-11.96-12.34-16.91-9.34-8.23-22.87-10.67-35.3-6.58-28.17,9.27-54.93,21.36-80.81,34.94h-22.99l4.25-2.95c31.33-16.49,63.14-30.72,96.21-43.53,12.13-4.7,24.38-5.28,36.25,1.06s20.28,19.19,24.02,32.65c1.26,4.52,3.44,8.38,3.19,12.77Z" fill="#fefefe"/>
  <path d="M2104.82,108.61v20.97c-1.94.26-2.37-1.13-3.32-2.63-6.3-10.01-10.86-20.23-13.49-31.64l-3.75-16.29-3.03-15.78-2.97-17.75-4.02-23.05c-1.24-7.11-2.69-13.77-5.82-20.52l11.12.18c-.23,4.19,1.76,7.52,2.58,11.23l3.97,17.99,4.63,24.34,3.9,19.05,3.31,13.73c1.7,7.07,3.39,14,6.89,20.15Z" fill="#fefefe"/>
  <path d="M952.37,790.75h-7l-2.24-1.53c-4.96-25.16-50.05-17.26-64.33-5.02-2.73,3.14-5.86,5.33-9.4,6.55h-18.99c19.99-19.71,73.37-47.47,93.19-25.06,6.07,6.86,8.54,16.37,8.76,25.06Z" fill="#fefefe"/>
  <path d="M2076.83,790.75h-10l-5.77-1.72c-15.41-11.88-40.42-10.87-56.15-.02l-6.05,1.74h-12.99c9.14-9.35,21.23-14.94,33.88-19.11,9.37-3.09,26.48-3.65,35.15.05,9.51,4.06,17.21,10.14,21.93,19.06Z" fill="#fefefe"/>
  <path d="M43.8,790.75H7.82s.04-13.97.04-13.97l12.93.15c5.42.06,18.79,8.42,23.01,13.82Z" fill="#fefefe"/>
  <path d="M2104.82,1.75v18.98c-1.93-1.57-2.12-4.38-2.97-6.99l-3.9-11.92,6.87-.07Z" fill="#fefefe"/>
  <path d="M1610.22,15.36c.67-4.88,3.32-8.75,2.84-13.59l10.95.04-4.45,18.3-3.24,20.59-.94,12.07-.06,41.88.93,14.05,3.04,22.89c2.62,19.74,8.68,38.1,16.22,56.55l27.17,66.48,4.29,11.77,3.7,11.23,3.52,12.56,5.93,29.13-.07,6.82c2.05,5.51.03,21.27-2.47,28.65l-5.08,14.96c-7.79,16.69-14.55,33.33-17.53,51.5l-4.53,27.58-1.75,12.39-.95,13.89-.73,14.1-4.77,46.13-4.54,17.34c-3.44,13.16-11.02,23.76-20.1,34-9.84,11.1-22.16,19.1-34.58,27.26l-7.21,3.92-8.09,3.92-14.49,5.41-39.08,10.91-23.57,4.5c-24.89,4.75-44.37,4.57-62.84-13.3-11.64-11.26-18.54-25.47-24.21-40.61l-4.55-15.49-5.62-29.12-.84-11.07-.14-31.81.93-8.08c4.53-39.18,20.95-59.02,26.9-86.79,6.73-31.38-2.56-72.93-28.55-93.25-10.5-8.21-22.19-13.6-35.41-13.79-8.56-.12-16.72.38-23.66,5.67-5.49,4.18-10.4,9.86-13.53,16.15l-3.98,8.01-4.33,10.67-13.71,43.53-9.39,21.42c-13.38,24.1-35.04,40.88-60.64,50.24l-11.13,4.07-12.17,3.7-18.58,5.4c-13.33,3.88-26.28,8.43-37.84,15.94-17.56,11.4-27.82,28.9-31.01,49.12l-4.2,26.65-3.74,31.26-3.71,27.29-4.39,22.53c-3.06,15.74-7.95,30.69-16.62,44.2-6.19,9.66-14.87,15.77-25.69,19.47-20.78,7.12-44.7-3.12-65.74-10.52-32.67-11.48-51-4.97-82.25,3.19l-17.48,4.56c-17.38,4.54-34.73,7.44-52.58,5.57-7.2-.76-14.52-1.8-21.06-5.15-11.44-5.85-20.67-14.92-29.7-23.92l-13.09-13.04c-13.12-13.07-25.57-26.41-35.85-41.95-8.06-12.19-12.39-25.78-16.57-39.5l-3.52-11.54-3.77-13.21-4.67-16.33-4.67-16.24c-7.04-24.48-19.33-60.11-35.72-78.05-4.94-5.41-12.35-10.92-19.68-9.16l-23.14,5.56c-9.02,2.17-22.42-.24-31.74-4.82-13.17-6.48-23.46-16.09-33.98-25.9l-12.99-12.12c-22.97-21.42-44.38-45.86-79.94-48.07l-23.19,1.48c-9.6.61-20.03-1.25-26.3-8.34-10.1-11.4-6.9-42.09-1.97-57.88,2.76-8.85,5.78-17.24,8.94-26.01l3.44-9.52c1.61-4.45,3.13-8.88,4.52-13.45l3.69-12.2,4.21-23.92c1.7-9.68-.18-18.92-1.45-28.57-3.07-23.26-13.06-43.84-29.62-60.37l-28.95-28.9c-11.44-11.42-18.23-25.3-22.24-40.82l-4.31-16.64-4.62-25.42c-.73-1.12.26-2.09,1.56-1.62l9.08.18c1.96,5.7,1.94,11.7,3.45,17.57l4.69,18.16c4.66,18.05,14.26,33.43,27.25,46.56l18.45,18.65c16.29,16.47,24.43,29.95,30.57,52.42,4.4,16.11,7.06,38.98,4.68,55.16l-2.46,16.76-3.38,11.58-4.26,12.72c-2.68,8.01-6.04,15.38-8.54,23.41l-3.55,11.43c-2.24,7.21-3.37,13.97-4.56,21.43-1.4,8.76-2.66,17.62,1.44,25.84,3.47,6.96,10.87,9.42,18.19,8.88l13.03-.95,20.07-.12c18.65-.11,46.36,19.39,60.51,33.26l37.33,36.6c9.02,8.84,18.56,16.86,31.23,19.48,6.84,1.41,14.02-.43,20.6-1.73l11.72-2.3c18.58-5.48,36.5,2.36,46.37,18.68,8.25,13.66,14.3,28.02,19.58,43.16l4.15,11.89,4.29,13.69,16.04,50.81,7.95,24.06c4.31,13.04,9.68,24.85,18.68,35.35l25.37,29.59,25.26,25.55c7.53,7.62,16.96,11.75,27.27,13.85l8.39,1.71c7.46,1.52,14.51,1.24,22.06-.1l18.9-3.35,36.98-9.81,13.05-3.15c14.87-3.59,30.38-5.79,45.57-2.21l37.27,11.4,16.11,3.97c7.73,1.9,15.14,1.56,23.09.06,12-2.26,20.9-10.76,26.14-21.89,5.9-12.53,9.07-26.01,11.05-39.94l4.19-29.48,2.25-14.67,1.05-11.93,4.27-27.95,5.68-28.24c5.73-28.52,22.67-47.63,50.53-56.25l28.94-8.96,11.75-3.25c13.22-3.66,25.67-8.29,38.11-13.96l13.48-8.56c13.3-8.45,22.28-20.89,28.59-35.35l3.97-9.1,16.03-49.75c6.1-18.93,17.18-40.03,36.82-45.24,26.02-6.91,52.75,3.65,69.23,24.63,7.15,9.1,12.41,18.66,16.76,29.41l4.72,15.22c2.74,8.82,3.57,17.34,3.59,26.57l.02,10.1c.01,8.56-.7,16.4-3.78,24.39l-8.1,20.97-3.62,8.26-9.37,24.58c-4.22,11.07-5.05,22.36-5.1,33.97l-.1,23.51.9,12.13,1.16,10.71,2.65,12.29c5.98,27.74,20.34,59.63,48.79,66.65,8.7,2.15,16.71,1.44,25.02.33l15.3-2.06c20.73-3.95,40.59-9.06,60.48-16.21,18.82-6.76,34.54-17.33,48.73-31.34,12.74-12.58,21.45-27.57,25.85-45.13l5.32-32.52,1.23-18.61.36-13.82,4.2-37.93,4.24-22.78,4.12-16.79,4.09-11.85,3.34-8.59,9.81-26.16c3.65-9.74,2.92-20.58,1.08-30.88l-1.38-7.72-3.8-17.24-3.03-12.04-4.26-13.74-13.1-35.74-18.51-44.43c-7.97-19.13-13.69-38.59-16.67-59.08l-2.03-13.94-1.07-10.94-.05-47.78.9-9.13,4.04-29.26Z" fill="#fefefe"/>
  <path d="M786.36,2.03l9.78-.19,2.14,13.11c3.86,23.68.98,38.43-.64,59.76l-.98,12.95-1,11.11-.44,13.63c-1.41,5.16-.37,9.36-.14,14.26.45,9.72,1.81,18.65,5.46,27.73l8.94,22.22c4.23,10.52,8.08,28.42,6.86,38.87l.86,10.07.68,41.52c.2,12.3,3.94,23.85,9.02,34.85,12.34,26.73,30.59,49.53,55.44,65.3l17.44,9.74c36.68,17.42,78.06,22.63,106.96,36.75,21.5,10.51,40.49,33.65,51.17,54.86,7.52,14.93,13.27,30.08,16.51,46.53,1.43,7.27,3.47,13.98,3.48,21.45l.04,30.24c-2.24,23.16-8.93,45.59-21.98,64.63-15.85,23.14-33.82,26.4-61.55,25.43-12.57-.44-23.93,1.09-35.96,4.04l-14.33,3.51-16.52,4.54-23.4,5.84c-12.07,3.01-23.39,4.04-35.82,4.38-17.55.48-33.57-3.85-48.04-14.39-16.56-12.07-29.51-28.09-39.81-45.88l-3.31-5.72c-4.84-8.36-8.89-16.51-12.49-25.44l-9.17-22.74-7.68-22.31-8.32-28.63-5.9-27.91-.86-10.08-.69-61.65-3.73-24.16-3.75-11.16c-2.78-8.29-8.03-14.7-13.88-21.32-27.97-10.59-55.98-19.81-85.37-26.13l-8.29-1.78-33.64-5.31-11.88-1.21-34.93.08c-13.66-5.83-27.14-11.26-39.14-19.97l-7.12-5.94c-10.56-8.82-17.47-28.48-16.18-40.55l4.79-44.93-.93-14.95c-1.78-28.78-10.72-61.58-23.19-87.66-6.18-12.92-13.66-24.16-23.26-34.75l-19.03-21.01c-13.88-15.32-24.88-32.25-29.91-51.84l12.71.29c9.01,37.4,37.84,50.85,53.5,74.22,15.19,22.67,25.24,47.45,31.16,73.95l4.03,18.01c3.18,14.21,6.86,45.51,5.17,57.93l-4.4,32.31c-.65,4.8,1.27,11.02,3.3,15.44,11.18,24.31,37.68,35.68,63.99,35.91l22.37.19c13.96.12,24.07-1.45,42.39,2.8,27.53,6.39,54.41,13.44,80.82,23.17,13.09,4.83,23.68,13.22,31.44,24.66,8.25,12.15,10.57,26.66,11.79,41.06l1.1,13.03.68,57.28,1,10.18,1.13,9.62,4.23,17.81,4.48,16.41c13.57,41.41,27.4,79.31,56.53,112.14,16.34,18.42,38.27,29.91,63.23,28.36l25.67-4.16,7.58-2.33,14-3.74,13.31-3.74,14.92-4.08,17.85-4.22,8.79-1.07h19.89c7.23,0,13.72.97,21.08-.16,9.88-1.51,18.52-6.23,25.27-13.96,15.23-17.43,24.06-39.79,25.82-63.02.6-7.85,1.24-14.69.26-22.37l-2.5-19.54-3.76-16.31c-12.21-39.73-32.98-74.75-74.45-87.55l-11.45-3.53-19.77-5.08-17.76-4.22c-35.33-8.4-69.5-33.93-93.64-61.18-14.66-16.55-26.33-34.83-32.63-56.12l-4.08-19.77-.95-15.98-.57-42.88-1.04-8.02-2.98-11.83-12.66-33.32c-2.84-7.46-4.55-14.45-4.6-22.44l-.17-27.35.93-16,.97-12.02.94-10.02,1.6-13.2-.12-37.34-2.7-18Z" fill="#fefefe"/>
  <path d="M1088.27,2c3.32-.49,6.35-.44,8.86,0l-5.74,13.8c-13.17,31.64-18.52,55.04-52.24,74.7l-22.05,12.86-27.46,17.41-11.28,8.75-9.81,10.14c-11.93,12.35-13.86,29.3-5.95,44.69l4.44,10.31,21.16,43.93c9.63,19.99,18.23,39.68,25.25,60.69l4.01,14.02,3.26,16.93c2.01,10.43,1.23,21.51-4.82,30.64-11.02,16.62-37.23,13.95-56.75,8.66-26.78-7.26-51.5-20.16-71.94-38.9-30.09-27.6-42.99-66.82-23.84-104.01l8.88-19.18c3.76-8.12,4.19-16.22,4.38-24.9.2-9.31-2.08-17.04-7.78-24.56l-9.41-12.43c-7.33-9.68-13.81-19.2-17.32-30.76l-3.97-13.11c-2.09-6.91-3.01-13.65-4.02-20.94-1.09-7.89-2.77-15.49-3.24-23.52-.37-6.31-1.47-12.28-2.18-18.6l-2.95-26.28-2.06-10.39,12.33.16,4.25,38.54.9,16.98,1.15,18.07,4.78,24.4,3.04,7.88c7.37,19.11,29.92,39.24,35.77,62.97l1.26,12.62-1.03,10.87c-1.86,19.52-23.57,47.5-22.29,71.57.57,10.71,3.84,20.51,9.62,29.51,15.59,24.26,38.49,43.25,64.83,54.76l15.05,5.18c15.01,5.17,38.97,5.58,54.7.31,7.87-27.33-5.45-63.2-17.77-89.24l-28.54-60.33-6.29-16.86-3.51-14.49c-4.42-18.26,1.21-36.16,13.97-49.76,6.16-6.57,12.84-12.49,20.84-17.13l49.83-28.94c12.05-7,21.7-16.22,28.85-28.25l13.91-27.88,8.95-20.86Z" fill="#fefefe"/>
  <path d="M1469.63,305.15c-2.07-7.98-5.83-15.03-9.43-21.84l-7.93-14.99c-1.99-3.76-4.96-6.61-6.32-10.89,5.34,2.96,8.7,7.33,12.94,11.17,7.42,6.71,12.43,14.65,14.86,24.35l4.01,15.95,3.79,15.17,4.67,20.31,4.48,23.48,1.73,12.42.77,14c.95,17.18-2.3,34.05-11.13,48.87l-4.77,11.23-20.72,34.1c-5.64,9.28-10.72,18.84-12.33,29.52-2.03,13.5,1.17,27.11,9.42,37.22,6.78,8.31,18.16,11.43,28.96,8.49,6.19-1.68,12.1-3.04,17.99-6.16,24.47-12.95,50.07-35.21,63.53-59.33,17.16-30.75,28.75-63.1,34.96-97.73l3.82-33.18.81-10.12-.03-21.75-.91-12.09-1.05-12.84-2.51-23.34-4.21-26.71-3.26-18.95-4.19-20.8-4.59-22.33-3.31-16.68-3.27-15.37-2.93-14.99-4.09-22.86-4.52-37.86-1.06-13.94-1.01-13.84-4.59-35.21c-1.2-9.21-4.11-17.46-8.07-25.75l7.13-.21c3.24,4.41,4.85,9.68,6.09,14.8l3.91,16.25,4.5,28.5,3.99,24.99,3.91,25,3.68,21.41,4.46,25.35,3.81,21.19,3.03,14.75,2.83,15.01,4.32,22.66,5.14,31.86.73,8.2,2.12,20.78.98,15.93.04,43.86-.87,12.19-1.96,16.86c-.91,7.79-1.35,15.56-2.87,23.04l-4.07,20.03c-5.3,26.1-14.82,50.73-27.58,74.28l-4.1,6.96-3.99,7c-16.74,24.61-40.44,43.98-67.66,55.92-6.25,2.74-11.87,4.05-18.31,4.99-20.2,2.93-34.24-7.15-40.02-26.66-3.77-12.72-5.66-28.36-.86-40.47l4.51-11.37c4.37-11.02,11.8-19.7,19.02-28.88l15.79-20.06c5.73-9.82,4.68-21.83,5.55-32.73.49-6.1,1.39-11.15-.03-17.25l-.46-15.64-.85-10.19-4.28-28.82-4.33-21.64-3.79-14.6Z" fill="#fefefe"/>
  <path d="M1009.93,615.92l-6.49,3.16c-21.61,8.89-43.67,15.06-66.34,20.47l-14.62,3.49-24.97,4.94c-25.16,4.98-41.52,4.71-61.67-12.53-33.27-28.47-52.93-81.89-58.38-125.22l-.72-11.12-.98-12.08.04-33.75.88-13.12,1.02-17.99.94-10.92,5.59-30.25c1.45-7.87,5.14-16.36,12.31-20.55,11.06-6.47,40.71,12.35,54.13,21.49l17.81,12.12,18.61,12.53c9.38,6.32,18.48,13.09,29.52,16.24l13.15,3.75,21.83,4.15,16.84,3.31c32.66,6.42,55.46,31.57,65.73,62.28l3.01,8.99c3.49,10.44,4.57,20.67,5.65,31.46l.07,18.81c-1.26,19.97-7.74,39.26-22.93,53.05l-10.04,7.3ZM1006.14,604.77c7.65-3.21,13.37-9.05,17.9-16.14,19.53-30.53,9.79-81.26-9.94-112.36-15.71-24.75-37.52-30.75-64.88-36.01l-24.21-4.65c-8.14-1.56-15.96-3.62-22.84-8.14l-19.89-13.05-35.75-24.26-23.38-13.59c-7.6-4.42-22.14-9.15-26.14-3.59s-5.2,13.33-6.51,20.25l-4.78,25.12-1.02,9.78-.97,12.15-.06,39.88.99,14.05.94,8.86,4.66,27.29c4.51,20.42,10.49,39.98,20.29,58.4,6.56,12.34,13.79,23.64,24.23,32.77,12.3,10.77,26.94,18.4,43.63,18.25l9.97-1.06,27.73-5.23,16.98-4.05,14.26-3.65,13.79-4.23,11.29-3.64,11.26-3.74,22.44-9.43Z" fill="#fefefe"/>
  <path d="M745.46,1.76c3.27,13.9,2.42,27.74-.22,41.55-1.29,6.76-2.33,13.14-4.14,19.83l-4.69,17.31c-1.31,4.82-2.72,9.32-3.85,14.18l-3.03,13.01-3.88,20.15-4.16,27.71-3.95,21.11c-3.68,19.65-13.22,37.05-27.77,51.18l-11.14,10.81c-8.24,8-24.22,15.22-36.68,17.43-18.54,3.29-36.28.33-54.69-4.19l-13.63-3.35c-24.69-6.07-49.23-18.6-54.29-44.73l-5.32-27.47c-1.11-5.74-1.73-11.34-2.94-16.98l-4.61-21.57c-7.24-33.83-22.13-64.57-42.18-92.66L433.49,1.9h12.93c2.77-.01,3.11,3.03,4.36,4.72,14.07,19.04,27.66,37.61,39.77,58,13.28,22.37,21.95,45.55,26.97,70.98l6.74,44.03c3.05,19.88,8.51,36.38,27.1,46.09,11.76,6.15,23.93,10.33,37.03,12.83l24.11,4.59,24.8-.18c3.76-.03,8.17-1.58,11.88-3,25.95-9.91,46.23-31.01,55.77-56.84,4.46-12.07,8.31-32.48,8.94-45.11l2.23-13.64c2.58-15.75,4.56-31.11,9.93-46.33,3.89-11.02,9.05-21.4,10.16-33.38.36-3.87,1.13-8.12.93-11.98l-.83-15.99-2.94-14.84,12.08-.08Z" fill="#fefefe"/>
  <path d="M1907.46,693.75l-10.77,2.78-28.77,6.44-21.91,4.21c-15.54,2.98-30.98,5.86-46.95,4.4-11.98-1.1-22.44-6.75-31.9-13.95-31.93-24.29-53.41-70.95-57.35-110.52l-1.07-21.06c-.29-5.63-1.44-10.43.03-16.19l.36-14.74,1.08-15.04.97-10.95,5.7-27.19c1.51-7.2,5.08-15.45,12.5-18.17,8.6-3.15,18.17.41,25.93,3.83l9.12,4.02,27.25,14.78,39.33,22.57c8.62,4.95,17.27,8.43,27.04,10.06l24.73,4.14c26.06,4.37,49.28,8.1,67.56,29.41,9.2,10.72,15.79,22.37,20.38,35.65l3.59,13.52c3.96,14.93,3.63,29.71-1.03,44.67-7.19,23.1-22.41,35.06-45.34,41.54l-20.51,5.79ZM1941.2,671.61c12.34-4.8,19.8-15.47,23.71-27.74,8.59-26.93-1.78-61.29-19.39-83.43-13.99-17.59-34.81-23.75-56.65-27.3l-24.92-4.05-20.9-5.08c-11.76-4.28-22.02-10.84-32.8-17.1l-20.96-12.18c-11.9-6.91-23.58-13.28-36.28-18.57l-11.99-3.38c-2.86-.8-9.59-1.74-11.44,1.69-6.19,11.43-9.12,23.94-10.59,36.57l-1.85,15.95-.87,10.15v24.79s.86,10.15.86,10.15l1.89,15.95c3.78,31.88,19.88,74.18,44.4,95.3,8.69,7.48,18.37,13.71,29.54,16.38,5.61,1.35,12.24,3.49,17.78,2.77l33.64-4.35c27.67-5.31,54.53-11.59,81.14-20.44l15.67-6.09Z" fill="#fefefe"/>
  <path d="M1833.21,75.92c17.07-23.93,13.48-48.85.45-73.96l9.18-.06c8.44,23.89,14.43,50.31,2.28,72.9-4.19,7.78-8.83,14.74-14.46,21.68-17.24,21.23-27.51,45.93-29.17,73.47l-2.32,18.56-.94,15.01-1.13,15.95-3.67,24.55-5,17.89c-3.54,12.67-15.94,31.51-30.42,32.1-3.06.12-7.19-1.53-9.79-2.92-19.65-10.46-30.97-43.35-35.16-65.8l-1.32-10.79c-1.7-13.91,1.9-27.01,7.01-40.18l8.4-21.65c3.25-8.38,6.56-18.08,3.2-25.48-11.16-24.58-24.86-30.65-24.56-62.55.1-10.99.86-20.93,4.83-31.41,4.14-10.94,9.54-21.09,15.77-31.28l9.53-.07c-8.02,12.99-14.88,26.37-19.81,40.93-6.65,19.65-3.66,35.93,8.58,52.17,15.13,20.08,18.16,38.4,8.8,61.98l-8.52,21.47c-6.16,15.52-5.04,43.08-.45,59.45l3.25,11.58,4.28,10.71c4.45,11.13,12.49,19.87,24.07,24.43,10.89-3.51,25.4-6.23,26.72-15.43l3.96-27.69.89-11,.99-12.95,2.06-21.07.92-11.95.95-11.89,2-13.22c1.44-22.29,9.07-42.11,21.93-60.14l16.66-23.36Z" fill="#fefefe"/>
  <path d="M1351.58,253.83c-16.56-1.85-35.79,3.95-44.3,17.76l-7.96,12.92c-10.77,17.47-21.87,63.86-37.31,94.47-5.69,11.29-12.04,21.35-20.44,30.52-13.66,14.9-35.79,24.99-55.25,30.84l-18.59,3.48c-7.48,1.4-13.74,1.71-21.27.24-7.5-1.46-14.51-2.75-21.42-6.8-6.77-3.97-13.57-9.59-17.15-17.55,12.58,5.74,24.11,12.09,37.55,12.11l26.75.04c21.69-2.66,42.11-10.97,59.07-24.63,13.67-11.01,22.62-25.92,29-41.84l4.61-11.49,19.92-55.83c6.62-18.57,19.77-43.5,37.98-49.99,10.94-3.9,21.81-4.82,33.57-2.62,40.63,7.6,79.16,36.5,92.59,76.27l4.27,12.66,3.46,12.5,4.86,25.25c4.69,24.39.03,57.07-16.06,76.39-2.78,3.34-4.94,7.09-9.54,8.71,3.67-22.57,22.32-41.13,20.87-65.98l-3.29-21.55-9.37-37.38c-8.35-33.32-38.61-61.89-70.39-73.43-7.55-2.74-14.34-4.2-22.15-5.07Z" fill="#fefefe"/>
  <path d="M424.57,483.3c-25.05,7.94-38.31,16.13-65.5,5.42l-21.53-8.48-18.94-4.78c-5.89-1.49-12.45-.62-18.24.32-24.99,4.06-43.59,17.69-46.99,43.15-2.47,18.48,4.39,41.1,14.1,57.41l16.28,21.6c6.69,8.87,13.3,17.7,15.27,29.23-6.71-3.93-10.89-9.41-15.83-14.78-14.96-16.28-25.52-35.37-32.52-56.27-1.78-5.3-2.23-10.46-3.45-15.8-4.65-20.32,1.52-46.2,17.51-59.03,27.8-22.28,62.1-11.69,93.9-9.43l14.02,1h19.99s14.03-1,14.03-1c8.65-.62,15.87-1.99,23.94-2.97,17.93-2.19,35.5-3.13,53.1,1.12,26.79,6.47,49.69,23.22,62.62,48.13-10.32-4.6-17.58-11.65-25.78-17.98l-13.34-9.85c-14.46-10.67-31.18-17-49.76-15.01l-22.91,4.82-9.97,3.16Z" fill="#fefefe"/>
  <path d="M1506.65,328.45l-2.17-19.2-.3-38.74c-.02-2.73.81-5.8,2.85-7.36l4.46,40.79,2.79,28.44,2.25,17.48c.74,5.77,2.01,10.73,3.78,16.08l3.94,11.98,3.99,11.08c3.02,8.4,7.25,16.05,14.08,21.96,3.05,2.64,6.18,2.22,9.59-.02,13.31-8.72,17.76-23.06,20.63-38.12l2.24-11.76-.02-47.63-2.04-18.08-.71-9.03-5.89-43.92-4.1-23.85-5.48-26.32-3.22-14.8-4.65-21.32-3.2-14.82-3.4-17.65-5.16-29.76-1.75-15.27-4.28-32.95c-.4-3.05,1.78-8.54,4.66-7.51,3.89,1.39,2.31,7.68,2.57,10.32l1.3,13.15,2.19,14.58,3.19,21.46,4.78,26.32,3.49,17.47,4.58,21.46,2.43,12.63,4.24,19.65,3.68,19.32,3.36,17.82,4.55,27.28,2.98,24.71.95,10.99.96,13.01,1.01,13.95.02,30.92-.92,9.09-3.23,22.71c-1.92,13.49-11.95,32.91-25.56,36.1-14.5,3.41-25.59-12.85-30.39-26.52l-5.94-16.91-3.32-12.66-3.42-18.63c-1.05-5.7-1.7-11.67-2.41-17.96Z" fill="#fefefe"/>
  <path d="M1780.28,353.8c-19.4,1.7-37.44-3.86-51.96-17-8.81-7.98-15.63-19.32-17.33-32.3,16.74,19.73,30.74,35.22,57,39.92,4.78.86,7.92.66,12.84-.19,14.84-2.58,29.11-10.49,34.44-25.46,1.88-5.28,4.25-11.67,4.31-17.46l.73-70.28,3.4-18.58,4.74-16.44c9.02-31.28,40.98-70.7,52.3-108.38l3.67-16.22.03-28.54-3.6-13.19-4.37-13.74c-1.43-4.51-3.23-9.05-2.45-14.01,1.79-.4,3.89-.4,5.42.14,3.31,4.68,5.09,9.66,6.35,14.86l3.72,15.35,1.74,13.33c3.85,29.52-3.9,58.57-19.56,83.61l-16.24,25.96-9.35,16.62-4.77,10.18-5.78,15.93-3.1,11.73-4.15,32.08-.89,25.08-.78,23.43-.82,13.22-3.64,19.21c-5.77,18.61-23.13,29.49-41.88,31.13Z" fill="#fefefe"/>
  <path d="M1468.72,1.93c9.59,24.79,14.45,50.2,17.85,76.27l1.76,13.49c.34,2.57,1.61,5.87.79,8.91s.9,6.16.87,9.04l-.35,34.28c-.18,18.13-12.58,20.1-26.03,23.19-7.8,1.79-14.68,1.62-22.56.62-18.91-2.4-36.91-7.13-53.17-16.75-17.99-10.64-31.37-26.49-34.87-47.26-1.06-6.32-1.14-11.89-.05-18.13l1.35-7.73c3.11-17.76,17.57-41.38,30.74-55.15l16.17-16.92c1.18-1.23,1.7-3.94,4.08-3.93l9.9.03-5.52,6.49c-15.01,15.78-27.93,32.79-39.22,51.59-9.52,15.84-12.48,34.93-5.9,52.19,8.29,21.74,31.07,34.57,52.9,41.13l20.68,4.23c11.03,2.26,21.36,1,32-1.82,7.17-1.9,12.91-6.13,12.85-14.32l-.17-22.64-.8-11.19-3-23.92-6.27-40.51c-2.21-14.3-5.31-27.86-10.84-41.1,2.42-.45,4.13-.51,6.83-.08Z" fill="#fefefe"/>
  <path d="M611.12,181.51c-17.04,1.63-31.28-7-38.06-21.46-2.83-6.04-6.65-14.75-6.93-20.07-.24-4.66-3.37-12.23-3.35-20.45l.08-35.59,1.57-10.41c2.86-18.92,14.57-37.95,33.48-44.24l15.6-2.41c17.5-2.71,39,12.17,46.37,30.35l5.45,13.43,3.76,18.05-.04,28.79c0,7.15-2.57,14.34-4.64,20.96-3.05,9.78-7.81,17.98-14.33,25.71-9.44,11.19-23.56,15.86-38.98,17.33ZM653.05,144.14l3.42-7.64c16.4-36.61,3.6-95.59-36.68-98.25-8.63-.57-21.44.66-27.24,4.63-9.82,6.73-14.72,17.51-18.04,28.73-2.78,9.36-2.99,18.77-4.61,28.4-1.24,7.41.34,14.43,1.29,21.84,1.38,10.81,3.18,20.95,8.53,30.58,4.6,8.28,11.15,16.67,21.04,18.64,22.93,4.56,41.03-7.03,52.28-26.93Z" fill="#fefefe"/>
  <path d="M1149.63,396.78c-10.31-4.95-20.45-19.39-16.66-31.19,8.52,12.56,16.73,22.78,30.76,27.39,24.98,8.2,50.44-13.12,64.85-34.38,12.1-17.86,20.01-37.47,23.05-58.97,1.9-13.39,2.9-26.45-1.22-39.57-2.51-8.01-13.37-15.33-21.57-16.98l-15.85-3.18-37.76-.43-19.83-3.98-17.71-4.29c-5.7-1.38-11.39-1.74-16.7-4.49,13.9-8.79,27.47-5.38,41.91-.92l15.32,4.73c25.24,7.8,66.27-13.28,80.88,29.07,2.17,6.29,2.04,12.15,2.23,18.8.33,11.79-.78,22.56-4.09,33.94-4.45,15.36-10.28,29.87-18.33,43.66-9.1,15.6-25.17,37.44-41.21,43.88-15.51,6.24-32.84,4.22-48.09-3.1Z" fill="#fefefe"/>
  <path d="M1588.66,544.64c-4.71,10.71-16.48,29-21.2,21.75-1.5-2.3,2.18-5.5,3.43-7.61,23.4-39.56,37.51-87.59,48.27-132.38l3.99-20.05,4.01-23.88,2.46-19.3,2.13-17.84.94-16.99.02-32.88-.94-11.08-3.39-18.51-13.36-41.37-3.48-12.59c-1.62-5.86-2.83-12.41-.11-15.57.67-.78,3.94-1.54,4.28-.56l9.59,32.41,9.9,34.96,2.9,13.06,3.76,28.12.92,11.08-.91,13.99-1.36,10.52-4.37,32.32-7.1,38.89-4.82,23.02-7.02,31.17c-4.47,19.83-10.56,38.5-18.74,57.08l-9.78,22.23Z" fill="#fefefe"/>
  <path d="M90.33,242.92c-.06-11.37-4.81-20.58-4.13-21.46,2.13-2.72,10.22,6.13,10.23,16.48l.07,44.47-.98,14.98-2.27,16.54c-3.23,23.56-6.68,48.25-19.56,68.05-1.84,2.83-4.55,3.55-7.33,3.44-3.17-.12-4.89-2.02-6.51-5.38-8.08-16.72-12.87-34.33-17.07-52.61l-4.81-27.07c-.55-3.12-.66-6.79-.91-9.92l-.94-12.14.1-28.45c.05-14.37,3.82-28.35,11.32-40.45,6.16-9.94,21.32-18.58,28.3-10.91,5.19,5.7,8.75,13.2,9.87,21.28-6.86-8.42-17.6-13.1-27.97-9.09-7.91,3.06-13.46,24.41-13.5,35.07l-.1,28.5,3.94,34.01,5.57,28.18c2.7,13.65,6.72,26.56,13.03,39.77,7.1-10.12,10.52-20.79,13.15-31.86l4.02-16.94,3.88-23.09c.87-5.15,1.35-10.57,1.84-15.87l.94-10.16-.2-35.39Z" fill="#fefefe"/>
  <path d="M1111.06,168.75l-13.32,13.33-17.33,17.44-13.12,8.95c-.48.33-1.17.88-1.48.92s-.83-.64-1.03-.88c-.6-.7.06-1.08.69-1.86,15.31-24.3,43.98-56.49,72.79-58.94l10.01-.85,10,.9c16.72,1.51,34.95,15.5,52.4,10.03,12.48-3.91,21.88-13.04,28.58-24.24,8.89-14.87,15.67-30.17,21.28-46.59l13.99-40.88,13.79-44.07c2.14-.45,3.77-.46,6.01-.09-.41,4.69-1.78,8.87-3.72,13.24l-2.08,8.9-4.15,13.95-4.17,14.9-3.9,12.94-9.19,28.78c-5.22,16.35-12.2,31.8-21.63,46.11-6.86,10.41-15.69,19.03-27.15,23.77-15.11,6.24-32.72,1.34-48.48-3.69-21.49-6.85-41.25-9.64-58.8,7.92Z" fill="#fefefe"/>
  <path d="M1027.81,39.32c-16.72,19.3-41.95,29.71-67.39,32.2l-9.14.9-19.78-.09-12.15-.9-10.76-1.19c-15.82-1.74-29-16.7-35.02-31.61l-4.88-12.08-4.01-11.05c-1.56-4.31-1-9.19-4.27-13.46l10.75-.16c3.41,11.95,7.12,23.28,13.24,33.67,9.92,16.83,20.4,20.53,38.89,22.02l8.56.69c38.76,3.12,79.28-6.76,98.91-42.11l7.89-14.2h10.06c-4.79,13.76-11.22,26.21-20.89,37.37Z" fill="#fefefe"/>
  <path d="M1299.12,161.6c8.65,33.92,35.24,39.28,62.67,48.21l18.84,6.14c24.27,7.91,48.09,22.17,64.33,40.91l-57.26-28.88c-10.83-5.46-21.76-8.34-33.36-11.7l-15.45-4.48c-24.23-7.03-41.19-19.01-48.18-43.76-4.94-17.51-4.85-42.73-.59-60.39l4.88-20.19c7.08-29.29,17.81-56.94,28.81-85.11,2.89-1.06,5.85-.77,8.17-.29l-12.9,32.46-4.19,11.66-4.03,10.98-4.09,12.93-3.87,14.08-4.57,24.44-.88,9.14-.48,13.66c-.34,9.66-.05,21.55,2.16,30.21Z" fill="#fefefe"/>
  <path d="M415.58,535.95c-17.74,8-36.3,11.48-52.28-.6l-15.88-12.01c-15.91-12.03-38.2-15.7-55.57-5.15-18.09,10.98-11.49,41.71,1.56,58.11l12.85,16.14,4.12,7.86c1.34,2.56,1.83,5.51.79,8.02-4.03-1.63-5.65-4.14-8.29-6.62-18.88-17.69-32.83-43.51-28.7-68.85,3.19-19.58,19.06-29.56,37.46-29.13,15.86.37,29.89,2.85,42.35,13.17l16.65,12.13c12.63,9.21,26.93,6.53,41.44.44,18.54-7.79,41.26-19.44,60.66-12.46,11.18,4.03,19.37,12.9,24.62,23.36.25.49-.83,1.6-1.37,1.68-.57.09-1.74-.63-2.39-.94l-10.87-5.22c-10.74-5.16-21.05-14.88-38.28-11.62-10.28,1.94-19.36,7.4-28.87,11.69Z" fill="#fefefe"/>
  <path d="M1486.59,227.95c5.94,3.58,10.18,9.32,11.7,16.68-5.06-.51-8.22-3.99-12.21-6.09l-11.84-6.22-29.73-14.1-25.07-11.02-44.39-21.47-24.95-14.07c-12.58-7.09-19.73-19.33-23.95-33.13-9.44-30.87-1.51-68.29,12.14-97.59l12.65-20.61c.98,6.33-2.01,11.18-3.5,16.56l-4.09,14.82-3.12,12.04-10.5,40.05c-1.95,14.73,3,29.96,9.1,43.3,8.58,18.77,41.89,34.18,62.35,42.44l51.81,20.93,11.01,4.98,7.62,3.48,14.99,9.04Z" fill="#fefefe"/>
  <path d="M1558.5,570.68c2.04,8.17-11.68,15.2-21.38,19.37l-23.76,10.22-23.32,6.69c-7.82,2.24-15.68,2.19-23.93,2.09-21.58-.24-38.75-14.05-46.27-33.84-4.53-11.92-7.23-23.72-7.27-36.6l-.09-28.4.58-16.56c4.02,1.42,2.71,5.32,3.13,8.41l2.94,21.96,1.06,11.09,4.02,25.94c2.92,11.01,8.23,20.82,15.9,29,11.26,12,27.67,14.2,43.22,10.21,10.39-2.67,19.86-5.85,29.72-10.28l33.11-14.9,12.36-4.41Z" fill="#fefefe"/>
  <path d="M1972.91,455.84c-7.95,7.86-20.12,11.32-29.89,4.98-7.32-4.75-12.21-14-13.13-22.32-1.55-13.95,4.54-25.53,16.61-31.86,10.09-5.3,23.71-6.01,31.97,3.05,6.5,7.13,7.77,18.61,5.51,27.33-1.98,7.65-5.35,13.18-11.07,18.82ZM1965.14,449.15c6.9-3.11,11.3-8.08,11.8-14.6.52-6.71-2.08-12.85-8.1-16.2-9.04-3.75-19.04-3.62-27.38,1.29-4.8,7.87-3.91,16.74.42,24.72,5.4,7.13,14.9,8.56,23.26,4.79Z" fill="#fefefe"/>
  <path d="M1660.82,191.24l-9.93-19.55-4.2-10.61-4.18-13.76-4.29-22.73-.84-11.09.14-20.31,2.99-23.77,4.06-17.04c4.3-18.02,11.92-34.65,21.45-50.5l10.14.11c-14.57,19.87-25.54,42.19-28.72,66.87l-2.04,15.88-.2,31.75,1.65,11.16c1.23,8.31,1.69,16.2,5.22,23.97,4.55,10.02,9.37,19.75,10.88,30.84.39,2.88,1.13,5.93-2.14,8.78Z" fill="#fefefe"/>
  <path d="M1796.49,438.57c-10.94,12.44-26.92,8.59-31.49.58-5.9-10.34,8.47-27.19,20.68-31.09,7.16-2.29,15.19-.07,16.95,7.17,2.19,8.98-.56,16.97-6.15,23.33Z" fill="#fefefe"/>
  <path d="M1602.31,165.85c-2.04,2.53-5.63-1.48-6.15-4.46l-6.92-39.82-.94-9.91-1.04-13.05-.67-14.48-.97-23.93-.74-34.46-.8-13.01c-.24-3.82-.14-7.14-1.25-10.86h8.54s.41,19.78.41,19.78l.96,17.84c-.99,11.66-4.03,22.27-2.35,33.8l3.29,22.57,3.37,21.77,3.49,23.78c.69,4.67,2.07,8.04,1.58,13.44-.23,2.53,2.76,7.84.21,11Z" fill="#fefefe"/>
  <path d="M84.33,2.51c3.3-1.13,7.73-1.56,10.72.05,1.63.88.65,4.76-.73,5.73-1.85,6.54-7.02,10.22-13.49,11.44-9.56,6.53-20.24,11.8-31.88,12.04-7.38.15-13.92.22-20.36-2.79-7.02-3.27-13.24-8.21-14.63-16.31l-.11-10.83,9.27.14c-.86,4.51-2.36,9.79,1.07,13.48,2.57,2.76,7.9,2.45,11.49,2.23,8.16-.5,17.41,1.62,25.22,1.75l16.56.27,6.87-17.19Z" fill="#fefefe"/>
  <path d="M362.93,692.3c2.34-1.14,5.99.17,8.22.95l9.13,3.16c6.15,2.13,12.37,6.44,19.31,6.37,20.55-.21,34.97-18.87,54.61-22.06-9.73,16.61-26.71,28.02-45.5,29.98l-16.1-.07c-11-.05-21.47-5.29-30.72-11.06-1.69-1.41-.59-6.48,1.04-7.27Z" fill="#fefefe"/>
  <path d="M1064.72,341.96c-5.71-7.01-8.11-14.66-10.76-22.37l-3.58-10.42-4.55-18.53c-1.82-7.41-2.99-14.41-2.72-22.21l.74-21.5c1.72-9.52,4.41-18.34,9.62-26.85,4,3.79,2.97,8.58,1.78,13.18l-4.73,18.28c-2.81,10.85-1.03,22.13,1.84,32.74l7.03,26.04,3.1,13.03c1.41,5.91,4.03,11.72,2.24,18.64Z" fill="#fefefe"/>
  <path d="M1114.41,328.53l4.15,12.65c-3.37.95-4.27-1.4-5.83-3.28-22.3-26.86-30.31-65.94-6.53-93.99,4.27,3.49,3.89,8.15,1.8,12.12l-5.19,9.86c-4.26,8.09-3.91,26.84.06,36.02l11.53,26.62Z" fill="#fefefe"/>
  <path d="M1228.08,14.04c8.62-6.04,5.04-15.1,18.62-11.91l-13.16,19.79c-1.63,2.45-4.06,4.53-6.03,4.78-3.02.39-7.09.17-8.98-2.21-5.37-6.75-7.86-14.48-10.42-22.64h11.07c2.37,4.57,5.07,8.67,8.9,12.18Z" fill="#fefefe"/>
  <path d="M972.24,2.13c-9.45,2.48-19.2,2.1-28.96-.06l28.96.06Z" fill="#fefefe"/>
  <path d="M1234.15,518.4l-10.16,3.34c-15.03,4.94-35.93,14.98-40.24,29.69-4.41,15.1,9.71,32.17,22.59,41.41l22.16,15.89,33.31,24.59,14.4,14.55,31.72,39.25c6.14,7.6,12.04,15.31,20.31,20.65,7.48,4.83,15.75-4.63,19.01-3.52,1.84.62,2.68,2.28,1.78,4.69-1.7,4.56-7.24,9.67-12.71,8.7-14.2-2.51-29.74-18.71-39.38-30.52l-24.25-29.69c-5.06-6.2-9.78-11.88-16.31-16.82l-44.83-33.89c-12.15-9.18-31.24-26.16-32.97-39.74-.79-6.18-.62-12.61.08-18.77.35-3.05,2.2-6.57,3.37-9.44,7.44-18.16,34.54-26.38,53.66-31.3l13.56-3.49,11.04-3.91,38.93-19.73c6.19-3.14,12.31-4.29,19.32-4.94,15.71-1.45,28.12,11.73,33.39,25.93l3,8.09,4.69,16.38,4.07,17.87,3.04,15.77,3.12,20.69,1.03,11.83,1,14.98-.17,35.58c-.07,16.06-3.5,31.84-10.58,46.22l-6.66,10.31c-1.73.66-2.7-.98-1.85-1.79.64-9.1,4.58-16.91,7.55-25.23l3.44-9.66c.66-1.85,1.42-5.36,1.41-7.52l-.18-36.83-.71-10.14-5.9-44.87-3.92-22.14c-2.55-14.39-6.24-28.2-12.31-41.53-5.33-11.69-18.75-15.36-30.16-11.48l-10.46,3.56-7.47,3.52-32.11,15.58-12.34,3.6-15.32,4.26Z" fill="#fefefe"/>
  <path d="M1316.79,631.91c-11.92.25-20.09-6.64-28.07-13.34-8.66-7.26-14.91-16.14-19.95-26.18s-6.71-19.42-5.58-30.55c1.39-13.67,12.28-24.26,25.23-29.67,13.73-5.73,24.65-4.51,35.37,5.44,6.18,5.74,9.28,13.62,12.2,21.69,3.59,9.91,4.11,20.15,4.44,30.72l-.7,9.43c-1.04,14.06-8.82,32.16-22.94,32.46ZM1326.6,616.62l3.78-15.41c1.47-5.98,2.08-12.78,1.5-19.08l-.85-9.2c-.65-7-2.95-14.28-6.59-19.91-6.48-10-17.64-13.73-28.64-10.52-4.37,1.27-8.56,1.68-12.16,5.25-5.4,5.35-11.53,11.56-14.69,18.98-2.08,4.88,1.7,11.19,3.84,15.66,5.55,11.57,13.74,21.31,23.35,29.55,13.83,11.84,28.97,10.72,30.45,4.67Z" fill="#fefefe"/>
  <path d="M924.99,566.26c-21.39,4.39-48.79-10.12-50.23-31.7-.48-7.14,1.85-14.29,5.74-20.46,6.16-9.77,19.07-10.81,30.92-10.33,20.13.8,42.23,11.27,40.64,30.84-1.23,15.19-11.16,28.38-27.07,31.65ZM896.31,554.19c17.08,10.2,41.89-2.25,49.44-21.06-4.65-13.19-25.73-23.46-36.23-21.84l-7.91,1.23-8.35,3.27c-6.02,2.36-6.98,6.63-7.1,12.31l-.17,8.02c-.15,6.93,4.13,14.37,10.32,18.07Z" fill="#fefefe"/>
  <path d="M976.89,484.18c-1.47-2.18-5.45-1.8-6.97-2.37l-10.4-3.9-12.37-4.64-10.32-3.72c-4.48-1.62-8.48-3.77-13.44-4.31-1.08-.12-2.54-1.96-1.98-2.59.41-.46,2.01-.97,2.82-.94l17.8.86c24.87,1.2,51.98,14.98,59.17,39.72,2.04,7.02,4.53,14.11,2.41,21.61l-26.72-39.71Z" fill="#fefefe"/>
  <path d="M1819.5,569.59c-2.16,9.46-9.23,15.52-17.43,19.54-14.23,6.99-29.05,7.21-38.71-5.66-12.11-16.13-17.68-37.35-10.67-56.45,3.57-9.72,14.12-13.87,22.9-9.5l7.76,7.14c17.51,9.32,40.7,25.01,36.16,44.93ZM1813.92,564.07c-9.39-14.37-19.64-26.83-31.9-38.1-5.21-4.79-14.48-1.64-18.32,3.9-7.36,10.63-7.99,24.39-2.47,35.73l3.69,7.59c2.35,4.84,7.7,9.35,13.85,8.5,13.28-1.85,22.78-12.46,35.15-17.62Z" fill="#fefefe"/>
</svg>