<?xml version="1.0" encoding="UTF-8"?>
<svg id="Layer_1" data-name="Layer 1" xmlns="http://www.w3.org/2000/svg" viewBox="0 0 267.81 98.47">
  <defs>
    <style>
      .cls-1 {
        fill: #db6da9;
      }

      .cls-2 {
        fill: #23c1e0;
      }
    </style>
  </defs>
  <g>
    <path class="cls-2" d="M0,75.72V20.71h17.15v2.06c0,1.11-.16,2.37-.47,3.24l-.08.24.55.16c1.03-1.74,2.45-3.32,3.79-4.35,1.66-1.19,4.11-2.37,7.51-2.37,4.27,0,7.98,1.66,10.51,4.19,3.64,3.64,5.37,9.56,5.37,15.1,0,7.75-3.24,12.57-5.77,15.25-2.85,3-5.93,4.43-9.8,4.43-2.37,0-4.9-.55-7.27-2.13-1.34-.95-2.77-2.21-3.79-3.95h-.55c.71,2.85.87,4.74.87,7.19v15.97H0ZM18.73,43.79c.87.95,1.9,1.19,3.08,1.19,1.26,0,2.29-.39,3.16-1.19,1.19-1.11,1.82-2.77,1.82-4.43s-.71-3.32-1.74-4.35c-.63-.63-1.74-1.34-3.32-1.34-1.19,0-2.21.47-2.92,1.11-1.19,1.11-1.66,3.16-1.66,4.58,0,1.9.55,3.4,1.58,4.43Z"/>
    <path class="cls-2" d="M50.35,20.71h17.94v20c0,.95.08,2.13.87,2.92.63.71,1.42.79,2.13.79s1.5-.08,2.21-.79c.87-.87.95-1.9.95-2.92v-20h17.94v21.26c0,2.69-.63,6.72-4.27,10.51-3.48,3.64-9.25,6.16-16.84,6.16s-13.2-2.53-16.6-5.93c-2.61-2.61-4.35-6.01-4.35-10.2v-21.82Z"/>
    <path class="cls-2" d="M99.99,57.62V0h17.94v57.62h-17.94Z"/>
    <path class="cls-2" d="M153.27,33.2c-1.26-.95-2.29-1.5-3.71-2.13s-2.85-1.11-4.59-1.11c-.63,0-1.42.16-1.98.55-.4.32-.71.87-.71,1.42,0,.63.32.95.55,1.19.47.4,1.19.4,2.13.63l3.64.79c2.45.55,5.22,1.34,7.27,3.48,1.19,1.26,2.61,3.48,2.61,6.88,0,3.71-1.42,6.72-3.71,8.93-4.27,4.19-9.8,4.82-13.99,4.82-6.8,0-11.54-1.74-14.62-3l-2.61-1.11,4.59-11.22,2.53,1.58c2.37,1.5,5.22,2.53,7.35,2.53.71,0,1.74-.16,2.45-.63.55-.4.71-.79.71-1.42,0-.71-.24-1.11-.71-1.5-.47-.32-1.19-.55-2.53-.79l-2.61-.39c-1.9-.32-4.43-.95-6.56-3.08-2.13-2.06-2.85-4.43-2.85-7.03,0-4.19,1.82-7.19,5.22-9.49,4.19-2.92,8.77-3.4,12.57-3.4,4.03,0,8.7.71,13.91,3.16l-4.35,10.35Z"/>
    <path class="cls-2" d="M189.79,24.9c-.55-1.42-.63-2.53-.63-3.16v-1.03h17.79v36.91h-17.71l.08-1.26c.08-1.03.4-2.45.71-3.4h-.55c-4.19,5.22-8.77,5.69-11.07,5.69-3.71,0-7.27-1.11-10.43-4.35-3.16-3.24-5.53-8.22-5.53-14.94s2.29-11.78,5.77-15.26c2.77-2.77,6.24-4.43,10.91-4.43,2.29,0,6.56.47,10.28,5.45l.39-.24ZM181.88,43c.87.87,1.9,1.26,3.08,1.26,1.11,0,2.13-.32,3.08-1.19,1.03-1.03,1.74-2.45,1.74-4.11s-.71-3.08-1.58-3.87c-.79-.71-1.82-1.19-3.08-1.19-1.19,0-2.37.39-3.24,1.26-.87.87-1.58,2.21-1.58,3.95s.71,3,1.58,3.87Z"/>
    <path class="cls-2" d="M214.53,57.62V20.71h18.1v2.29c0,.87-.16,1.66-.47,2.45h.32c1.19-2.13,2.92-3.64,4.51-4.51,3.48-1.9,7.98-1.66,8.22-1.66v18.73c-2.37-1.5-3.71-2.06-5.61-2.06-2.06,0-3.72.71-4.9,1.74-1.9,1.66-2.21,3.64-2.21,5.45v14.47h-17.94Z"/>
    <path class="cls-2" d="M265.36,55.65c-2.06,2.05-5.22,3-7.98,3s-5.85-.95-7.9-3c-1.58-1.58-2.45-3.87-2.45-5.85s.87-4.19,2.45-5.77c2.05-2.06,5.22-3,7.9-3s5.93.95,7.98,3c1.58,1.58,2.45,3.87,2.45,5.77s-.87,4.27-2.45,5.85Z"/>
  </g>
  <g>
    <path class="cls-1" d="M90.28,76.38h7.24c2.47,0,4.68.33,6.3,1.92s1.82,3.54,1.82,4.97c0,1.56-.23,3.51-1.69,5.1-1.49,1.62-4.09,2.5-7.54,2.5h-2.44l-.88,7.18h-5.49l2.66-21.67ZM95.22,80.92l-.65,5.39h1.72c.78,0,2.21-.06,3.05-.91.62-.62.68-1.43.68-1.92,0-.94-.29-1.53-.62-1.85-.71-.75-1.88-.71-2.66-.71h-1.53Z"/>
    <path class="cls-1" d="M110.58,94.4l-1.66,3.64h-6.11l10.75-21.67h6.17l5.23,21.67h-5.75l-.91-3.64h-7.73ZM112.6,90.12h4.68l-.91-4.13c-.36-1.66-.39-1.85-.49-2.5-.03-.16-.1-.42-.13-.78-.36,1.14-.65,1.82-.97,2.57l-2.18,4.84Z"/>
    <path class="cls-1" d="M136.05,81.15l-2.11,16.89h-5.46l2.08-16.89h-4.61l.58-4.78h14.71l-.58,4.78h-4.61Z"/>
    <path class="cls-1" d="M159.67,77.77l-.65,5.36c-1.59-1.33-3.31-1.98-5.29-1.98-3.99,0-6.82,2.63-6.82,6.3,0,3.48,2.47,5.81,6.07,5.81,1.69,0,3.28-.42,4.97-1.36l-.68,5.52c-2.37.84-3.44,1.04-5.1,1.04-6.4,0-10.88-4.45-10.88-10.75s5.2-11.76,11.82-11.76c2.34,0,4.26.52,6.56,1.82Z"/>
    <path class="cls-1" d="M182.37,76.38l-2.66,21.67h-5.49l1.07-8.87h-7.96l-1.1,8.87h-5.49l2.66-21.67h5.49l-.97,8.02h7.96l1.01-8.02h5.49Z"/>
  </g>
</svg>