<?xml version="1.0" encoding="UTF-8"?>
<svg id="Layer_1" xmlns="http://www.w3.org/2000/svg" xmlns:xlink="http://www.w3.org/1999/xlink" version="1.1" viewBox="0 0 360 360">
  <!-- Generator: Adobe Illustrator 30.3.0, SVG Export Plug-In . SVG Version: 2.1.3 Build 182)  -->
  <defs>
    <clipPath id="clippath">
      <rect width="360" height="360" fill="none"/>
    </clipPath>
    <clipPath id="clippath-1">
      <rect width="360" height="360" fill="none"/>
    </clipPath>
    <clipPath id="clippath-2">
      <rect width="360" height="360" fill="none"/>
    </clipPath>
    <clipPath id="clippath-3">
      <rect x="97.78" y="298.06" width="69.06" height="30.73" fill="none"/>
    </clipPath>
    <clipPath id="clippath-4">
      <rect x="183.84" y="298.06" width="6.46" height="30.73" fill="none"/>
    </clipPath>
    <clipPath id="clippath-5">
      <rect x="125" y="-1" width="91.71" height="164.58" fill="none"/>
    </clipPath>
    <clipPath id="clippath-6">
      <rect x="91.27" y="310.33" width="15.55" height="17.05" fill="none"/>
    </clipPath>
    <clipPath id="clippath-7">
      <rect x="125" y="27.04" width="67.91" height="136.54" fill="none"/>
    </clipPath>
    <clipPath id="clippath-8">
      <rect x="165.71" y="-9.7" width="60.83" height="129.42" fill="none"/>
    </clipPath>
    <clipPath id="clippath-9">
      <rect x="208.48" y="-9.7" width="28.59" height="55.1" fill="none"/>
    </clipPath>
    <clipPath id="clippath-10">
      <rect x="205.81" y="298.06" width="65.05" height="30.73" fill="none"/>
    </clipPath>
    <clipPath id="clippath-11">
      <rect x="125" y="82.87" width="29.68" height="80.71" fill="none"/>
    </clipPath>
    <clipPath id="clippath-12">
      <rect x="-.58" y="356.5" width="4.52" height="3.87" fill="none"/>
    </clipPath>
    <clipPath id="clippath-13">
      <rect width="360" height="360" fill="none"/>
    </clipPath>
    <clipPath id="clippath-14">
      <rect width="360" height="360" fill="none"/>
    </clipPath>
    <clipPath id="clippath-15">
      <rect width="360" height="360" fill="none"/>
    </clipPath>
  </defs>
  <g clip-path="url(#clippath)">
    <g clip-path="url(#clippath-1)">
      <rect width="360" height="360" fill="#22c1df"/>
      <rect x="126" width="110.07" height="162.57" fill="#dc66a5"/>
      <rect x="92.27" y="299.06" width="177.59" height="28.73" fill="#dc66a5"/>
      <g clip-path="url(#clippath-2)">
        <g opacity=".07">
          <g clip-path="url(#clippath-3)">
            <path d="M160.26,327.79c-.15-.26-.3-2.04-.86-3.54-10.97-17.34-17.09-7.83-29.25-7.31-11.53.49-21.28-8.07-31.37-17.88h6.65c5.91,5.71,11.4,10.14,16.76,11.19,11.69,2.26,21.56-7.71,33.68,1.01,3.36,2.41,6.94,10.12,9.97,16.53" fill="#fff"/>
          </g>
        </g>
        <g opacity=".07">
          <g clip-path="url(#clippath-4)">
            <path d="M185.1,327.79c-.13-8.8.5-20.42-.26-28.73h4.27c.42,8.17-.07,19.79.19,28.73" fill="#fff"/>
          </g>
        </g>
        <g opacity=".07">
          <g clip-path="url(#clippath-5)">
            <path d="M215.71,162.58h-5.17c-1.15-3.17-2.11-6.24-2.54-9.24-2.75-19.14,3.44-41.12,1.42-62.31-3.34-34.84-36.94-94.3-64.47-82.45-6.5,2.8-10.97,24-18.95,23.38v-5.81c5.74-1.21,7.02-11.41,11.21-16.84,28.25-36.7,73.52,44.39,76.53,84.46,1.41,18.65-3.29,37.72-1.91,53.93.48,5.61,2.1,10.32,3.89,14.89" fill="#fff"/>
          </g>
        </g>
        <g opacity=".07">
          <g clip-path="url(#clippath-6)">
            <path d="M105.82,326.38h-7.32c-2.06-2.21-4.13-4.58-6.23-6.96v-8.09c4.5,4.93,8.91,10.19,13.55,15.05" fill="#fff"/>
          </g>
        </g>
        <g opacity=".07">
          <g clip-path="url(#clippath-7)">
            <path d="M182.5,122.07c-1.85,9.01-4.43,32.44-5.73,40.51h-4.09c1.83-9.98,4.29-35.9,6.7-48.2,3.49-17.79,10.46-20.63,7.53-44.18-1.49-11.95-12.02-33.82-20.5-36.36-10.97-3.27-25.45,15.38-40.41,19.6v-6.01c17.44-5.77,35.06-35.29,53.95-7.94,21.2,30.69,9.08,50.84,2.55,82.59" fill="#fff"/>
          </g>
        </g>
        <g opacity=".07">
          <g clip-path="url(#clippath-8)">
            <path d="M225.54,83.77v34.95c-2.95-16.98-2.82-36.68-8.55-54.23-3.43-10.5-21.8-48.61-27.4-56.09-6.41-8.54-15.1-12.02-22.88-17.1h10.71c20.14,17.22,42.67,61.17,48.12,92.47" fill="#fff"/>
          </g>
        </g>
        <g opacity=".07">
          <g clip-path="url(#clippath-9)">
            <path d="M236.07,44.4c-5.3-11.49-24.54-39.17-26.59-53.1h2.23c1.62,11.66,19.54,38.58,24.36,48.42" fill="#fff"/>
          </g>
        </g>
        <g opacity=".07">
          <g clip-path="url(#clippath-10)">
            <path d="M262.04,299.06h-6.64c5.81,4.02,10.99,7.59,14.46,9.42v-4.63c-2.35-1.28-4.99-2.93-7.82-4.79M209.64,327.79c-.02-8.95.65-20.52,2.03-28.73h-3.29c-1.01,8.27-1.45,20.34-1.57,28.73" fill="#fff"/>
          </g>
        </g>
        <g opacity=".07">
          <g clip-path="url(#clippath-11)">
            <path d="M126,83.89v5.64c28.85-1.55,32.45,54.08,13.12,73.05h5.52c16.35-23.26,10.76-79.98-18.64-78.68" fill="#fff"/>
          </g>
        </g>
        <g opacity=".07">
          <g clip-path="url(#clippath-12)">
            <path d="M.42,357.5c.84.64,1.68,1.27,2.52,1.87H.42v-1.87Z" fill="#fff"/>
          </g>
        </g>
      </g>
      <text transform="translate(153.1 318.76)" fill="#fff" font-family="FuturaPT-BoldObl, &apos;Futura PT&apos;" font-size="15" font-style="oblique" font-weight="700"><tspan x="0" y="0" letter-spacing="0em">1</tspan><tspan x="8.86" y="0" letter-spacing="-.02em"> </tspan><tspan x="12.06" y="0" letter-spacing="-.06em">P</tspan><tspan x="19.8" y="0" letter-spacing="-.05em">A</tspan><tspan x="29.47" y="0" letter-spacing="0em">T</tspan><tspan x="36.31" y="0" letter-spacing="0em">C</tspan><tspan x="45.27" y="0">H</tspan></text>
      <g clip-path="url(#clippath-13)">
        <path d="M325.01,34.03c.02,2.2,2.78,279.05,2.79,281.05,0,0-.62.62-.62.62l-13.29,13.28-.62-.4,8.12-16.61-.61,1.86c1.24-.58.34-282.23,4.22-279.8" fill="#fff"/>
        <path d="M35.18,328.96c-.02-2.2-2.78-279.05-2.8-281.05,0,0,.62-.62.62-.62l13.29-13.28.62.4-8.12,16.61.6-1.86c-1.24.58-.34,282.23-4.22,279.8" fill="#fff"/>
        <path d="M117.06,133.2v-27.09h8.45v1.01c0,.54-.08,1.17-.23,1.6l-.04.12.27.08c.51-.86,1.21-1.63,1.87-2.14.82-.58,2.02-1.17,3.7-1.17,2.1,0,3.93.82,5.18,2.06,1.79,1.79,2.65,4.71,2.65,7.43,0,3.81-1.6,6.19-2.84,7.51-1.4,1.48-2.92,2.18-4.83,2.18-1.17,0-2.41-.27-3.58-1.05-.66-.47-1.36-1.09-1.87-1.95h-.27c.35,1.4.43,2.34.43,3.54v7.86h-8.87ZM126.29,117.48c.43.47.93.58,1.52.58.62,0,1.13-.2,1.56-.58.58-.54.89-1.36.89-2.18s-.35-1.63-.86-2.14c-.31-.31-.85-.66-1.63-.66-.58,0-1.09.23-1.44.54-.58.54-.82,1.56-.82,2.26,0,.93.27,1.67.78,2.18" fill="#fff"/>
        <path d="M141.47,106.18h8.83v9.85c0,.47.04,1.05.43,1.44.31.35.7.39,1.05.39s.74-.04,1.09-.39c.43-.43.47-.93.47-1.44v-9.85h8.84v10.47c0,1.32-.31,3.31-2.1,5.18-1.71,1.79-4.55,3.04-8.29,3.04s-6.5-1.25-8.17-2.92c-1.28-1.28-2.14-2.96-2.14-5.02v-10.74Z" fill="#fff"/>
      </g>
      <rect x="165.52" y="94.7" width="8.84" height="31.92" fill="#fff"/>
      <g clip-path="url(#clippath-14)">
        <path d="M191.36,112.26c-.62-.47-1.13-.74-1.83-1.05-.7-.31-1.4-.54-2.26-.54-.31,0-.7.08-.97.27-.2.15-.35.43-.35.7,0,.31.16.47.27.58.23.19.58.19,1.05.31l1.79.39c1.21.27,2.57.66,3.58,1.71.58.62,1.28,1.71,1.28,3.39,0,1.83-.7,3.31-1.83,4.4-2.1,2.06-4.83,2.38-6.89,2.38-3.35,0-5.68-.86-7.2-1.48l-1.28-.54,2.26-5.53,1.25.78c1.17.74,2.57,1.25,3.62,1.25.35,0,.85-.08,1.21-.31.27-.19.35-.39.35-.7,0-.35-.12-.54-.35-.74-.23-.16-.58-.27-1.24-.39l-1.29-.19c-.93-.16-2.18-.47-3.23-1.52-1.05-1.01-1.4-2.18-1.4-3.46,0-2.06.89-3.54,2.57-4.67,2.06-1.44,4.32-1.67,6.19-1.67,1.99,0,4.28.35,6.85,1.56l-2.14,5.1Z" fill="#fff"/>
        <path d="M208.95,108.18c-.27-.7-.31-1.25-.31-1.56v-.51h8.76v18.18h-8.72l.04-.62c.04-.51.2-1.21.35-1.67h-.27c-2.06,2.57-4.32,2.8-5.45,2.8-1.83,0-3.58-.54-5.14-2.14-1.56-1.6-2.72-4.05-2.72-7.36s1.13-5.8,2.84-7.51c1.36-1.36,3.07-2.18,5.37-2.18,1.13,0,3.23.23,5.06,2.69l.2-.12ZM205.06,117.09c.43.43.93.62,1.52.62.54,0,1.05-.16,1.52-.58.5-.51.86-1.21.86-2.02s-.35-1.52-.78-1.91c-.39-.35-.9-.58-1.52-.58-.58,0-1.17.2-1.59.62s-.78,1.09-.78,1.95.35,1.48.78,1.91" fill="#fff"/>
        <path d="M220.74,124.26v-18.18h8.91v1.13c0,.43-.08.82-.23,1.21h.16c.58-1.05,1.44-1.79,2.22-2.22,1.71-.93,4.16-.82,4.28-.82v9.23c-1.17-.74-2.06-1.01-2.99-1.01-1.01,0-1.83.35-2.41.86-.93.82-1.09,1.79-1.09,2.69v7.12h-8.83Z" fill="#fff"/>
        <path d="M245.38,124.63c-1.01,1.01-2.57,1.48-3.93,1.48s-2.88-.47-3.89-1.48c-.78-.78-1.21-1.91-1.21-2.88s.43-2.06,1.21-2.84c1.01-1.01,2.57-1.48,3.89-1.48s2.92.47,3.93,1.48c.78.78,1.21,1.91,1.21,2.84s-.43,2.1-1.21,2.88" fill="#fff"/>
        <path d="M154.3,137.23h4.46c1.52,0,2.88.2,3.88,1.18,1,.98,1.12,2.18,1.12,3.06,0,.96-.14,2.16-1.04,3.14-.92,1-2.52,1.54-4.64,1.54h-1.5l-.54,4.42h-3.38l1.64-13.34ZM157.34,140.03l-.4,3.32h1.06c.48,0,1.36-.04,1.88-.56.38-.38.42-.88.42-1.18,0-.58-.18-.94-.38-1.14-.44-.46-1.16-.44-1.64-.44h-.94Z" fill="#fff"/>
        <path d="M166.6,148.34l-1.02,2.24h-3.76l6.62-13.34h3.8l3.22,13.34h-3.54l-.56-2.24h-4.76ZM167.84,145.69h2.88l-.56-2.54c-.22-1.02-.24-1.14-.3-1.54-.02-.1-.06-.26-.08-.48-.22.7-.4,1.12-.6,1.58l-1.34,2.98Z" fill="#fff"/>
      </g>
      <polygon points="182.08 140.17 180.78 150.58 177.42 150.58 178.7 140.17 175.86 140.17 176.22 137.23 185.28 137.23 184.92 140.17 182.08 140.17" fill="#fff"/>
      <g clip-path="url(#clippath-15)">
        <path d="M196.42,138.06l-.4,3.3c-.98-.82-2.04-1.22-3.26-1.22-2.46,0-4.2,1.62-4.2,3.88,0,2.14,1.52,3.58,3.74,3.58,1.04,0,2.02-.26,3.06-.84l-.42,3.4c-1.46.52-2.12.64-3.14.64-3.94,0-6.7-2.74-6.7-6.62s3.2-7.24,7.28-7.24c1.44,0,2.62.32,4.04,1.12" fill="#fff"/>
      </g>
      <polygon points="210.2 137.23 208.56 150.58 205.18 150.58 205.84 145.12 200.94 145.12 200.26 150.58 196.88 150.58 198.52 137.23 201.9 137.23 201.3 142.17 206.2 142.17 206.82 137.23 210.2 137.23" fill="#fff"/>
      <text transform="translate(127.69 243.26)" fill="#fff" font-family="FuturaPT-Demi, &apos;Futura PT&apos;" font-size="20" font-weight="300"><tspan x="0" y="0" letter-spacing="0em">HANG</tspan><tspan x="57.44" y="0" letter-spacing="-.03em">O</tspan><tspan x="72.84" y="0" letter-spacing="0em">VE</tspan><tspan x="95.28" y="0">R </tspan></text>
      <text transform="translate(112.38 263.26)" fill="#fff" font-family="FuturaPT-Demi, &apos;Futura PT&apos;" font-size="20" font-weight="300"><tspan x="0" y="0" letter-spacing="0em">DEFEN</tspan><tspan x="57.22" y="0" letter-spacing="0em">S</tspan><tspan x="67.7" y="0" letter-spacing="0em">E</tspan><tspan x="77.44" y="0" letter-spacing="-.02em"> </tspan><tspan x="81.7" y="0" letter-spacing="-.07em">P</tspan><tspan x="91" y="0" letter-spacing="-.04em">A</tspan><tspan x="103.58" y="0" letter-spacing="-.04em">T</tspan><tspan x="111.66" y="0" letter-spacing="0em">C</tspan><tspan x="123.56" y="0" letter-spacing="0em">H</tspan></text>
    </g>
  </g>
</svg>