<?xml version="1.0" encoding="UTF-8"?>
<svg id="Layer_1" xmlns="http://www.w3.org/2000/svg" version="1.1" viewBox="0 0 800 800">
  <!-- Generator: Adobe Illustrator 30.3.0, SVG Export Plug-In . SVG Version: 2.1.3 Build 182)  -->
  <g id="Icon_Enjoy">
    <g id="Group_135">
      <g id="Group_133">
        <path id="Path_197" d="M598.84,135.32c-4.4-3.62-9.01-7.1-13.67-10.32-26.77-19.03-56.24-33.93-87.43-44.22-3.48-1.3-7.1-2.34-10.58-3.35-30.35-8.95-61.83-13.47-93.48-13.42-25.01-.06-49.93,2.79-74.28,8.51-3.88.77-7.6,1.67-11.35,2.71-30.23,8.02-59.15,20.35-85.87,36.61-5.29,3.24-10.45,6.46-15.47,9.94-17.61,12.07-33.98,25.84-48.87,41.13-4.52,4.52-8.9,9.15-13.16,14.07-22.36,25.38-40.63,54.09-54.15,85.1v.26c-5.34,20.37-11.92,40.4-19.73,59.96-5.47,23.85-8.2,48.24-8.14,72.71-.04,28.02,3.51,55.94,10.58,83.05,1.81,7.21,3.85,14.3,6.19,21.27,8.02,24.17,18.83,47.33,32.22,68.99,4.25,7.1,8.9,13.93,13.67,20.5,45.23,62.56,110.85,107.38,185.57,126.77h.13c11.62,3.02,23.41,5.35,35.31,6.97,15.68,2.33,31.5,3.5,47.35,3.48,45.72.06,90.95-9.43,132.8-27.86,5.8-2.45,11.62-5.16,17.28-8.14,29.08-14.74,55.77-33.78,79.17-56.47,5.38-4.93,10.5-10.14,15.34-15.6,123.14-135,113.53-344.26-21.47-467.4-5.81-5.3-11.8-10.38-17.97-15.25ZM455.83,313.98c.17-7.98.85-15.93,2.05-23.82,4.28-28.05,14.62-47.83,26.64-47.83,8.32,0,15.82,9.46,21.04,24.57,2.51,7.38,4.35,14.97,5.5,22.68,1.48,9.81,2.22,19.72,2.2,29.64,0,42.46-12.89,76.89-28.77,76.89s-28.77-34.43-28.77-76.89c.02-1.76.04-3.51.1-5.24ZM270.15,279.2c1.5-7.41,3.85-14.63,6.99-21.51,4.87-10.34,11.09-16.54,17.81-16.54,10.08,0,18.96,13.91,24.06,34.93,1.89,7.82,3.18,15.78,3.85,23.79.53,5.82.82,11.91.82,18.16,0,42.46-12.88,76.89-28.74,76.89s-28.77-34.43-28.77-76.89c-.08-13.05,1.25-26.07,3.96-38.84ZM635.73,413.7c-2.17,32.15-10.8,63.54-25.36,92.28-3.48,6.89-7.28,13.58-11.38,20.07-45.29,71.66-124.19,115.07-208.97,114.96-4.84,0-9.65-.13-14.45-.42-88.18-5-166.94-56.79-206.48-135.76-4.26-8.49-8-17.24-11.19-26.19-7.53-20.9-12.11-42.75-13.61-64.92-.52-8.64,6.05-16.06,14.69-16.59.32-.02.65-.03.97-.03,8.22,0,15.02,6.39,15.55,14.6,1.98,29.13,10.05,57.51,23.69,83.32,9.29,17.67,21.03,33.94,34.87,48.33,9.17,7.47,18.05,15.45,26.77,23.66,95.84,71.3,231.33,51.4,302.63-44.45,4.78-6.43,9.2-13.11,13.24-20.03,16.09-27.76,25.61-58.84,27.84-90.84.57-8.61,8.01-15.13,16.62-14.55,8.17.54,14.54,7.31,14.59,15.5,0,.35,0,.72-.03,1.06h.01Z" fill="#fff"/>
        <path id="Path_198" d="M90.53,262.34c-5.34,20.37-11.92,40.39-19.73,59.95,4.49-20.61,11.1-40.7,19.73-59.95Z" fill="#fff"/>
        <path id="Path_199" d="M260.84,567c-9.56-7.14-18.51-15.05-26.77-23.66,9.17,7.47,18.05,15.45,26.77,23.66Z" fill="#fff"/>
      </g>
      <g id="Group_134" opacity=".05">
        <path id="Path_200" d="M90.53,262.34c-5.34,20.37-11.92,40.39-19.73,59.95,4.49-20.61,11.1-40.7,19.73-59.95Z" fill="#dc65a4"/>
      </g>
    </g>
    <g id="Group_136">
      <path id="Path_201" d="M323.69,318.04c0,42.46-12.88,76.89-28.74,76.89s-28.77-34.43-28.77-76.89c-.08-13.05,1.25-26.08,3.96-38.85,1.5-7.41,3.85-14.63,6.99-21.51,4.87-10.34,11.09-16.54,17.81-16.54,10.08,0,18.96,13.91,24.06,34.93,1.89,7.82,3.19,15.78,3.87,23.8.53,5.82.82,11.91.82,18.16h-.01Z" fill="#1fc0de"/>
      <path id="Path_202" d="M513.28,319.21c0,42.46-12.89,76.89-28.77,76.89s-28.77-34.43-28.77-76.89c0-1.76.03-3.51.08-5.24.17-7.98.85-15.93,2.05-23.82,4.28-28.05,14.62-47.83,26.64-47.83,8.32,0,15.82,9.46,21.04,24.57,2.51,7.38,4.35,14.97,5.5,22.68,1.49,9.81,2.23,19.72,2.22,29.64Z" fill="#1fc0de"/>
      <path id="Path_203" d="M635.76,412.64c0,.35,0,.72-.03,1.06-2.17,32.15-10.8,63.54-25.36,92.28-3.48,6.89-7.28,13.58-11.38,20.07-45.29,71.66-124.19,115.07-208.97,114.96-4.84,0-9.65-.13-14.45-.42-88.18-5-166.95-56.79-206.49-135.77-4.26-8.49-8-17.24-11.19-26.19-7.52-20.91-12.1-42.76-13.59-64.93-.52-8.64,6.05-16.06,14.69-16.59.32-.02.65-.03.97-.03,8.22,0,15.02,6.39,15.55,14.6,1.98,29.13,10.05,57.51,23.69,83.32,9.29,17.67,21.03,33.94,34.87,48.33,8.26,8.61,17.21,16.52,26.77,23.66,95.84,71.3,231.33,51.4,302.63-44.45,4.78-6.43,9.2-13.11,13.24-20.03,16.09-27.76,25.61-58.84,27.84-90.84.57-8.61,8.01-15.13,16.62-14.55,8.17.54,14.54,7.31,14.59,15.5v.02Z" fill="#1fc0de"/>
    </g>
  </g>
</svg>