<?xml version="1.0" encoding="UTF-8"?>
<svg id="Layer_1" xmlns="http://www.w3.org/2000/svg" version="1.1" viewBox="0 0 1922.59 404.42">
  <!-- Generator: Adobe Illustrator 30.3.0, SVG Export Plug-In . SVG Version: 2.1.3 Build 182)  -->
  <path d="M437.33,3.34c.85.43.88,1.38,1.01,2.25.46,4.18,1.55,14.46,2.02,18.83,2.62,17.01-1.59,33.39-3.3,49.56-2.01,31.44,34.27,51.91,62.54,49.47,15.06.4,31.19.09,45.24.88,16.32,1.93,32.91,7.42,48.71,11.24,14.68,4.94,40.58,10.23,54.08,20.64,18.99,13.24,25.89,38.76,25.01,61.41.24,15.68.23,36.58.75,51.14,2.03,24.82,7.92,48.83,16.97,71.92,7.39,19.87,14.71,40.13,26.4,58.02,3.46,4.53-.59,4.2-4.61,4.14-2.34-.14-6.12.79-6.92-1.83-11.42-22.31-21.83-47.68-29.17-72.69-5.33-16.48-10.52-32.76-11.47-50.1-.46-15.89-.64-38.9-.91-55.59.33-19.88-4.41-44.17-22.14-55.88-40.76-16.42-80.59-25.7-125.15-30.13-9.23-1.24-21.09-.63-31.36-1.02-2.53-.03-2.74-.08-5.31-1.26-3.34-1.53-10.42-4.77-14.59-6.69-25.56-10.5-41.73-31.63-37.5-60.28,1.03-10.53,3.33-24.67,3.96-34.52-.47-8-1.49-17.07-2.38-25.04-1.17-5.07,4.11-5.47,8.03-4.52l.1.05Z" fill="#fff"/>
  <path d="M355.29,4c.93.94,1.15,2.4,1.44,3.69,1.62,7.45,1.23,16.04-.65,23.49-1.53,6.57-3.88,17.19-5.35,23.54-6.41,26.64-15.62,52.78-21.04,80.19-2.96,15.98-6.65,33.04-2.07,49.21,4.59,18.52,19.82,25.15,37.48,24.29,26.84-2.01,51.74-17.6,79.71-9.67,25.99,7.66,43.74,30.84,61.34,50.16,12.16,14.21,25.34,27.2,40.4,38.27,4.87,3.63,20.94,15.62,28.73,21.42,21.6,16.24,40.8,45.4,51.08,70.57,2.52,6.32,7.61,18.01,9.25,22.5.13.53,0,.82-.5.97-.68.15-1.43.17-2.18.16-2.68-.24-5.71.44-7.9-.97-1.2-.96-1.39-2.34-1.9-4-2.44-8.55-6.42-16.98-10.55-24.79-13.49-27.96-34.03-51.14-59.4-69.11-16.81-12.56-35.13-25.09-49.43-40.69-5.09-5.6-16.1-17.72-22.6-24.87-7.22-8.09-14.59-15.37-23.71-21.36-29.04-20.77-61.02,2.67-96.21,2.64-7.94-.03-16.62-.91-23.36-4.89-7.89-4.77-14.11-12.56-16.85-21.33-2.49-10.34-3.81-21.28-3.1-31.86.7-13.05,2.98-27.08,4.96-39.83.51-3.15.68-4.67,1.34-7.55,1.58-6.88,3.67-18.37,5.52-25.83,2.85-10.81,7.06-23.63,10.56-33.74,2-6.42,3.93-14.33,5.74-20.95,1.91-6.03,2.17-12.86,1.18-19.1-.52-2.95-2.06-5.82-3.23-8.56-.72-1.58-.95-2.87.86-2.98,1.54-.15,4.52-.08,6.74-.07,1.25.01,2.65.16,3.58.95l.1.09Z" fill="#fff"/>
  <path d="M405.73,3.92c2.05,1.83,1.5,5.08,1.6,7.64-.2,7.48.14,16.89-.74,24.57-2.33,30.61-36.9,85.38-21.78,111.95,5.58,7.21,16.79,5.32,24.76,4.93,5.85-.36,12.25-.16,18.18-.25,3.17-.01,4.97-.02,7.83.45,23.49,5.56,42.63,21.51,59.3,38.21,6.64,6.47,19.24,18.74,25.97,25.29,5.06,4.99,9.77,9.66,16.36,13.18,7.39,4.07,15.99,5.72,24.27,4.24,6.94-1.19,16.77-3.54,23.61-4.43,14.55-1.8,27.17,4.63,35.42,17.01,8.93,14.21,15.11,29.53,20.53,45.36,6.93,19.5,14.04,43.56,20.37,63.17,4.96,15.61,9.16,30.79,17.16,45.32.38.96.27,1.62-.55,1.92-1.05.44-3.61.32-5.8.34-1.34,0-2.81-.09-3.99-.67-1.44-.72-2.15-2.23-2.85-3.67-5.38-11.21-8.77-22.9-12.13-34.75-8.81-27.16-28.88-124.63-63.67-121.23-6.16.75-12.1,3.55-18.27,4.44-23.65,5.9-45.1-10.58-62.1-26.91-28.28-26.83-55.59-60.5-98.71-55.16-5,.53-10.11.94-15.11.45-18.38-1.64-23.85-13.44-23.43-30.57-.61-17.98,5.43-34.83,11.3-51.35,3.32-9.28,8.25-22.97,10.26-29.39,1-4.74,2.53-11.6,3.62-16.75,2.55-9.6,2.43-20.1,1.48-29.56-.07-1.26-.26-2.62.56-3.62,1.14-1.37,4.77-1.45,6.43-.27l.12.09Z" fill="#fff"/>
  <path d="M1449.6,3.27c.6.31.79.81.94,1.48.95,4.94,3.8,19.46,5.17,26.63,2.98,14.55,6.39,35.77,8.17,49.66,1.82,15.04,3.89,29.94,4.05,44.49-.19,15.8.54,32.27-.74,47.45-.91,10.77-2.89,23.73-4.1,34.63-.55,5.43-2.3,11.17-3.42,16.88-11.5,52.73-34.33,104.36-84.98,131.09-17.03,9.08-41.18,16.43-55.5.05-8.16-9.59-11.56-23-11.86-35.52.19-13.8,6.1-27.14,13.43-38.52,6.38-8.95,19.56-25.06,24.84-32.01,1.45-1.8,2.04-3.94,2.69-6.25,3.15-9.83,2.46-20.31,3.59-30.49.38-4.63-.64-8.21-.63-12.56-.25-6.31-.16-11.92-1.06-18.02-3.11-23.72-5.28-47.45-14.38-69.64-5.14-11.43-9.95-22.1-17.03-32.39-1.18-1.85-1.73-3.85,1.32-1.72,2.98,2.33,5.76,5.23,8.82,7.6,14.06,12.19,15.35,32.42,20.14,49.16,2.13,9.05,4.52,20.36,6.48,29.19.76,3.31.98,4.33,1.53,8.07,1.59,10.33,3.34,22.02,3.36,32.61.59,20.2-7.92,36.39-16.38,54.07-5.6,10.7-13.83,21.41-19.23,31.72-2.41,5.09-6.32,11.72-7.89,16.66-1.1,3.56-1.8,7.37-1.99,11.12-1.16,22.45,14.49,46.31,39.5,36.12,20.67-5.98,37.23-19.4,52.22-34.48,9.81-9.69,17.35-21.12,23.58-33.42,9.25-18.78,17.87-37.67,22.1-58.27,1.81-9.12,4.56-18.35,5.4-25.96,1.18-11.12,3.27-23.02,3.17-34.21-.11-13.27.41-27.12-1.05-39.9-.63-6.38-1.68-16.56-2.27-22.53-1.84-13.37-5-31.47-6.89-42.51-2.76-14.94-5.89-30.51-8.96-45.34-.68-3.63-1.09-5.01-1.87-8.37-.31-1.93-1.41-4.14-.85-6,.36-.66,1.2-.79,1.95-.86,2.53.04,6.01-.38,8.54.23l.09.04Z" fill="#fff"/>
  <path d="M734.11,3.92c9.21,10.59,6.46,58.92,7.72,76.19,2.01,45.42,35.86,87.91,76.59,105.99,13.44,5.82,27.49,10.86,41.65,14.57,11.1,3.21,24.46,7.22,34.94,10.39,13.13,4.34,26.14,9.28,36.54,18.54,35.09,31.11,51.48,79.4,48.71,125.66.87,9.11-5.59,44.32-13.65,47.37-4.65.94-10.4.81-6.65-5.07,3.98-7.85,6.25-15.61,8.58-23.8,10.41-44.92-8.4-108.85-46.2-136.63-11.86-7.48-24.49-12.2-37.78-15.91-16.8-4.67-35.01-7.49-50.93-14.27-54.15-24.03-104.28-76.31-102.07-138.64-.11-8.56-.3-23.33-.39-30.59,0-6.09-.8-12.1-2.76-18.08-1.35-5.13-4.02-11.78-4.58-15.78.66-1.46,2.86-.73,4.4-.95,1.84-.06,4.33-.03,5.76.91l.12.09Z" fill="#fff"/>
  <path d="M1718.13,3.93c.98,1.81-1.4,5.38-2.24,7.52-2.13,4.57-3.99,8.05-5.56,12.67-8.44,20.72-12.64,41.47-5.73,63.04,4.03,16.45,13.28,25.97,29.6,30.93,8.88,2.6,18.58,5.1,27.99,6.54,40.58,4.43,84.62,23.62,99.37,64,8.97,25.34,7.58,53.7,3.27,79.83-1.64,9.45-5.35,20.96-7.92,31.39-7.44,23.11-22.45,54.88-19.26,80.83.65,5.44,1.67,13.93,2.26,18.95.07.64.09,1.25-.04,1.81-.26,1.26-1.61,1.54-3.48,1.57-2.18-.03-4.16-.11-4.54-2.84-.82-4.55-2.25-13.35-3.16-18.75-.81-4.47-.25-9.18,0-13.75.6-13.99,4.56-27.03,8.74-40.31,4.22-13.85,8.86-27.2,12.93-41.2,2.37-8.45,4.02-20.73,5.94-29.49,2.58-16.74,3.54-35.05.34-51.6-2.46-12.44-7.36-24-15.58-33.62-18.52-20.5-46.22-29.99-73.2-35.02-6.37-1.13-12.67-1.85-19.08-2.44-17.18-1.65-35.49-6.86-45.47-21.93-9.32-13.81-12.16-30.06-11.73-46.63-.35-10.93.6-21.67,4.45-32,2.3-6.56,5.17-13.06,7.63-19.57,1.81-3.92,2.93-10.66,8.41-10.84,1.76-.19,4.7-.34,5.97.83l.07.09Z" fill="#fff"/>
  <path d="M1757.87,3.97c.49.84-.17,2.41-.48,3.49-3.09,9.48-5.44,19.51-4.94,29.65,1.85,26.08,22.78,48.41,43.5,61.41,8.16,4.79,18.01,10.03,26.12,14.58,14.6,7.99,29.66,15.99,41.09,28.36,19.58,20.61,23.71,47.23,25.88,74.37,1.25,17.31,2.16,35.59,2.61,52.82.36,10.54.54,20.77,1.36,30.61.89,13.19,1.57,28.78,2.23,41.72,1.03,18.64,3.42,40.24,5.52,58.33.18,2.11.61,3.07-.74,3.34-1.16.2-2.41.18-3.62.19-.92.01-1.85,0-2.73-.08-1.68-.16-1.72-.81-1.9-2.52-1.23-11.58-3.62-29.6-4.29-42.33-1.39-18.29-2-36.71-2.55-54.88-.68-16.74-2.5-31.78-2.86-48.73-.12-13.75-1.45-27.47-2.47-41.18-.88-11.68-2.04-23.33-6.47-34.1-5.03-14.26-12.89-27.88-25.13-37.09-2.7-2.08-4.48-3.29-7.66-5.38-4.81-3.06-10.22-7.05-14.99-9.77-5.78-3.06-19.22-10.56-26.72-14.59-7.75-4.25-15.48-8.61-22.12-14.4-2.93-2.57-5.99-5.67-9.37-9.02-2.8-2.84-5.59-5.18-7.79-8.4-12.33-15.26-18.87-35.53-15.41-54.53.76-6.01,1.39-12.12,3.57-17.88.49-1.47.96-3.24,2.11-4.11,1.31-1.28,7.36-1.26,8.2.01l.06.09Z" fill="#fff"/>
  <path d="M804.81,3.67c.51.48.62,1.62.64,2.47.03,1.81-.01,4.03-.03,5.79,0,7.89-2.37,15.65-5.53,22.83-4.08,9.92-8.92,19.85-12.51,29.73-9.54,27.44,4.54,49.45,24.4,69.1,25.81,25.32,68.02,44.58,102.83,32.25,1.64-1.07,2.52-2.95,2.96-5.14,1.43-6.87,1.68-13.7.65-20.51-.95-6.19-3.03-13.49-4.32-19.44-3.79-17.69-12.08-33.61-20.07-49.78-8.63-17.77-18.08-35-24.32-53.79-.96-3.47-2.58-9.03-3.3-11.84-1.18-3.51,4.91-2.41,6.13-1.43.68.52.97,1.3,1.27,2.08,3.67,9.73,10.62,23.92,18.39,40.06,12.52,28.18,58.94,113.2,23.34,132.04-12.85,6.68-27.51,4.28-41.07,1.07-50.25-11.9-108.08-54.66-97.33-112.04,2.34-12.12,9.46-23,13.99-34.46,3.01-7.15,4.82-14.92,5.4-22.81.47-2.06-1.14-5.88,1.32-6.62,1.2-.38,3.53-.33,5.14-.25.68.05,1.44.16,1.94.6l.09.08Z" fill="#fff"/>
  <path d="M1486.54,3.53c.69.41,1.09,1.15,1.52,2.25.91,2.45,1.88,5.22,2.77,7.69,5.84,14.77,14.17,34.44,20.35,49.55,5.25,12.1,8.83,22.73,12.68,34.63,1.27,3.88,2.06,8.05,3.09,12.11.85,3.72,1.48,5.73,2.03,9.63.96,6.63,2.54,14.64,3.21,20.86.57,7.19-.45,16.18-2.24,23.12-2.86,9.63-7.78,19.52-10.96,28.8-1.74,4.89-4.74,13.24-6.29,17.61-.84,2.25-1.14,3.19-1.53,5.24-1.9,10.39-5.41,25.44-7.08,36.8-2.02,16.94-3.12,34.95-4.41,52.11-2.04,25.72-6.38,53.73-25.94,72.38-4.56,4.24-8.98,9.12-12.88,12.4-6.03,4.16-11.61,9.05-18.01,12.51-1.8.97-3.41,1.25-5.38,1.25-4.98-.03-17.3.28-23.2-.07-.31-.22,1.35-.85,3.53-1.73,56.58-22.44,72.32-58.41,74.92-115.42.65-9.81,1.01-20.56,1.94-30.41.62-5.52,1.84-13.61,2.53-18.92,2.24-17.69,6.62-34.95,13.2-51.5,9.59-22.09,16.51-35.6,9.94-60.34-2.12-8.79-4.4-19.84-6.61-28.19-1.74-5.3-5.17-16.32-7.36-22.78-2.92-7.78-6.29-16.78-9.57-24.64-5.04-12.54-13.49-32.5-17.73-42.87-.27-.75-.55-1.16-.67-1.81-.08-.51.45-.66.9-.71,1.6,0,5.17-.49,7.13.38l.12.07Z" fill="#fff"/>
  <path d="M141.21,3.53c1.41,1.55,1.07,4.54,1.52,6.66.61,4.18.87,7.54.74,11.41-.09,12.44.07,30.09-.18,43-.5,15.07-3.49,29.73-5.95,44.62-3.7,20.2-8.11,55.92-10.09,72.68-.24,10.34-.35,25.28-.11,34.25.78,9.74,3.55,21.78,6.74,30.98,8.25,19.47,21.31,37.45,30.29,56.75,3.34,7.6,6.61,15.71,9.55,23.3,5.14,13.85,10.24,28.35,15.97,42.03,4.48,10.38,10.36,19.99,16.33,29.62.62,1.06,2.07,3.08,1.04,3.64-3.22.79-7.6.13-11.03.2-2.61-.08-2.72-.4-3.79-1.94-4.68-7.54-11.21-22.4-15.37-32.64-9.94-25.56-19.42-55.55-30.31-80.65-2.7-5.79-6.37-11.19-10.23-16.33-11.85-15.59-16.24-34.14-18.62-53.27-5.45-47.87,11.16-97.22,15.37-144.11,2.07-15.32,1.47-37.95,1.27-51.31-.21-6.08-2.23-12.31-2.05-18.48,1.22-1.74,4.01-.73,6.38-.99.83.01,1.75.09,2.42.52l.1.07Z" fill="#fff"/>
  <path d="M178.49,3.85c.69.64.96,1.6,1.17,2.57,1.47,7.31,2.19,15.3,2.02,22.77-.09,10.91.16,22.04-.7,32.57-1.37,10.72-5.02,32.13-7.67,46.02-8.4,39.06-23.67,80.61-12.93,121.09,3.01,8.69,7.39,17.85,11.46,26.23,6.61,13.41,10.33,27.14,13.57,41.65,7.81,36.25,16.25,72.27,40.3,101.63.8.97,2.16,2.8,1.86,3.62-.46,1.06-1.6.95-2.97,1.11-7.35.57-9.4-2.97-13.07-8.37-10.47-14.25-18.98-26.63-23.34-44.53-2.55-10.5-5.5-23.17-8.02-34-2.2-9.8-3.96-19.77-7.49-29.26-4.91-12.55-12.07-30.19-17.23-43.1-5.53-13.11-8.16-27.3-8.31-41.61-.51-21.01,4.68-41.94,9.65-62.1,5.15-19.26,9.84-38.49,13.74-57.95,1.16-6.56,1.15-13.77,1.69-20.47,1-12.79-.16-25.59-.92-38.4-.49-5.8-2.61-13.61-3.18-18.91-.02-1.58,1.88-1.41,3.03-1.48,2.56.16,5.3-.48,7.25.85l.1.09Z" fill="#fff"/>
  <path d="M115.16,3.46c.62.44.82,1.29,1.01,2.61.33,2.55.68,5.37,1.01,7.96,1.83,13.78,1.3,21.51,1.2,38.08.11,17.2-.94,33.88-3.33,50.85-1.23,10.32-2.34,25.71-3.78,37.63-2.49,17.29-4.27,35.93-5.54,53.57-.65,8.88-1.41,18.16-1.97,27.07.04,7.69,1.48,15.08,2.16,22.64.9,9.97,5.86,20.21,12.55,27.62,5.08,6.24,14.75,18.28,20.65,25.53,3.91,5.02,7.37,11.24,10.23,17.12,8.55,18.12,14.94,37.4,21.94,56.12,3.53,9.93,7.65,19.78,13.16,28.82.6,1.09,1.75,2.71.54,3.39-1.17.61-4.79.69-6.79.3-1.78-.32-2.97-1.61-3.79-3.16-5.67-10.15-9.44-21.28-13.24-32.28-11.07-33.15-22.89-62.19-47.68-87.65-10.98-12.63-16.08-28.36-16.95-45.05-1.9-21.82-.3-43.68,1.96-65.26,2.81-23.9,5.28-46.61,7.92-70.62,1.45-12.72,2.32-22.42,2.38-34.89.04-6.68.78-12.66.97-19.25.15-6.34-.67-12.26-.92-18.63-.15-7.08-.97-14.26-2.36-21.15,0-.65.32-1.17.91-1.45,1.12-.59,3.82-.5,5.65-.44.69.02,1.46.12,2.03.45l.1.06Z" fill="#fff"/>
  <path d="M1816.15,3.51c.98,1.94-.87,5.13-1.44,7.31-7.46,18.99-4.34,38.69,8.18,54.83,16.29,21.68,44.74,24.59,65.94,50.82,14.29,17.16,19.91,42.16,22.2,64.34,1.83,16.89,1.53,34.04,7.55,50.23,1.06,2.85,1.63,4.44,1.39,7.82-.12,9.46-.38,30.88-.47,35.97-.02.33-.07.52-.16.54-.39.04-1.41-2.59-1.81-3.45-6.48-15.01-8.52-29.82-10.45-45.58-2.16-14.99-3.87-31.31-5.51-45.91-.75-7.73-2.87-16-4.27-23.65-1.2-4.83-3.64-10.64-5.43-16.12-1.84-5.73-4.57-11.63-8.43-16.47-17.76-24.7-52.32-27.71-70.94-55.02-4.18-6.66-7.65-15.55-8.87-23.47-.6-3.78-.22-9.19-.32-13.74.12-4.05-.27-8.21.22-12.04,1.22-4.51,2.7-11.83,4.44-16.38.91-1.67,7.38-1.18,8.11-.13l.07.09Z" fill="#fff"/>
  <path d="M472.73,3.92c5.77,27.03,10.95,38.87,38.38,48.89,5.95,2.11,15.12,4.21,21.06,5.93,9.28,2.72,18.37,3.79,27.94,4.71,37,3.49,69.33-25.87,80.66-58.99,1.68-2.02,5.96-1.74,7.81-.95,3.35,1.82-3.27,14.22-4.25,17.43-5.08,12.3-13.3,22.38-22.64,31.7-23.03,24.02-53.52,27.61-85.23,19.52-19.84-4.74-43.51-8.94-57.78-25.25-7-8.24-9.94-18.65-11.83-29.15-.62-3.08-1.46-6.08-1.96-9.02-.29-2.01-1.01-4.76,1.4-5.46,1.89-.39,4.81-.7,6.35.56l.08.09Z" fill="#fff"/>
  <path d="M1421.45,3.33c.81.44,1.05,1.31,1.24,2.18.62,3.07,1.83,9.6,2.4,12.55,1.84,9.69,6.31,33.74,8.95,48.13,1.28,10.52,5.39,35.24,5.86,48.82,1.49,15.46.86,29.53.87,48.26,1.58,63.64-43.99,93.96-61.55,16.48-4.07-15.45-6.92-39.85-8.53-53.88-.15-11.47-.71-30.87-.31-39.63,3.16-8.8,3.15,5.66,3.91,7.8,1.77,13.18,4.69,47.7,7.28,66.76,2.54,15.36,8.26,30.43,15.01,44.53,3.27,5.45,7.72,13.41,14.86,11.99,11.63-4.94,17.27-17.89,20.32-29.49,7.53-32.44,2.13-67.13-1.16-99.67-2.05-19.64-7.1-45.92-11.1-65.9-.97-4.91-2.82-12.42-3.73-16.96-.88-2.94,3.44-2.68,5.56-2.01l.11.06Z" fill="#fff"/>
  <path d="M1.69,385.04c-1.46-1.32-.77-3.6-.95-6.16.04-1.79.1-3.93,1.7-5.03,8.58-3.67,18.9-3.84,27.75-6.44,3.82-1.26,8.59-3.14,12.52-4.56,2.98-1.08,4.58-1.79,6.86-3.34,17.07-11.24,26.13-34.79,46.04-40.62,8.84-2.58,18.62.69,24.88,7.26,15.15,15.5,20.74,50.54,23.24,71.75.78,4.68-1.43,5.18-5.58,5.05-3.93-.03-4.46-1.46-4.39-5.59-1.26-23.93-3.86-55.98-26.57-65.71-16.34-5.89-24.68,8.52-34.34,18.84-11.32,14.3-25.18,24.85-43.4,28.78-8.12,2.25-16.48,3.64-24.57,5.56-.97.25-2.43.65-3.11.27l-.09-.05Z" fill="#fff"/>
  <path d="M1679.39,3.78c.55.86-.17,2.3-.56,3.33-5.85,14.47-9.55,29.59-10.75,45.35-.6,9.29-.95,19.97-1.34,28.98-.4,10.4-.58,21.17-1.71,31.52-.9,9.99-1.11,20.74-6.41,29.63-11.2,20.36-37.47,25.02-58.6,19.86-18.37-5.08-35.87-19.14-40.22-38.44-.61-2.76-.43-4.4,1.97-1.47,12.32,14.98,26.6,28.43,46.05,32.17,3.58.7,7.09,1.82,10.5,1.42,3.1-.35,6.19-1.01,9.27-1.72,20.92-5.09,30.71-20.12,32.04-41.15.62-20.49-.35-43.26.29-63.38,1.05-10.2,6.19-28.04,10.92-38.64,1-2.23,1.55-4.98,3.16-6.83,1.4-1.39,4.21-1.97,5.32-.71l.07.09Z" fill="#fff"/>
  <path d="M1571.01,3.27c.81.49.58,1.49.47,2.32-.88,6.33-3.1,14.91-3.37,21.42-.06,2.57.19,5.35.42,8.02,1.62,21.15,6.51,46.18,22.14,59.9,6.33,5.63,11.59,6.98,19.38,3.23,3.16-1.33,6.37-2.41,9.42-3.93,2.33-1.09,4.54-2.6,4.93-5.29,1.78-9.09,3.89-19.93,4.78-29.48,1.68-17.75,2.4-36.09,4.77-53.74.09-2.72,2.98-3.26,5.3-2.63,2.68.85,1.44,4.48,1.43,6.6-.4,4.5-.66,9.89-.95,14.72-.8,10.7-1.24,22.07-3.61,32.58-1.28,5.55-3.17,13.97-4.5,19.68-3.15,10.3-8.27,20.53-16.62,27.67-10.41,9.54-22.39,4.55-30.73-4.87-15.02-16.68-22.17-41.59-24.17-64.32-.63-9.63.81-19.08,3.54-28.12.68-3.53,4.65-4.88,7.29-3.82l.09.05Z" fill="#fff"/>
  <path d="M1187.41,3.53c1.3.77,2.31,2.19,3.32,3.42,10.67,13.16,24.05,17.72,39.91,22.75,10.34,3.33,21.98,6.82,32.18,10.32,20.21,7.39,39.96,19.02,53.34,35.16-.19.08-.84-.18-1.88-.67-4.48-2.25-9.61-4.5-13.67-7.37-2.42-1.59-5.26-2.59-7.88-3.79-4.09-1.9-8.69-4.18-12.69-6.33-19.4-10.59-40.09-16.98-61.44-22.61-9.51-3.43-19.47-6.72-27.36-13.39-5.01-4.06-9.27-8.98-12.09-14.41-.45-.95-1.13-2.04-.78-3.01.94-1.66,7.02-1.25,8.89-.15l.15.09Z" fill="#fff"/>
  <path d="M1251.24,2.89c25.03,10.01,50.38,21.77,70.06,29.42,7.28,2.86,13.99,6.13,21.3,9.83,5.56,2.73,10.09,5.08,14.58,9.18,2.01,1.83,4.43,4.44,5.85,6.58,3.28,4.97,3.13,8.18-1.79,5.26-37.84-22.82-80.97-35.59-119.33-57.83-1.23-.79-2.88-1.71-1.64-2.26,2.03-.43,7.88-.23,10.88-.19h.09Z" fill="#fff"/>
  <path d="M1888.33,3.82c5.3,11.11,13.79,22.52,27.44,22.19,1.35.05,3.24-.33,3.98.81.89,1.98.31,4.55.47,7.1.11,3.06-.81,4.35-4.06,4.12-14.09-.24-25.02-12.77-31.62-24.88-1.38-2.41-3.87-6.62-4.9-8.51-.51-.91-.52-1.58.71-1.64,1.1-.11,3.29-.08,5.01-.06,1.01.05,2.12.11,2.88.8l.09.09Z" fill="#fff"/>
  <path d="M1001.36,3.56c-.16,1.92-2.55,3.84-3.9,5.31-7.23,6.95-13.74,14.01-22.04,19.47-1.82,1.21-4.03,2.61-6.15,2.88-.92.13-1.54,0-1.64-.37-.18-.56.83-1.57,1.96-3.1l3.39-4.4c6.87-8.54,9.82-13.73,15.7-19.39,1.45-1.5,4.49-1.14,6.96-1.18,1.62.17,4.77-.49,5.69.7l.02.08Z" fill="#fff"/>
  <path d="M568.41,3.29c-10.16,4.28-22.72,5.32-32.5.65-.61-.31-1.67-.78-1-.94,5.3-.11,21.97,0,29.75-.04,1.42.07,4.93-.2,3.82.3l-.07.04Z" fill="#fff"/>
  <path d="M1515.05,3.25c.3,2.83.45,6.75.07,9.78-.14.58-.41,3.34-1.11,2.33-1.16-2.03-5.63-10.11-6.65-11.96-.5-.9.7-.54,1.63-.62,1.17,0,2.8,0,4.02,0,1.08,0,1.74,0,1.98.38l.05.09Z" fill="#fff"/>
  <path d="M1186.53,172.55c-1.26,4.11-2.8,9.16-4.13,13.48-8.47,31.49-31.78,57.9-62.59,69.31-16.84,6.83-34.93,10.76-52,16.71-33.43,10.95-49.64,30.08-54.31,65.52-2.04,12.13-4.44,36.75-7.25,56.86-.29,2.18-.51,4.15-.79,6.25-.22,1.53-.02,2.08-1.97,2.18-2.23.04-5.03.25-7.03-.44-.3-.18-.46-.43-.53-.78,2.1-19.29,5.69-45.41,8.68-63.43,1.32-6.28,2.43-13.75,3.61-18.95,1.19-4.65,3.21-10.96,4.49-15.62,1.88-7.1,4.83-14.14,9.5-19.82,4.68-5.94,11.13-10.57,17.94-13.94,4.51-2.26,9.11-4.82,13.6-6.78,10.36-4.56,21.72-6.67,32.7-9.73,8.25-2.41,17.63-5.2,25.87-7.89,11.99-4.1,22.83-10.07,32.85-18.15,15.06-12.02,22.52-30.24,28.65-48.2,2.05-6.5,5.29-17.04,7.59-24.28,3.86-12.86,8.5-27.12,16.81-37.16,17.25-23.36,55.26-19.03,74.84-.76,16.66,14.63,26.29,36.63,30.35,58.36,1.2,6.55,1.23,13.64,1.45,20.25.23,14.26-2.43,27.11-8.39,40.16-4.46,10.63-9.01,21.14-12.95,31.62-3.1,8.01-4.66,16.45-5.39,25.11-.47,6.03-.87,12.94-1.2,18.83-.26,4.68.28,10.38.53,15.06.9,9.52,3.17,21.51,4.48,30.61.38,2.87.58,3.97,1.48,6.74,1.82,5.49,4.05,12.99,6.38,18.61,2.62,6.23,6.26,11.84,10.43,17.15,3.66,4.22-1.81,3.19-5.37,3.38-1.32,0-2.76-.06-3.97-.53-1.62-.56-2.69-2.25-3.58-3.8-2.44-4.19-4.57-8.52-6.42-12.91-13.5-34.76-17.86-75.73-8.58-112.24,1.54-5.35,2.96-11.04,4.92-16.12,3.5-9.6,8.14-19.59,11.52-29.22,1.77-6,4.6-13.1,5.46-19.33,4.89-31.54-4.88-69.01-33.48-86.37-11.28-7.05-25.5-9.62-38.36-6.57-22.66,6.02-29.19,36.93-35.78,56.72l-.05.16Z" fill="#fff"/>
  <path d="M1219.5,206.72c-6.27,11.17-10.67,23.34-19.6,32.54-21.1,21.96-46.11,41.01-76.05,48.52-10.69,2.87-23.12,5.45-33.98,8.56-36.18,9.5-52.88,43.56-47.85,79.68.9,10.09,4.85,18.31,9.08,26.08-1.94,1.66-5.43.35-8.4.71-1.64-.07-3.83.27-4.34-1.65-1.09-5.45-3.13-14.67-3.97-20.25.06-8.65-.29-20.5.17-27.72,2.49-44.43,28.39-64.51,70.53-72.94,38.51-7.62,76.53-27.48,96.76-62.26,9.58-13.58,16.76-35.87,32.41-42.88,9.32-2.77,16.55,2.9,19.83,12.16,4.44,10.47,2.77,20.78,3.11,31.91.17,14.85.17,20.19-1.37,32.73-2.14,17.33-2.53,35.99-1.67,54.18,1.92,13.18,4.28,30.25,6.17,42.76,2.94,14.28,7.34,35.17,12.12,50.8,1.26,3.27-.72,3.19-2.98,3.23-2.44-.05-6.5.82-6.85-2.44-8.89-31.91-15.11-69.74-16.76-101.39-.02-8.79-.24-21.4-.06-28.01.63-6.36,1.7-12.96,1.89-19.36.97-13.98.25-31.92.31-44.91.31-10.8-7.37-27.07-19.06-15.13-3.96,4.27-6.35,10.03-9.37,14.92l-.08.15Z" fill="#fff"/>
  <path d="M824.41,233.84c-21.45-9.23-79.1-60.03-99.35-53.82-6.59,3.67-8.94,29.48-11.47,38.66-3.48,18.81-2.66,35.66-2.59,56.74.24,29.93,7.07,61.06,17.5,88.99,4.69,12.45,11.33,23.87,19.63,34.22,3.81,4.11-.1,5.09-4.4,4.09-9.32-2.5-25.33-41.63-28.17-51.61-3.63-11.85-7.02-22.2-8.41-34.1-1.74-10.9-3.71-19.95-3.34-31.17.2-12.71-.26-28.4.21-40.52,1.08-13.98,2.72-30.67,4.89-46.23,1.74-8.52,4.49-18.76,9.6-25.45,23.56-19.24,78.51,40.86,111.77,52.56,18.34,6.77,38.14,7.38,56.15,13.1,31.66,9.16,46.61,32.9,56.11,62.62,1.28,3.03,1.26,4.18,1.97,7.52,1.11,7.81,3.77,15.56,3.6,22.92-.13,11.79,1.08,24.79-3.42,36.13-3.7,12.6-16.09,35.19-31.22,34.13-5.81.06-13.53.44-19.02.22,2.31-1.87,10.02-4.17,13-5.84,18.67-6.44,29.41-23,32.36-41.96.8-6.41.2-14.17.42-20.45.41-11.15-2.4-21.75-6.11-32.2-9.04-27.69-25.15-48.39-54.19-55.34-18.13-4.15-37.69-6.74-55.37-13.15l-.15-.05Z" fill="#fff"/>
  <path d="M1203.14,76.88c-19.15,10.58-26.16,36.05-33.41,55.86-4.3,12.4-9.01,24.62-13.27,37.07-6.89,19.43-17.56,37.87-32.72,51.96-7.64,6.58-16.88,11.19-26.1,15.48-27.19,12.19-66.51,19.2-87.47-7.07-1.27-1.91-4.12-5.06.73-3.07,4.54,1.63,13.12,4.72,16.64,5.99,3.36,1.28,7.05,1.74,10.63,2.54,3.56.67,5.75,1.34,9.22,1.17,3.88-.02,11.26-.04,14.24-.06,2.54.03,4.23-.45,6.86-1.02,3.81-.83,9.64-2.09,13.29-2.88,3.06-.68,4.15-.83,6.96-2.06,2.63-1.1,7.54-3.15,10.38-4.34,22.54-8.54,39.48-30.25,48.16-52.25,4.63-12.51,10.3-28.8,14.7-41.01,8.93-24.26,16.71-53.69,40.78-65.88,7.38-3.13,17.46-4.46,25.67-3.74,32.23,3.17,62.95,22.6,81.17,49.19,16.66,26.66,27.33,75.47,21.61,106.46-2.97,13.98-8.34,27.47-19,37.56-1.46,1.37-2.78,2.14-3.3,1.5-.62-.8-.21-2.07-.1-3.05.68-3.36,1.94-6.56,3.31-9.59,10.21-21.02,19.4-36.6,13.03-60.55-1.88-8.19-3.18-16.83-5.26-24.58-3.17-11.64-6.14-24.37-11.86-35.19-17.68-33.26-66.9-66.29-104.74-48.5l-.17.08Z" fill="#fff"/>
  <path d="M229.14,347.94c4.17,11.71,9.8,22.75,18.07,32.21,2.07,2.7,16.87,20.03,14.79,21.94-.9.9-4.55.89-6.72.19-1.48-.49-2.54-1.43-3.6-2.63-31.91-33.84-56.32-109.59,2.32-128.52,4.58-1.58,9.37-2.71,14.2-2.53,4.44.01,15.37.05,20.11.07,7.86.13,16.96,1.92,24.97,2.56,7.07.56,15.62,1.54,22.67,1.73,6.5-.07,13.95.18,20.26-.2,8.02-.59,16.24-1.16,24.05-1.88,3.38-.3,5.09-.53,7.85-1.09,39.12-8.4,82.28,4.89,103.33,38.87,9.15,14.27-23.11-12.89-25.07-14.08-4.73-3.62-9.56-7.11-14.69-10.17-18.25-11.94-41.92-11.39-62.09-3.98-8.99,3.05-17.26,5.74-26.34,8.22-12.65,4.13-22.01,5.34-34.65,1.08-12.51-4.3-24.96-9.82-37.58-13.46-24.76-5.78-57.89,5.57-64.41,32.04-1.75,6.49-1.54,13.76-1.24,20.43.34,6.39,1.48,12.88,3.71,19.03l.07.19Z" fill="#fff"/>
  <path d="M302.5,248.87c-8.5-2.82-16.56-5.68-25.2-7.98-8.05-2.15-12.91-4.06-19.9-5.33-6.42-1.04-12.92-.28-19.13,1.47-11.69,2.96-22.54,10.65-27.57,21.81-13.22,28.87-6.48,64.84,2.54,93.95,4.36,14.56,12.6,27.3,21.84,39.17,1.78,2.27,4.95,6.29,6.65,8.47.72.95,1.12,1.57.89,1.92-.07.11-.2.2-.38.27-.84.31-3.36.3-5.61.37-3.17.2-5.48-.91-7.1-3.81-28.26-42.51-51.07-105.83-20.68-152.6,31.97-42.61,92.82.78,132.11.45,9.8-.12,18.56-2.14,28.13-4.66,9.5-2.39,22.17-5.84,31.93-8.14,32.01-7.47,59.72-4.46,78.76,23.41.67,1.1.98,2.04.71,2.62-.25.59-1.08.81-2.22.74-13.25-1.45-23.07-12.67-33.75-18.1-5.48-2.68-11.57-5.27-17.72-5.41-2.39-.08-4.98.55-8.2,1.03-7.9,1.41-16.21,2.45-23.23,3.98-30.72,7.95-60.8,17.99-92.71,6.43l-.16-.05Z" fill="#fff"/>
  <path d="M1721.49,327.73c-18.28-2.44-36.98-4.73-53.49-13.32-10.71-5.84-21.84-13.01-32.32-19.01-10.35-5.71-22.03-12.16-32.07-17.01-8.11-3.63-19-7.14-24.34-5.33-5.78,2.64-6.54,10.63-8.29,16.16-4.13,14.02-6.16,28.38-6.61,42.86.09,9.47-.16,20.36.12,29.51.43,13.08,3.2,25.76,6.76,38.44.79,2.95-2.66,2.93-4.64,2.89-1.45-.03-3.61,0-3.81-1.6-.99-4.3-2.73-14.4-3.9-20.12-.47-2.77-.81-3.78-.95-6.65-1.07-10.75-.54-21.45-.68-34.03.03-7.61.42-15.14,1.14-22.63,1.14-7.03,2.43-19.69,3.97-27.75,2-8.88,4.61-18.51,11.81-24.4,8.17-5.97,22.77.98,31.02,4.46,21.21,10.33,42.68,23.57,63.81,35.44,7.83,4.75,17.06,7.91,26.15,9.45,11.35,2.39,23.09,4.32,34.18,6.15,15.97,2.33,31.71,7.69,43.57,18.68,2.22,2.06,3.75,3.67,5.77,6.23,3.35,4.41,7.24,8.52,9.82,13.33,1.42,2.48,2.93,4.87,3.98,7.5,1.48,3.9,4.49,10.23,5.89,14.44,1.27,4.95,3.31,14.49,4.48,19.76.11.63.06,1.16-.5,1.47-.33.15-.7.23-1.1.27-1.61.13-4.39.25-5.64-.47-1.3-.74-1.33-2.01-1.55-3.57-3.61-20.56-12.23-40.73-28.49-54.47-12.33-10.23-28.67-13.27-43.9-16.66l-.18-.03Z" fill="#fff"/>
  <path d="M1141.01,309.67c-9.45,2.95-23.4,6.75-33.89,10.35-18.73,6.75-38.56,22.49-27.99,41.72,4.58,9.1,11.75,16.53,20.03,22.17,6.35,4.56,16.15,11.49,22.28,15.88,1.55,1.29,4.95,2.79,2.13,3.09-4.18.57-9.79.54-12.97-1.46-6.11-3.69-12.19-9.85-17.64-14.16-3.17-2.63-6.06-5.73-9.08-8.64-17.18-15.14-16.31-43.75,1.31-57.54,5.38-4.26,11.39-7.57,17.84-9.94,11.77-3.93,28.42-8.37,39.07-11.63,2.01-.59,1.98-.57,4.39-1.75,5.09-2.52,14.3-7.02,17.57-8.64,6.77-3.24,14.67-7.7,21.27-10.36,18.77-7.14,33.89-3.19,43.26,15.16,12.34,25.76,15.42,53.96,19.09,82.04.4,5.48.87,11.9,1.44,16.89.14,2.78.97,6.08-.3,8.62-1.98,2.44-6.69,1.59-6.43-2.15-.56-9.86-2.36-19.97-3.46-29.9-1.01-10-2.95-19.17-4.92-29.03-2.46-12.37-5.05-24.43-9.29-36.3-2.24-6.33-5.35-13.15-11.61-16.3-11.88-5.49-25.66.41-36.49,6.03-6.5,3.28-15.85,8.51-23.17,11.71-3.92,1.62-8.2,2.88-12.29,4.1l-.13.04Z" fill="#fff"/>
  <path d="M1029.35,177.33c1.02-3.06,3.67,1.99,6.48,5.63,2.61,3.62,6.26,7.42,9.63,10.09,8.1,6.35,18.21,9.6,28.2,8.46,5.8-.65,11.01-3.33,16.11-5.8,21.93-11.1,39.07-39.93,45.98-64.21,4.73-13.8,5.84-28.03,4.99-42.69-1.34-25.52-27.4-28.5-47.86-29.44-2.59-.16-5.14-.48-7.72-.52-3.91-.1-7.85,1-11.83,1.11-4.19.18-8.34-.45-12.37-1.48-12.85-3.02-25.39-6.29-38.88-9.9-4.69-.93-.33-2.27,1.65-3.13,21.62-8,39.38,6.82,56.51,7.02,5.7.15,24.6.47,33.79.68,2.01-.17,4.1.56,6.5,1.16,3.96,1.15,8.38,1.86,11.74,3.96,7.86,4.91,12.96,14.85,15.27,23.91,7.62,39.92-18.42,95.33-49.78,119.58-11.82,8.78-28.29,9.44-42.24,5.62-6.38-1.77-12.89-4.8-17.66-9.4-5.28-5.04-9.06-12.92-8.53-20.54l.02-.11Z" fill="#fff"/>
  <path d="M1464.6,297.71c-2.31,5.9-5.12,12.85-7.61,18.97-5.85,14.18-18.2,42.42-26.41,43.56-3.17.1-3.7-3.14-1.91-5.71,7.22-10.81,12.78-22.61,18.06-34.47,15.66-35.28,25.76-73.48,33.11-111.12,2.5-14.04,4.57-33.24,6.59-46.89,1.16-7.24,1.39-15.59,1.65-23.08-.15-6.44.35-22.95-.22-31.46-.32-9.57-3.25-18.83-5.5-29.55-1.24-6.12-3.87-12.05-5.98-18.58-2.12-6.17-4.46-14.08-6.45-20.42-1.4-4.94-4.13-11.88-2.35-16.51.81-2.06,4.24-3.71,5.34-1.33,1.32,3.09,2.48,8.75,3.39,11.6,3.8,12.7,8.16,26.42,11.52,38.66,2.53,10.05,5.18,21.33,7.3,31.67,2.65,14.58,2.18,30.48,1.03,45.31-.27,6.17-1.61,11.24-2.47,17.21-1.88,11.18-3.9,24.98-5.85,35.57-2.29,10.84-5.37,26.67-7.42,35.62-4.82,21.23-9.23,40.56-15.79,60.84l-.04.1Z" fill="#fff"/>
  <path d="M76.5,62.73c-.14-5.39-1.12-10.67-2.6-15.93-1.39-4.64,1.59-3.25,3.64-.79,4.28,5.37,4.75,14.26,5.19,21.02-.13,6.7-.03,21.17-.28,27.22-1.9,18.83-2.62,36.96-6.59,55.07-2.06,9.67-9.55,45.6-22.05,43.32-8.06-1.13-15.4-32.06-17.8-39.71-3.92-13.84-5.99-27.99-7.76-42.14-1.78-12.95-3.23-27.15-1.62-40.43,1.99-15.87,4.14-34.43,16.98-45.32,5.15-4.34,13.14-7.62,19.06-3.2,3.32,2.48,4.99,6.69,6.73,10.34.34,1.11,3.73,7.13,2,7.44-1.69-.43-5.24-3.85-7.42-4.83-12.51-7.46-23.47-.99-26.27,12.82-1.98,6.76-3.96,13.63-3.56,20.63.33,10.81-.63,24.96,1.09,36.07,2.06,12.02,4.4,27.09,6.61,39.33,1.37,5.45,3.9,15.19,5.6,21.85,1.2,3.5,3.91,17.46,8.1,17.01,12.15-15.08,19.27-62.58,20.83-82.35.22-11.05.1-28.45.11-37.28v-.13Z" fill="#fff"/>
  <path d="M378.25,328.64c-12.84,6.14-27.94,12.2-42.03,6.58-13.77-5.19-25.41-19.61-38.58-24.05-12.76-3.57-28.68-4.39-39.27,4.83-17.26,16.35-3.52,45.79,10.18,60.07,4.46,5.31,9.27,12.63,9.78,18.3.28,2.11-.68,3.32-2.85,1.59-24.37-19.71-46.31-63.38-20.05-87.82,13.69-10.89,33.77-8.97,49.35-2.8,8.12,3.41,14.6,9.14,22.04,14.35,8.87,6.99,18.55,12.74,30.13,9.61,4.82-1.23,10.91-3.94,16.13-5.82,8.09-2.93,15.31-6.28,23.37-9.1,14.87-5.29,30.99-5.11,42.11,6,2.1,1.85,4.05,3.93,5.63,6.11,1.6,2.42,3.77,4.58,4.3,7.44.13,4.55-10.21-2.53-12.13-3.32-7.71-4.29-15.28-9.41-24.12-10.85-6.1-.91-13.06.35-19.12,2.27-5,1.74-9.95,4.43-14.69,6.55l-.16.08Z" fill="#fff"/>
  <path d="M240.52,166.33c-9.32-6.27-12.71-16.98-15.18-27.9-3.06-15.7-1.6-33.98,5.76-48.15,2.98-5.93,7.87-11.27,14.64-12.38,31.95-4.46,41.73,43.4,31.12,72.74-4.92,15.19-21.73,24.49-36.17,15.8l-.17-.11ZM270.91,146.88c7.58-11.85,5.38-29.65-.67-42.39-4.05-8.24-10.51-17.18-20.29-17.47-9.29-.33-15.37,8.87-17.52,16.95-3.95,14.75-3.82,30.36,3.26,43.94,7.89,14.53,27.03,12.08,35.11-.88l.1-.15Z" fill="#fff"/>
  <path d="M1171.84,339.28c-4.4,2.36-7.75,6.27-10.78,10.14-2.44,3.14-5.46,6.39-6.12,10.18-1.07,13.83,15.67,32.73,25.93,41.47,1.15,1.11,1.1,1.67-.61,1.83-2.83.1-6.33.3-9.16-.09-3.92-.84-5.92-4.95-8.53-7.87-7.95-9.94-12.72-22.38-13.17-34.99-.72-15.04,9.87-27.44,23.37-32.83,40.44-17.2,53.62,41.3,45.32,70.83-.55,2.54-2.14,4.7-4.87,5.01-2.23.36-4.08-.88-3.78-3.43.74-5.63,2.18-11.24,2.76-16.88,1.74-16.7-1.64-41.49-19.54-45.95-6.82-1.7-14.49-.8-20.67,2.49l-.17.09Z" fill="#fff"/>
  <path d="M1419.76,364c.53.77-.35,3.07-1.66,4.88-3.5,4.6-9.21,7.33-14.32,9.9-18.12,8.7-34.33,15.83-53.34,18.19-39.62,5.94-59-17.59-63.45-54.74-.79-8.37-.43-17.36-.61-26.06-.07-6.26-.16-11.6.28-17.78.05-3.6.56-10.03,2.95-2.46,1.56,11.47,3.76,34.29,4.76,42.61.88,8.6,2.86,17.58,6.46,25.49,5.19,11.61,14.57,22.54,27,26.3,12.42,4.18,25.51-1.66,37.42-4.85,4.54-1.19,8.9-3.42,13.27-5.21,7.51-3.31,15.55-6.94,23.16-10.32,3.64-1.69,6.93-2.86,10.91-4.28,1.66-.57,3.63-1.38,5.14-1.8,1.03-.28,1.71-.28,2.01.08l.05.06Z" fill="#fff"/>
  <path d="M1659.33,358.12c-.51,10.03-9.06,17.87-17.91,21.89-11.71,5-22.32,6.06-29.88-2.03-15.01-14.21-21.43-38.52-12.91-57.74,3.64-5.79,11.65-10.35,18.45-7.21,3.31,1.29,5.71,4.72,8.67,6.76,6.08,3.68,12.85,8.53,18.98,12.9,8.36,5.55,15.18,14.78,14.62,25.24v.2ZM1641.63,363.55c3.12-1.81,6.79-3.88,10-5.77,2.52-1.38,2.13-2.78.55-4.84-3.59-4.97-7.3-9.81-11.14-14.4-3-3.58-6.1-7.04-9.37-10.37-3.77-3.52-7.13-8.35-12.81-8.33-25.98.55-17.59,51.57.54,52.5,7.86.17,15.52-4.96,22.09-8.71l.14-.08Z" fill="#fff"/>
  <path d="M853.74,352.09c-17.53,14.74-50.1,4.87-58.08-15.9-3.77-10.09-.06-22.6,7.92-29.65,6.45-5.53,15.14-5.44,23.33-5.51,16.94-.09,41.6,10.57,37.96,31.01-1.26,7.64-4.93,14.95-10.98,19.91l-.16.13ZM825.12,350.85c8.61.5,17.94-3.78,24.69-9.44,3.65-3.08,6.72-6.73,8.53-10.63,1.2-2.42.42-5.12-1.23-7.2-11.11-15.02-31.5-20.11-47.2-10.48-5.32,2.82-5.89,7.67-5.77,13.27-.21,5.61.89,11.8,4.33,16.09,3.53,4.87,10.07,8.01,16.45,8.38h.19Z" fill="#fff"/>
  <path d="M1788.95,263.91c-25.87,8.07-38.66-30.25-21.03-46.14,9.68-10.13,29.28-13.17,38.11-.51,10.17,16.03.9,40.69-16.89,46.59l-.19.06ZM1783.12,253.13c12.69.8,25.57-13.38,17.37-25.42-10.68-12.69-37.04-9.23-32.55,11.2,1.31,8.59,6.64,13.34,15,14.2l.18.02Z" fill="#fff"/>
  <path d="M1644.32,224.44c-.68,17.57-15.51,29.82-31.59,21.66-11.36-7.71-1.66-22.01,6.77-27.76,7.65-6.96,25.08-7.93,24.82,5.89v.2Z" fill="#fff"/>
  <path d="M545.8,402.93c-2.41.98-7.7,1.22-9.37.09-.81-1.14,1.21-2.64,2.1-3.69,11.58-11.52,12.08-26.17,8.4-40.74-2.1-8.19-4.48-16.45-8.88-23.6-5.64-8.46-14.35-18.65-20.48-26.82-3.43-4.63-7.81-9.2-8.81-15.24.56-5.87,13.29,7.95,14.81,9.51,7.12,7.64,13.1,16.26,18.81,24.96,7.16,10.29,11.11,22.41,11.89,34.89,1.05,10.04,2.18,35.68-8.29,40.57l-.17.07Z" fill="#fff"/>
  <path d="M912.54,318.7c-.21.82-.65.14-.92-.26-3.91-5.79-19.88-29.73-23.06-34.39-.5-.64-.74-.63-1.65-.99-12.33-4.52-41.76-15.29-47.97-17.58-3.63-1.31-1.07-3.41,1.83-3.42,6.32-.28,12.58.81,18.9,1.84,6.96,1.03,14.08,2.35,20.46,5.15,19.82,7.39,34.8,27.34,32.44,49.55l-.02.08Z" fill="#fff"/>
  <path d="M967.71,153.5c-.47.23-1.19-.42-1.91-1.54-2.28-3.93-2.93-7.16-4.86-11.65-4.16-10.17-8.12-20.28-9.56-31.23-.35-2.24-.87-4.45-1.43-6.64-2.07-7.51-1.39-15.4-1.63-23.18-.25-12.33,2.04-25.34,7.74-35.6.7-1.2,1.48-1.95,2.19-1.78,3.32,2.05,1.61,9.74.92,12.73-1.08,4.66-2.85,12.01-4.01,17.09-3.08,17.03,2.79,34.12,6.9,50.55,2.57,9.39,6.02,17.97,6.3,28.18.06.95-.03,2.78-.58,3.05l-.07.04Z" fill="#fff"/>
  <path d="M1016.9,151.13c.25,2.38-1.39,2.05-2.61,1.03-10.42-11.11-17.93-25.27-20.54-40.29-.78-4.42-.38-9.21-.47-13.86.07-4.25-.24-7.61.57-11.42,1.25-6.35,4.91-14.08,8.37-18.57,4.02-5.44,7.05-3.98,6.3,2.64-.57,3.85-2.86,7.33-4.45,10.87-6.72,14.26-4.02,30.46,2.7,44.41,3.96,8.09,8.32,16.12,10.11,25.02l.02.16Z" fill="#fff"/>
</svg>