<?xml version="1.0" encoding="UTF-8"?>
<svg id="Layer_1" xmlns="http://www.w3.org/2000/svg" version="1.1" viewBox="0 0 800 800">
  <!-- Generator: Adobe Illustrator 30.3.0, SVG Export Plug-In . SVG Version: 2.1.3 Build 182)  -->
  <path id="Path_166" d="M543.37,504.08c0,.51-.11.89-.11,1.12-.11,3.72-.37,7.41-.6,10.98-.26,4.06-.63,8.12-.89,12.21-.34,3.69-.6,7.38-.97,11.1-1.11,11.97-2.88,23.87-5.29,35.64-.16.47-.37.92-.63,1.34,2.09-12.81,3.83-25.52,4.92-36.61.63-3.95,1-7.78,1.26-11.24.49-4.55.86-8.75,1.09-12.33.51-5.41.89-9.24,1-10.96v-.37c.04-.3.11-.6.23-.89h0Z"/>
  <path id="Path_167" d="M543.14,504.97v.37s.11,0,.11-.14c0-.23.11-.6.11-1.12-.12.28-.19.58-.23.89h0ZM543.14,504.97v.37c-.11,1.72-.49,5.55-1,10.96-.23,3.58-.6,7.78-1.09,12.33-.26,3.46-.63,7.29-1.26,11.24-1.09,11.1-2.83,23.8-4.92,36.61.26-.42.47-.88.63-1.34,2.42-11.77,4.18-23.67,5.29-35.64.37-3.72.63-7.41.97-11.1.26-4.09.63-8.15.89-12.21.23-3.58.49-7.27.6-10.98,0-.23.11-.6.11-1.12-.12.28-.19.58-.23.89h0ZM543.14,504.97v.37s.11,0,.11-.14c0-.23.11-.6.11-1.12-.12.28-.19.58-.23.89h0ZM543.14,504.97v.37s.11,0,.11-.14c0-.23.11-.6.11-1.12-.12.28-.19.58-.23.89h0Z" fill="#fff"/>
  <g id="Group_132">
    <path id="Path_168" d="M542.14,516.3c-.23,3.58-.6,7.78-1.09,12.33.25-.02.5-.1.72-.23.26-4.09.63-8.15.89-12.21-.14,0-.37.11-.51.11h0Z" fill="#1fc0de"/>
    <path id="Path_169" d="M543.14,505.34c-.11,1.72-.49,5.55-1,10.96.14,0,.37-.11.51-.11.23-3.58.49-7.27.6-10.98,0,.14-.11.14-.11.14h0ZM543.14,505.34c-.11,1.72-.49,5.55-1,10.96-.23,3.58-.6,7.78-1.09,12.33-.26,3.46-.63,7.29-1.26,11.24.37-.14.74-.26,1-.37.37-3.72.63-7.41.97-11.1.26-4.09.63-8.15.89-12.21.23-3.58.49-7.27.6-10.98,0,.14-.11.14-.11.14h0Z" fill="#fff"/>
  </g>
  <path id="Path_170" d="M313.16,482.4v-.14c-.14-1.23-.26-2.57-.37-3.8.11,1.34.37,2.72.49,3.95s.29,2.46.46,3.69c-.2-1.23-.4-2.46-.57-3.69Z" fill="#1fc0de"/>
  <path id="Path_171" d="M340.5,545.96c-4.68-8.6-9.82-16.95-15.39-25,.38.49.75.94,1.12,1.37.83,1.03,1.6,2.06,2.37,3.12.63.89,1.26,1.77,1.83,2.69l.69,1.03c.23.34.46.69.66,1.03.28.4.54.81.77,1.23.43.69.86,1.37,1.26,2.09.14.26.31.51.46.77.49.86.97,1.72,1.46,2.6,1.66,3,3.23,6.04,4.78,9.07h0Z" fill="#1fc0de"/>
  <path id="Path_172" d="M349.77,561.55h-.11c-1.29-1.7-2.48-3.46-3.58-5.29,1.23,1.86,2.46,3.58,3.69,5.29Z" fill="#1fc0de"/>
  <path id="Path_173" d="M363.47,314.55c-.25,1.26-.38,2.55-.37,3.83v-.74c-.01-1.04.11-2.08.37-3.09Z" fill="#1fc0de"/>
  <path id="Path_174" d="M481.1,295.92c-.61-.02-1.23.02-1.83.14.11-.14.37-.14.49-.14h1.34Z" fill="#1fc0de"/>
  <path id="Path_175" d="M369.62,123.78c-5.28-3.65-8.92-9.23-10.13-15.53l-13.9-69.42-13.93,69.42c-1.19,6.31-4.83,11.9-10.13,15.53l-20.97,14.3,20.97,14.3c5.28,3.6,8.92,9.14,10.13,15.42l13.93,69.54,13.93-69.54c1.19-6.28,4.83-11.83,10.13-15.42l20.97-14.3-20.97-14.3h-.03ZM364.7,145.12c-7.14,4.94-12.1,12.45-13.82,20.97l-5.29,26.63-5.29-26.63c-1.72-8.51-6.67-16.03-13.82-20.97l-10.35-7.04,10.35-7.15c7.14-4.94,12.1-12.45,13.82-20.97l5.29-26.52,5.29,26.52c1.72,8.51,6.67,16.03,13.82,20.97l10.35,7.15-10.35,7.04Z" fill="#fff"/>
  <path id="Path_176" d="M312.73,224.07l-3.09,15.45c-.31,1.51-.72,3-1.23,4.46-.77,2.2-1.77,4.32-2.97,6.32,1.24-1.98,2.25-4.09,3.03-6.29.49-1.34.86-2.95,1.23-4.43l3.06-15.36v-.14h-.03ZM320.6,251.19c-1.98-3.01-3.45-6.32-4.35-9.81.82,3.44,2.23,6.71,4.18,9.67,0,.06.05.11.11.11,0,0,0,0,0,0,.05.08.11.16.17.23-.03-.06-.09-.14-.11-.2ZM329.66,266.46c-.57.4-1.14.8-1.69,1.26.54-.43,1.12-.83,1.69-1.23l4.32-2.97-4.32,2.95ZM318.82,278.79c-.34.69-.66,1.37-.94,2.06.31-.69.63-1.37.97-2.06s.72-1.34,1.09-2.03c-.41.66-.78,1.34-1.12,2.03ZM311.79,298.01l.94,4.89v-.17l-.94-4.72ZM309.7,287.43c-.09-.26-.14-.54-.23-.8.08.26.14.53.17.8l.94,4.55-.89-4.55ZM308.84,284.22s-.09-.26-.14-.37c.03.13.07.25.11.37.17.54.31,1.06.46,1.6-.17-.53-.32-1.06-.43-1.6Z" fill="#fff"/>
  <path id="Path_177" d="M633.76,391.75c-15.16-46-31.67-72.03-45-86.7-3.67-4.14-7.72-7.94-12.1-11.33-1.52-1.22-3.13-2.34-4.81-3.35-16.88-10.58-32.41-37.96-44.62-65.1-2.97-6.52-5.81-13.07-8.38-19.37-4.83-11.7-8.9-22.43-11.99-30.81-8.87-23.94-10.96-29.61-18.25-33.18-10.58-5.32-26.37-.11-49.8,16.16-8.37,5.86-16.44,12.16-24.17,18.85l-9.87-48.94-11.58,58.44c-1.28,6.25-4.95,11.74-10.24,15.3l-14.82,10.35,5.21,3.58c-7.89,8.01-16.05,16.53-24.31,25.66-.97,1.09-2.09,2.2-3.09,3.2-3.32,3.43-6.78,6.64-10.1,9.61l-1.23-.86c-5.29-3.61-8.96-9.14-10.24-15.42l-1.72-8.75-9.87-49.72-7.89,39.59-3.83,18.88c-.13.71-.33,1.41-.6,2.09-1.48,5.47-4.91,10.21-9.64,13.33l-14.79,10.24,14.79,10.1c2.2,1.56,4.15,3.43,5.81,5.55-10.74,4.41-21.89,7.71-33.3,9.87-2.23.49-4.32.86-6.52,1.23-12.96,1.97-25.54,2.83-37.13,3.46-2.46.11-4.81.23-7.15.49l-6.78.63c-21.71,1.83-39.47,5.92-47.37,23.54-3.57,8.09-4.81,17.02-3.58,25.77v.11c1.97,15.79,10.61,31.95,20.11,49.57.37.74.86,1.6,1.23,2.35,10.73,19.74,23.31,43.91,31.21,74.74.49,1.72.97,3.32,1.34,5.06-.37,5.66-.6,11.21-.6,16.65,0,18.53,2.22,36.99,6.64,54.98,1.32,5.63,2.93,11.19,4.83,16.65,5.08,15.83,11.81,31.09,20.08,45.51,17.76,30.84,42.79,57.35,59.81,63.13,2.61.96,5.37,1.46,8.15,1.49,6.24.05,12.09-3.06,15.53-8.27,1.86-2.72,13.93-5.78,25.4-8.12,5.29-1.12,10.47-2.12,14.56-2.72.3-.15.63-.24.97-.26,3.83-.54,7.47,1.83,8.52,5.55.7,3.8,2.92,7.14,6.15,9.27,7.86,4.77,16.26,8.57,25.03,11.33,5.56,1.95,11.25,3.51,17.02,4.69,10.22,2.19,20.64,3.39,31.09,3.58,8.15.1,16.29-.28,24.4-1.12,6.13-.7,12.23-1.73,18.25-3.09,12.33-2.69,23.43-7.01,30.24-13.19,11.96-10.98,21.31-37.36,28.46-80.64,2.6-15.19,11.84-59.33,18.14-64.62,45.88-38.73,68.94-29.23,74.49-38.36,12.07-20.11-8.01-84.1-12.1-96.68h0ZM383.58,212.05l1.46-1.03,2.83-2.03c.69-.43,1.32-.92,1.95-1.4.65-.48,1.27-1.01,1.86-1.57.4-.35.78-.72,1.14-1.12.39-.37.77-.76,1.12-1.17.75-.82,1.45-1.69,2.09-2.6.29-.4.57-.77.83-1.17,1.49-2.21,2.69-4.61,3.58-7.12.26-.74.51-1.52.72-2.29s.4-1.57.54-2.37v-.14l3.09-15.42v.14l.06-.14,2.15,10.87,1,4.55c.22,1.31.53,2.6.92,3.86.09.29.17.54.29.83.17.49.37,1,.57,1.49.47,1.14,1.01,2.24,1.6,3.32.29.55.6,1.08.94,1.6.48.8,1.01,1.57,1.57,2.32.4.54.8,1.06,1.26,1.57.17.2.31.37.49.54.2.26.43.51.63.74,1.18,1.28,2.46,2.45,3.83,3.52.57.4,1.14.8,1.72,1.17l1.34,1,.06.06,2.89,2h.03l-4.32,2.97c-1.19.81-2.31,1.72-3.35,2.72-.46.37-.89.77-1.32,1.17-.44.4-.85.83-1.23,1.29-.77.86-1.47,1.77-2.12,2.72-.26.31-.51.63-.74.94s-.46.66-.66,1c-.34.51-.66,1.03-.94,1.57-.57,1.01-1.08,2.07-1.52,3.15-.09.23-.14.49-.23.74-.2.49-.4.94-.57,1.4s-.31.92-.46,1.37c-.29.94-.49,1.89-.69,2.89l-1.52,7.35-.29,1.32-1.34,6.78v-.14l-.06.11-3.09-15.42c-.06-.34-.11-.72-.2-1.06-.24-1.13-.56-2.23-.94-3.32-.11-.31-.23-.66-.37-1-.03-.06-.06-.14-.09-.2v-.06h0c-.14-.31-.26-.66-.4-.97,0-.06-.06-.11-.09-.17-.11-.26-.26-.54-.37-.83-.31-.71-.66-1.4-1.06-2.06-.2-.4-.43-.77-.66-1.14-.29-.46-.57-.92-.89-1.37-.29-.47-.6-.91-.94-1.34-.03-.03-.06-.09-.09-.11-.4-.54-.83-1.06-1.29-1.54-1.29-1.51-2.72-2.9-4.26-4.15-.46-.37-.92-.74-1.37-1.06l-.06-.03-.37-.29c-.13-.08-.25-.16-.37-.26h0l-.06-.06-2.4-1.66-.17-.11-1.66-1.12h0v-.03ZM299.51,269.44c-.74-.69-1.57-1.37-2.4-2.03-.43-.31-.86-.63-1.29-.92l-4.38-2.97,4.32-3.09c1.47-.98,2.85-2.08,4.15-3.29.51-.49,1-1,1.49-1.52s1-1.12,1.46-1.69.92-1.17,1.37-1.8c.4-.6.8-1.2,1.2-1.83,1.21-2,2.21-4.12,2.97-6.32.51-1.46.92-2.95,1.23-4.46l3.09-15.45v.14l.06-.17,3.09,15.53c.09.51.17,1,.29,1.49.02.11.04.21.09.31.9,3.49,2.37,6.8,4.35,9.81.03.06.09.14.11.2s.11.14.17.23c.4.6.8,1.17,1.26,1.74.11.15.22.29.34.43,1.89,2.31,4.06,4.38,6.46,6.15.22.19.46.35.72.49l3.2,2.29,1.12.8-4.32,2.97c-.57.4-1.14.8-1.69,1.23-1.09.85-2.13,1.77-3.12,2.75-.97.97-1.88,2-2.72,3.09,0,.02-.01.03-.03.03h0c-.31.4-.63.83-.92,1.23-.43.63-.86,1.29-1.26,1.95s-.74,1.34-1.09,2.03-.66,1.37-.97,2.06-.57,1.4-.8,2.12c-.49,1.46-.9,2.95-1.2,4.46l-1.26,6.01h0l-1.83,9.41v-.11l-.06.17-.94-4.89-.6-2.83-.6-3.2-.94-4.55c-.03-.27-.09-.54-.17-.8-.06-.26-.14-.54-.2-.8-.14-.54-.29-1.06-.46-1.6-.05-.12-.09-.25-.11-.37-.06-.14-.09-.29-.14-.4-.17-.54-.34-1.06-.54-1.57-.88-2.28-2-4.46-3.35-6.49-.72-1.08-1.5-2.11-2.35-3.09-.54-.63-1.09-1.23-1.66-1.77-.35-.39-.74-.75-1.14-1.09h0ZM544.26,483.49c-.26,6.92-.51,13.82-.89,20.6,0,.51-.11.89-.11,1.12-.11,3.72-.37,7.41-.6,10.98-.26,4.06-.63,8.12-.89,12.21-.34,3.69-.6,7.38-.97,11.1-1.11,11.97-2.88,23.87-5.29,35.64-.16.47-.37.92-.63,1.34-5.18,31.58-13.44,63.87-25.52,74.97-1.45,1.37-3.02,2.61-4.69,3.69-1.49,1.03-3.06,1.93-4.69,2.72-.97.63-2.23,1.12-3.46,1.74-.19.14-.39.26-.6.37-.1,0-.19.05-.26.11-.49.11-.97.37-1.49.49-1.23.49-2.46,1-3.8,1.49v.11c-.51.14-.86.26-1.37.37-1.97.63-3.8,1.23-5.92,1.86h-.11c-.26.11-.63.11-.86.23-.22-.04-.45.02-.63.14-.37.11-.86.11-1.23.23-2.57.51-5.06,1-7.75,1.37-2.6.49-5.32.74-8.04.97-.31.12-.64.17-.97.14-9.04.7-18.12.61-27.15-.26-1.72-.11-3.43-.37-5.03-.63-.83-.09-1.66-.2-2.52-.31-2.49-.31-4.95-.74-7.35-1.29-1.12-.11-2.23-.37-3.35-.6-.34-.11-.6-.11-.97-.26-4.92-1.23-9.75-2.57-14.3-4.18-1-.37-1.72-.74-2.6-1l-.11-.11c-3.17-1.2-6.25-2.61-9.24-4.2-2.12-1.23-4.09-2.35-5.81-3.58-.11-.11-.11-.23-.26-.23-1.3-.86-2.53-1.82-3.69-2.86,1-2.95.49-7.64-.97-13.67-.74-2.97-1.74-6.18-2.86-9.61-1.09-3.35-2.32-6.92-3.8-10.5-.49-1.23-.86-2.35-1.37-3.58-.86-2.09-1.6-4.18-2.57-6.29-6.04-14.42-13.44-29.95-19.74-42.79h-.11c-1.29-1.7-2.48-3.46-3.58-5.29-1.12-1.86-2.23-3.83-3.35-5.92-.72-1.37-1.4-2.77-2.12-4.15-.03-.09-.09-.14-.11-.23-4.68-8.6-9.82-16.95-15.39-25-.34-.46-.69-.94-1-1.46,0-.11-.11-.11-.11-.23-.64-.9-1.21-1.85-1.72-2.83-1.1-1.75-2.01-3.61-2.72-5.55-.11-.14-.11-.37-.26-.51-.19-.4-.35-.81-.49-1.23-.02-.26-.11-.52-.26-.74-.02-.22-.1-.42-.23-.6v-.14c-.15-.21-.24-.46-.26-.72-.49-1.49-.97-2.97-1.34-4.58-.63-2.46-1.12-4.92-1.6-7.52-.37-1.72-.63-3.46-.86-5.18-.2-1.17-.37-2.37-.54-3.58s-.4-2.46-.57-3.69v-.14c-.14-1.23-.26-2.57-.37-3.8-.14-.74-.26-1.6-.37-2.35l-1.12-8.15c-.37-2.83-.86-5.66-1.49-8.61-.37-1.97-.74-4.09-1.23-6.18-.6-2.46-1.23-4.92-1.97-7.52-.49-1.72-.97-3.46-1.6-5.18-.6-2.23-1.49-4.43-2.35-6.78-2.13-5.37.5-11.44,5.86-13.57.23-.09.46-.17.69-.25l10.24-3.46c15.28-4.43,36.5,27.89,38.47,44.17,0,0,1.6,12.7,5.18,28.23v-171.17c-.01-1.04.11-2.08.37-3.09.05-.74.18-1.48.37-2.2.54-2.34,1.5-4.55,2.83-6.55.17-.3.37-.59.6-.86.13-.4.4-.74.74-.97.43-.74.97-1.4,1.6-1.97.84-.96,1.85-1.76,2.97-2.35,1.17-.76,2.41-1.42,3.69-1.97.37-.14.74-.26.97-.37,1.01-.37,2.04-.65,3.09-.86,1.29-.35,2.61-.53,3.95-.51h.63c1.46-.02,2.91.15,4.32.51.92.19,1.83.43,2.72.72l.23.14.11.11h.14c.27.12.56.21.86.26.11.11.26.11.37.23h.37l.11.14c.6.26,1.18.59,1.72.97.37.26.74.37,1.12.63,1.15.75,2.22,1.61,3.2,2.57,4.07,4.09,6.34,9.64,6.29,15.42v122.57c.01,1.26,1.05,2.28,2.32,2.26.26,0,.53-.05.77-.14h.26c.91-.35,1.5-1.25,1.46-2.23v-143.8c-.01-4.65,1.36-9.2,3.95-13.07,2.25-3.53,5.52-6.28,9.38-7.89.19-.09.39-.13.6-.11,8.02-3.17,17.17-1.22,23.2,4.95.77.75,1.47,1.58,2.09,2.46.54.64,1,1.34,1.37,2.09.34.45.59.95.74,1.49.29.4.5.86.6,1.34.49,1.15.87,2.35,1.12,3.58.35,1.45.51,2.94.49,4.43v136.76c-.06,1.24.9,2.29,2.14,2.34.03,0,.06,0,.09,0h.11c1.29,0,2.34-1.04,2.35-2.33,0,0,0-.01,0-.02v-113.56c0-1.41.12-2.82.37-4.2.26-1.38.63-2.74,1.12-4.06,1.7-5.42,5.59-9.89,10.73-12.33,1.16-.65,2.4-1.15,3.69-1.49h.11c1.22-.33,2.46-.53,3.72-.6.11-.14.37-.14.49-.14h1.34c.62-.02,1.25.02,1.86.14.25-.02.51.02.74.11.75.02,1.5.1,2.23.26,1.47.37,2.9.85,4.29,1.46,1.01.38,1.97.88,2.86,1.49,1.29.81,2.49,1.76,3.58,2.83,4.06,4.1,6.32,9.65,6.26,15.42v124.43c.05.92.63,1.73,1.49,2.09.2.1.41.18.63.26,1.15.46,2.46-.09,2.93-1.24.11-.27.16-.55.16-.84v-70.05c0-12.1,8.01-21.83,17.99-21.83,1.21-.03,2.42.13,3.58.49.97.26,1.91.6,2.83,1,.96.49,1.87,1.06,2.72,1.72.97.6,1.84,1.35,2.57,2.23.39.26.73.59,1,.97,3.43,4.4,5.26,9.84,5.18,15.42,0,0,.11,2.46.26,7.04v.11c0,1.86.11,4.06.11,6.52.11,2.6.11,5.43.26,8.64,0,2.83.11,6.04.11,9.38.37,20.97.49,50.06-.49,79.52h0Z" fill="#fff"/>
  <path id="Path_178" d="M363.1,317.63v.74c0-1.29.12-2.57.37-3.83-.26,1.01-.38,2.05-.37,3.09ZM313.73,486.09c-.17-1.23-.34-2.46-.46-3.69s-.37-2.6-.49-3.95c.11,1.23.23,2.57.37,3.8v.14c.17,1.23.37,2.46.57,3.69ZM335.73,536.89c-.49-.89-.97-1.74-1.46-2.6-.14-.26-.31-.51-.46-.77-.4-.72-.83-1.4-1.26-2.09-.24-.42-.49-.83-.77-1.23-.2-.34-.43-.69-.66-1.03l-.69-1.03c-.57-.92-1.2-1.8-1.83-2.69-.77-1.06-1.54-2.09-2.37-3.12-.38-.43-.75-.89-1.12-1.37,5.57,8.05,10.71,16.4,15.39,25-1.54-3.03-3.12-6.06-4.78-9.07h0ZM346.08,556.26c1.09,1.83,2.29,3.6,3.58,5.29h.11c-1.23-1.72-2.46-3.43-3.69-5.29ZM479.75,295.92s-.37,0-.49.14c.6-.12,1.22-.17,1.83-.14h-1.34ZM409.76,194.2c-.2-.49-.4-1-.57-1.49.14.51.31,1,.51,1.49.48,1.14,1.03,2.25,1.66,3.32-.6-1.07-1.13-2.18-1.6-3.32ZM404.84,172.61v.14l2.15,10.73-2.15-10.87ZM404.81,251.3v.14l1.37-6.78-1.37,6.64ZM400.17,230.62c.14.34.26.69.37,1-.05-.36-.18-.7-.37-1ZM387.76,214.91l-2.37-1.6,2.4,1.66v-.06h-.03Z" fill="#fff"/>
  <path id="Path_179" d="M544.26,483.49c-.26,6.92-.51,13.82-.89,20.6-.12.28-.19.58-.23.89v.37c-.11,1.72-.49,5.55-1,10.96-.23,3.58-.6,7.78-1.09,12.33-.26,3.46-.63,7.29-1.26,11.24-1.09,11.1-2.83,23.8-4.92,36.61-5.18,31.58-13.44,63.87-25.52,74.97-1.45,1.37-3.02,2.61-4.69,3.69-1.49,1.03-3.06,1.93-4.69,2.72-.97.63-2.23,1.12-3.46,1.74-.19.14-.39.26-.6.37-.1,0-.19.05-.26.11-.49.11-.97.37-1.49.49-1.23.49-2.46,1-3.8,1.49v.11c-.51.14-.86.26-1.37.37-1.97.63-3.8,1.23-5.92,1.86h-.11c-.26.11-.63.11-.86.23-.22-.04-.45.02-.63.14-.37.11-.86.11-1.23.23-2.57.51-5.06,1-7.75,1.37-2.6.49-5.32.74-8.04.97-.31.12-.64.17-.97.14-9.04.7-18.12.61-27.15-.26-1.72-.11-3.43-.37-5.03-.63-.83-.09-1.66-.2-2.52-.31-2.49-.37-4.95-.8-7.35-1.29-1.12-.11-2.23-.37-3.35-.6v-.11c-.34,0-.72-.14-.97-.14-4.92-1.23-9.75-2.57-14.3-4.18-1-.37-1.72-.74-2.6-1l-.11-.11c-3.17-1.2-6.25-2.61-9.24-4.2-2.12-1.23-4.09-2.35-5.81-3.58-.11-.11-.11-.23-.26-.23-1.3-.86-2.53-1.82-3.69-2.86,1-2.95.49-7.64-.97-13.67-.74-2.97-1.74-6.18-2.86-9.61-1.09-3.35-2.32-6.92-3.8-10.5-.49-1.23-.86-2.35-1.37-3.58-.86-2.09-1.6-4.18-2.57-6.29-6.04-14.42-13.44-29.95-19.74-42.79-1.23-1.72-2.46-3.43-3.69-5.29-1.12-1.86-2.23-3.83-3.35-5.92-.72-1.37-1.4-2.77-2.12-4.15-.03-.09-.09-.14-.11-.23-1.54-3.03-3.12-6.06-4.78-9.07-.49-.89-.97-1.74-1.46-2.6-.14-.26-.31-.51-.46-.77-.4-.72-.83-1.4-1.26-2.09-.24-.42-.49-.83-.77-1.23-.2-.34-.43-.69-.66-1.03l-.69-1.03c-.57-.92-1.2-1.8-1.83-2.69-.77-1.06-1.54-2.09-2.37-3.12-.38-.43-.75-.89-1.12-1.37-.34-.46-.69-.94-1-1.46,0-.11-.11-.11-.11-.23-.64-.9-1.21-1.85-1.72-2.83-1.1-1.75-2.01-3.61-2.72-5.55-.11-.14-.11-.37-.26-.51-.19-.4-.35-.81-.49-1.23-.02-.26-.11-.52-.26-.74-.05-.2-.09-.4-.11-.6h-.11v-.14c-.15-.21-.24-.46-.26-.72-.49-1.49-.97-2.97-1.34-4.58-.63-2.46-1.12-4.92-1.6-7.52-.37-1.72-.63-3.46-.86-5.18-.2-1.17-.37-2.37-.54-3.58s-.34-2.46-.46-3.69-.37-2.6-.49-3.95c-.14-.74-.26-1.6-.37-2.35l-1.12-8.15c-.37-2.83-.86-5.66-1.49-8.61-.37-1.97-.74-4.09-1.23-6.18-.6-2.46-1.23-4.92-1.97-7.52-.49-1.72-.97-3.46-1.6-5.18-.6-2.23-1.49-4.43-2.35-6.78-2.13-5.37.5-11.44,5.86-13.57.23-.09.46-.17.69-.25l10.24-3.46c15.28-4.43,36.5,27.89,38.47,44.17,0,0,1.6,12.7,5.18,28.23v-170.43c0-1.29.12-2.57.37-3.83.05-.74.18-1.48.37-2.2.54-2.34,1.5-4.55,2.83-6.55.17-.3.37-.59.6-.86.13-.4.4-.74.74-.97.43-.74.97-1.4,1.6-1.97,1-.89,1.97-1.6,2.97-2.35,1.17-.76,2.41-1.42,3.69-1.97.37-.14.74-.26.97-.37,1.01-.37,2.04-.65,3.09-.86,1.29-.35,2.61-.53,3.95-.51h.63c1.46-.02,2.91.15,4.32.51.92.19,1.83.43,2.72.72l.23.14.11.11h.14c.27.12.56.21.86.26.11.11.26.11.37.23h.11c.12.07.24.12.37.14.6.26,1.18.59,1.72.97.37.26.74.37,1.12.63,1.15.75,2.22,1.61,3.2,2.57,4.07,4.09,6.34,9.64,6.29,15.42v122.57c.01,1.26,1.05,2.28,2.32,2.26.26,0,.53-.05.77-.14h.26c.91-.35,1.5-1.25,1.46-2.23v-143.8c.11-4.63,1.57-9.12,4.2-12.93,2.28-3.69,5.69-6.55,9.73-8.15,8.02-3.17,17.17-1.22,23.2,4.95.77.75,1.47,1.58,2.09,2.46.54.64,1,1.34,1.37,2.09.34.45.59.95.74,1.49.29.4.5.86.6,1.34.49,1.15.87,2.35,1.12,3.58.35,1.45.51,2.94.49,4.43v136.76c-.06,1.24.9,2.29,2.14,2.34.03,0,.06,0,.09,0h.11c1.29,0,2.34-1.04,2.35-2.33,0,0,0-.01,0-.02v-113.56c0-1.41.12-2.82.37-4.2.26-1.38.63-2.74,1.12-4.06,1.94-5.29,5.76-9.67,10.73-12.33,1.16-.64,2.4-1.14,3.69-1.49h.11c1.22-.33,2.46-.53,3.72-.6.6-.12,1.22-.17,1.83-.14.62-.02,1.25.03,1.86.14.25-.02.51.02.74.11.75.02,1.5.1,2.23.26,1.47.37,2.9.85,4.29,1.46,1.01.38,1.97.88,2.86,1.49,1.29.81,2.49,1.76,3.58,2.83,4.06,4.1,6.32,9.65,6.26,15.42v124.43c.05.92.63,1.73,1.49,2.09.2.1.41.18.63.26,1.15.46,2.46-.09,2.93-1.24.11-.27.16-.55.16-.84v-70.05c0-12.1,8.01-21.83,17.99-21.83,1.21-.03,2.42.13,3.58.49.97.26,1.91.6,2.83,1,.96.49,1.87,1.06,2.72,1.72.97.6,1.84,1.35,2.57,2.23.39.26.73.59,1,.97,3.43,4.4,5.26,9.84,5.18,15.42,0,0,.11,2.46.26,7.04v.11c0,1.86.11,4.06.11,6.52.11,2.6.11,5.43.26,8.64,0,2.83.11,6.04.11,9.38.37,20.97.49,50.06-.49,79.52h0Z" fill="#1fc0de"/>
  <path id="Path_180" d="M333.98,263.51l-4.32,2.95c-.57.4-1.14.8-1.69,1.26-1.09.85-2.13,1.77-3.12,2.75-.97.97-1.88,2-2.72,3.09,0,.02-.01.03-.03.03h0c-.31.4-.63.83-.92,1.23-.43.63-.86,1.29-1.26,1.95-.41.66-.78,1.34-1.12,2.03-.34.69-.66,1.37-.94,2.06-.29.72-.57,1.4-.8,2.12-.52,1.46-.94,2.95-1.26,4.46l-1.2,6.01h0l-1.86,9.3-.97-4.72-.57-2.89-.63-3.15-.89-4.55c-.09-.26-.14-.54-.23-.8s-.14-.54-.2-.8c-.17-.53-.32-1.06-.43-1.6-.04-.13-.08-.25-.14-.37-.06-.14-.09-.29-.14-.4-.17-.54-.34-1.06-.54-1.57-.88-2.28-2-4.46-3.35-6.49-.72-1.08-1.5-2.11-2.35-3.09-.54-.63-1.09-1.23-1.66-1.77-.35-.39-.74-.75-1.14-1.09-.76-.72-1.56-1.4-2.4-2.03-.43-.31-.86-.63-1.29-.92l-4.38-2.97,4.38-3.03c1.46-1,2.83-2.12,4.09-3.35.51-.49,1-1,1.49-1.52s1-1.12,1.46-1.69.92-1.17,1.37-1.8c.4-.6.8-1.2,1.2-1.83,1.24-1.98,2.25-4.09,3.03-6.29.49-1.34.86-2.95,1.23-4.43l3.06-15.36,3.06,15.3.34,1.54c.02.11.04.21.09.31.82,3.44,2.23,6.71,4.18,9.67,0,.06.05.11.11.11,0,0,0,0,0,0,.05.08.11.16.17.23.06.09.11.14.17.23.4.6.8,1.17,1.26,1.74.11.15.22.29.34.43,1.86,2.35,4.03,4.43,6.46,6.18.22.19.46.36.72.51l3.2,2.23,1.12.8h0Z" fill="#dc65a4"/>
  <path id="Path_181" d="M309.27,285.83c-.14-.54-.29-1.06-.46-1.6-.05-.12-.09-.25-.11-.37.06.12.11.24.14.37.11.54.26,1.08.43,1.6Z" fill="#dc65a4"/>
  <path id="Path_182" d="M310.58,291.98l-.94-4.55c-.03-.27-.09-.54-.17-.8.09.26.14.54.23.8l.89,4.55Z" fill="#dc65a4"/>
  <path id="Path_183" d="M312.76,302.73l-.03.17-.94-4.89.97,4.72Z" fill="#dc65a4"/>
  <path id="Path_184" d="M312.76,224.21l-3.06,15.36c-.37,1.49-.74,3.09-1.23,4.43-.78,2.2-1.79,4.31-3.03,6.29,1.21-2,2.21-4.12,2.97-6.32.51-1.46.92-2.95,1.23-4.46l3.09-15.45v.14h.03Z" fill="#dc65a4"/>
  <path id="Path_185" d="M319.94,276.76c-.37.69-.74,1.34-1.09,2.03s-.66,1.37-.97,2.06c.29-.69.6-1.37.94-2.06.34-.7.71-1.37,1.12-2.03Z" fill="#dc65a4"/>
  <path id="Path_186" d="M320.71,251.39s-.11-.14-.17-.23c-.06,0-.11-.05-.11-.11,0,0,0,0,0,0-1.94-2.96-3.36-6.23-4.18-9.67.9,3.49,2.37,6.8,4.35,9.81.03.06.09.14.11.2Z" fill="#dc65a4"/>
  <path id="Path_187" d="M333.98,263.51l-4.32,2.97c-.57.4-1.14.8-1.69,1.23.54-.46,1.12-.86,1.69-1.26l4.32-2.95Z" fill="#dc65a4"/>
  <path id="Path_188" d="M426.09,212.05l-4.35,2.97c-1.66,1.14-3.21,2.44-4.61,3.89-.44.4-.85.83-1.23,1.29-1.06,1.14-2.01,2.36-2.86,3.66-.23.34-.46.66-.66,1-.34.51-.66,1.03-.94,1.57-.57,1.01-1.08,2.07-1.52,3.15-.32.69-.59,1.41-.8,2.15-.17.46-.31.92-.46,1.37-.3.95-.55,1.91-.74,2.89l-1.46,7.35-.29,1.32-1.34,6.78v-.14l-3.09-15.3c-.09-.34-.14-.72-.26-1.06-.24-1.13-.56-2.23-.94-3.32-.11-.31-.23-.66-.37-1-.03-.06-.06-.14-.09-.2v-.06h0c-.09-.34-.23-.67-.4-.97,0-.09-.06-.14-.09-.23-.11-.26-.23-.51-.37-.77-.31-.71-.66-1.4-1.06-2.06-.2-.4-.43-.77-.66-1.14-.29-.46-.57-.92-.89-1.37-.29-.47-.6-.91-.94-1.34-.03-.03-.06-.09-.09-.11-.4-.54-.83-1.06-1.29-1.54-1.29-1.51-2.72-2.9-4.26-4.15-.46-.37-.92-.74-1.37-1.06l-.06-.03-.37-.29c-.11-.09-.2-.17-.31-.26h-.09l-.06-.06-2.4-1.66-.17-.11-1.63-1.14,1.46-1.03,2.89-2c.65-.44,1.28-.92,1.89-1.43.65-.48,1.27-1.01,1.86-1.57.4-.35.78-.72,1.14-1.12.39-.37.77-.76,1.12-1.17.75-.82,1.45-1.69,2.09-2.6.29-.4.57-.77.83-1.17,1.49-2.21,2.69-4.61,3.58-7.12.29-.74.53-1.51.72-2.29.24-.77.44-1.55.6-2.35v-.11l3.06-15.33v-.14l2.17,10.87.94,4.61c.22,1.29.54,2.57.97,3.8.09.29.17.54.29.83.17.49.37,1,.57,1.49.47,1.14,1.01,2.24,1.6,3.32.29.55.6,1.08.94,1.6.48.8,1.01,1.57,1.57,2.32.4.54.8,1.06,1.26,1.57.14.2.31.4.49.6s.4.46.63.69c1.18,1.28,2.46,2.45,3.83,3.52.54.43,1.09.83,1.66,1.2l1.4.97.06.06,2.89,2h0Z" fill="#dc65a4"/>
  <path id="Path_189" d="M375.09,138.05l-10.33,7.09c-7.18,4.91-12.14,12.44-13.84,20.97l-5.32,26.57-5.32-26.57c-1.7-8.53-6.67-16.05-13.84-20.97l-10.33-7.09,10.33-7.09c7.17-4.92,12.14-12.44,13.84-20.97l5.32-26.57,5.32,26.57c1.71,8.53,6.68,16.05,13.84,20.97l10.33,7.09Z" fill="#dc65a4"/>
  <path id="Path_190" d="M312.76,224.21l-3.06,15.36c-.37,1.49-.74,3.09-1.23,4.43-.03,0-.03-.03-.06-.03.51-1.46.92-2.95,1.23-4.46l3.09-15.45v.14h.03Z" fill="#dc65a4" isolation="isolate" opacity=".05"/>
  <path id="Path_191" d="M316.16,241.06l-.34-1.54-3.06-15.3v-.17l3.12,15.53c.09.51.17,1,.29,1.49Z" fill="#dc65a4" isolation="isolate" opacity=".05"/>
  <path id="Path_192" d="M320.6,251.19s-.04-.03-.06-.03c-.06,0-.11-.05-.11-.11,0,0,0,0,0,0-1.94-2.96-3.36-6.23-4.18-9.67.9,3.49,2.37,6.8,4.35,9.81Z" fill="#dc65a4" isolation="isolate" opacity=".05"/>
  <path id="Path_193" d="M415.51,283.37c-2.63,3.81-4.09,8.3-4.2,12.93-.01-4.65,1.36-9.2,3.95-13.07.06.08.16.13.26.14Z" fill="#dc65a4" isolation="isolate" opacity=".05"/>
  <path id="Path_194" d="M313.73,486.09c-.2-1.23-.4-2.46-.57-3.69h.11c.11,1.23.29,2.46.46,3.69Z" fill="#dc65a4" isolation="isolate" opacity=".05"/>
  <path id="Path_195" d="M418.08,664.3v.11c-.34-.11-.6-.11-.97-.26.26,0,.63.14.97.14Z" fill="#dc65a4" isolation="isolate" opacity=".05"/>
  <path id="Path_196" d="M263.33,289.03c-2.23.49-4.32.86-6.52,1.23-12.96,1.97-25.54,2.83-37.13,3.46-2.46.11-4.81.23-7.15.49l-6.78.63s57.58-5.81,57.58-5.81Z" fill="#dc65a4" isolation="isolate" opacity=".05"/>
</svg>