<?xml version="1.0" encoding="UTF-8"?>
<svg id="Layer_1" xmlns="http://www.w3.org/2000/svg" version="1.1" viewBox="0 0 800 800">
  <!-- Generator: Adobe Illustrator 30.3.0, SVG Export Plug-In . SVG Version: 2.1.3 Build 182)  -->
  <g id="Icon_Peal_Stick">
    <g id="Group_137">
      <path id="Path_204" d="M609.24,314.95v.12c.14.09.29.21.44.29-.14-.15-.29-.27-.44-.41Z" fill="#fff"/>
      <path id="Path_205" d="M646.28,81.87H152.73c-.54-.02-1.08.02-1.61.14-27.14.43-52.03,15.18-65.44,38.78-3.99,6.73-6.82,14.09-8.37,21.75-1.24,5.45-1.86,11.03-1.84,16.62v493.54c-.03,20.13,7.82,39.48,21.88,53.89,3.94,4.07,8.32,7.7,13.05,10.82,12.57,8.25,27.3,12.61,42.33,12.55h493.54c42.66.03,77.26-34.52,77.3-77.18V159.16c.02-42.67-34.56-77.28-77.23-77.3-.02,0-.05,0-.07,0ZM484.73,159.65c1.11,1.08,2.19,2.19,3.42,3.42l1.73,1.73c1.49,1.38,3.07,2.95,4.8,4.8,3.45,3.45,7.4,7.25,11.82,11.58,3.83,3.8,8.01,7.87,12.67,12.41,1.49,1.38,2.95,2.84,4.45,4.33,1.96,1.84,3.92,3.8,6.03,6.03,9.22,8.87,19.72,19.08,31.51,30.63,6.52,6.52,13.4,13.28,20.91,20.53l.12.14v.12c5.41,5.3,11.06,10.82,17.09,16.85,4.18,4.07,8.51,8.36,13.05,12.81,2.46,2.57,5.18,5.15,7.75,7.73,0,.08.06.14.14.14,2.92,2.81,5.87,5.76,8.84,8.87.78.65,1.52,1.35,2.22,2.08,5.3,4.8,10.09,8.74,15.74,14.28-.34.08-.66.21-.97.38-1.11.24-2.22.47-3.69.85-9.28,2.69-19.19,2.26-28.2-1.23-1.03-.5-2.01-1.08-2.95-1.73-.32-.21-.7-.44-1.08-.73-.14-.12-.29-.21-.44-.32s-.29-.21-.44-.29v-.12c-4.2-3.66-8.11-7.65-11.67-11.94-.38-.38-.62-.76-1-1.11l-.12-.12c-4.22-5.08-8.75-9.89-13.55-14.42-12.67-11.94-25.83-17.7-39.88-17.7s-29.4,6.14-45.41,18.31c-2.19,1.73-4.42,3.57-6.52,5.3-.14.14-.3.27-.47.38-4.08,3.05-9.86,2.22-12.93-1.84,0-.12-.12-.12-.12-.26-9.14-13.58-17.21-27.85-24.13-42.68-.85-1.84-1.58-3.57-2.19-5.3-.83-1.8-1.58-3.65-2.22-5.53-.62-1.61-1.11-3.07-1.61-4.45-7.98-23.61-6.14-38.12-2.95-46.38.26-.73.76-1.61,1.23-2.6s1.11-1.96,1.73-3.07c.62-1.18,1.37-2.29,2.22-3.31.62-.76,1.11-1.49,1.73-2.22,7.81-9.05,17.35-16.45,28.06-21.77,1.46,1.46,3.19,3.31,5.3,5.41v.03ZM656.75,589.72c.02,8.81-1.53,17.56-4.56,25.83-.85,2.31-1.84,4.57-2.95,6.76-1.02,2.2-2.18,4.34-3.45,6.41-1.49,2.58-3.17,5.04-5.03,7.37-1.96,2.34-3.95,4.68-6.03,6.79-2.53,2.53-5.25,4.87-8.13,6.99-.97.76-1.96,1.49-3.07,2.22s-2.22,1.46-3.45,2.22c-2.3,1.41-4.68,2.68-7.14,3.8-1.23.5-2.46,1.11-3.8,1.61l-5.18,1.84c-7.25,2.23-14.8,3.34-22.38,3.31H212.53c-41.46,0-75.07-33.62-75.07-75.08,0-.03,0-.05,0-.08V220.8c0-2.34.14-4.8.38-7.14.12-1,.24-1.84.38-2.69,0-.84.11-1.68.35-2.49.14-1.2.34-2.39.62-3.57.26-1.58.76-3.19,1.11-4.65v-.14c0-.06.05-.12.11-.12,0,0,0,0,0,0,.38-1.11.62-2.08,1-3.07,1.63-5.19,3.9-10.15,6.76-14.77,0-.12.14-.24.26-.35,1.28-2.14,2.67-4.2,4.18-6.17,1.13-1.59,2.36-3.11,3.69-4.54,1-1.21,2.06-2.36,3.19-3.46.85-.96,1.8-1.82,2.84-2.57.38-.48.84-.89,1.35-1.23,1.84-1.61,3.83-3.1,5.79-4.56,1.1-.82,2.25-1.57,3.45-2.22.95-.73,1.98-1.35,3.07-1.84.98-.61,2.01-1.14,3.07-1.58,2.9-1.59,5.95-2.92,9.1-3.95.85-.35,1.72-.64,2.6-.88,1.93-.6,3.9-1.09,5.88-1.46.63-.25,1.31-.38,1.99-.38,1.62-.36,3.26-.6,4.92-.73.66-.02,1.32-.1,1.96-.24,2.33-.26,4.68-.38,7.02-.38h258.41s-50.94,8.63-47.52,63.25c.12,1.11.26,2.34.38,3.57.12,1.35.35,2.72.5,3.95.64,4.49,1.57,8.92,2.81,13.28.2,1,.46,1.98.76,2.95.35,1.23.73,2.46,1.08,3.69.38,1.11.76,2.34,1.23,3.45.88,2.57,1.73,5.03,2.72,7.6,1.46,3.45,2.95,7.14,4.68,10.85,10.15,21.19,22.35,41.34,36.42,60.15,3.49,4.71,10.13,5.71,14.85,2.22.41-.3.79-.63,1.16-.99,5.81-6.15,12.1-11.82,18.81-16.97,29.27-22.38,46.76-15.62,61.53-1.84,6.14,5.79,11.94,12.93,17.96,19.57,1.1,1.39,2.29,2.7,3.57,3.92,2.29,2.58,4.76,5,7.37,7.25,1.85,1.67,3.83,3.19,5.91,4.56.5.35,1,.7,1.52,1.02,0,.02.01.03.03.03.5.32,1.02.62,1.55.91,1.02.61,2.09,1.15,3.19,1.61,2.22,1,4.52,1.83,6.87,2.46,1.23.28,2.47.48,3.71.62,1.23.12,2.57.26,3.92.26,8.74,0,18.69-3.22,30.79-11.2v257.93Z" fill="#fff"/>
    </g>
    <path id="Path_206" d="M609.68,315.36s-.29-.21-.44-.29v-.12c.14.14.29.26.44.41Z" fill="#dc65a4"/>
    <path id="Path_207" d="M656.75,331.79v257.92c.02,8.81-1.53,17.56-4.56,25.83-.85,2.31-1.84,4.57-2.95,6.76-1.02,2.2-2.18,4.34-3.45,6.41-1.49,2.58-3.17,5.04-5.03,7.37-1.96,2.34-3.95,4.68-6.03,6.79-2.6,2.46-5.3,4.8-8.13,6.99-.97.76-1.96,1.49-3.07,2.22s-2.22,1.46-3.45,2.22c-2.34,1.23-4.68,2.57-7.14,3.8-1.23.5-2.46,1.11-3.8,1.61l-5.18,1.84c-7.25,2.23-14.8,3.34-22.38,3.31H212.53c-41.46,0-75.07-33.62-75.07-75.08,0-.02,0-.05,0-.07V220.8c0-2.34.14-4.8.38-7.14.12-1,.24-1.84.38-2.69,0-.84.11-1.68.35-2.49.14-1.2.34-2.39.62-3.57.26-1.58.76-3.19,1.11-4.65v-.14c0-.06.05-.12.11-.12,0,0,0,0,0,0,.38-1.11.62-2.08,1-3.07,1.63-5.19,3.9-10.15,6.76-14.77,0-.12.14-.24.26-.35,1.28-2.14,2.67-4.2,4.18-6.17,1.13-1.59,2.36-3.11,3.69-4.54,1-1.21,2.07-2.36,3.19-3.45.85-.96,1.8-1.82,2.84-2.57.38-.48.84-.89,1.35-1.23,1.84-1.61,3.83-3.1,5.79-4.56,1.1-.82,2.25-1.57,3.45-2.22.95-.73,1.98-1.35,3.07-1.84.98-.61,2.01-1.14,3.07-1.58,2.9-1.59,5.95-2.91,9.1-3.95.85-.35,1.72-.64,2.6-.88,1.93-.6,3.9-1.09,5.88-1.46.63-.25,1.31-.38,1.99-.38,1.62-.36,3.26-.6,4.92-.73.66-.02,1.32-.1,1.96-.24,2.33-.26,4.68-.38,7.02-.38h258.41s-50.97,8.63-47.52,63.25c.12,1.11.26,2.34.38,3.57.12,1.35.35,2.72.5,3.95.64,4.49,1.57,8.92,2.81,13.28.2,1,.46,1.98.76,2.95.35,1.23.73,2.46,1.08,3.69.38,1.11.76,2.34,1.23,3.45.88,2.57,1.73,5.03,2.72,7.6,1.46,3.45,2.95,7.14,4.68,10.85,10.15,21.19,22.35,41.34,36.42,60.15,3.49,4.71,10.13,5.71,14.85,2.22.41-.3.79-.63,1.16-.99,5.81-6.15,12.1-11.82,18.81-16.97,29.27-22.38,46.76-15.62,61.53-1.84,6.14,5.79,11.94,12.93,17.96,19.57,1.1,1.39,2.29,2.7,3.57,3.92,2.29,2.58,4.76,5,7.37,7.25,1.85,1.67,3.83,3.19,5.91,4.56.5.35,1,.7,1.52,1.02,0,.02.01.03.03.03.5.33,1.02.63,1.55.91,1.02.61,2.09,1.15,3.19,1.61,2.17,1.12,4.48,1.95,6.87,2.46,1.23.28,2.47.48,3.71.62,1.23.12,2.57.26,3.92.26,8.74,0,18.69-3.22,30.79-11.2h-.02Z" fill="#1fc0de"/>
    <path id="Path_208" d="M647.01,318.14c-.34.08-.66.21-.97.38-1.11.24-2.22.47-3.69.85-9.28,2.69-19.19,2.26-28.2-1.23-1.03-.5-2.01-1.08-2.95-1.73-.32-.21-.7-.44-1.08-.73-.14-.12-.29-.21-.44-.32s-.29-.26-.44-.41c-4.2-3.66-8.11-7.65-11.67-11.94-.38-.38-.62-.76-1-1.11l-.12-.12c-4.22-5.08-8.75-9.89-13.55-14.42-12.67-11.94-25.83-17.7-39.87-17.7s-29.4,6.14-45.41,18.31c-2.19,1.73-4.42,3.57-6.52,5.3-.14.14-.3.27-.47.38-4.08,3.05-9.86,2.22-12.93-1.84,0-.12-.12-.12-.12-.26-9.14-13.58-17.21-27.85-24.14-42.68-.85-1.84-1.58-3.57-2.19-5.3-.83-1.8-1.58-3.65-2.22-5.53-.62-1.61-1.11-3.07-1.61-4.45-7.98-23.61-6.14-38.12-2.95-46.38.26-.73.76-1.61,1.23-2.6s1.11-1.96,1.73-3.07c.76-1.11,1.49-2.19,2.22-3.31.62-.76,1.11-1.49,1.73-2.22,7.81-9.05,17.35-16.45,28.06-21.77,1.46,1.46,3.19,3.31,5.3,5.41,1.11,1.08,2.19,2.19,3.42,3.42l1.73,1.73,4.8,4.8c3.45,3.45,7.4,7.25,11.82,11.58,3.83,3.8,8.01,7.87,12.67,12.41,1.49,1.38,2.95,2.84,4.45,4.33l6.03,6.03c9.22,8.87,19.72,19.08,31.51,30.63,6.52,6.52,13.4,13.28,20.91,20.53l.12.14v.12c5.41,5.3,11.06,10.82,17.09,16.85,4.18,4.07,8.51,8.36,13.05,12.81,2.46,2.57,5.18,5.15,7.75,7.73,0,.08.06.14.14.14,2.92,2.81,5.87,5.76,8.84,8.87.78.65,1.52,1.35,2.22,2.08,5.3,4.8,10.09,8.74,15.74,14.28v.03Z" fill="#dc65a4"/>
  </g>
</svg>